/* XPM */
static char *_97d79334403462283dd586d19d951bfjSflHvdKgA0IQdrQ[] = {
/* columns rows colors chars-per-pixel */
"50 50 246 2 ",
"   c #4B0406",
".  c #530B00",
"X  c #540806",
"o  c #591801",
"O  c #531812",
"+  c #651905",
"@  c #6C1C13",
"#  c #5B2300",
"$  c #672706",
"%  c #722B06",
"&  c #763709",
"*  c #752917",
"=  c #6F3115",
"-  c #693726",
";  c #743A27",
":  c #6A3C30",
">  c #7D451A",
",  c #7A4326",
"<  c #7E542D",
"1  c #6A4437",
"2  c #7B4934",
"3  c #785141",
"4  c #823C1D",
"5  c #813D26",
"6  c #85481A",
"7  c #875A15",
"8  c #916A1A",
"9  c #B27D14",
"0  c #A9751B",
"q  c #874927",
"w  c #82532E",
"e  c #8B532F",
"r  c #885A2A",
"t  c #935A2A",
"y  c #8A4D32",
"u  c #8D5333",
"i  c #8A5834",
"p  c #975934",
"a  c #944B2B",
"s  c #A25E37",
"d  c #8A632A",
"f  c #936428",
"g  c #966837",
"h  c #99762F",
"j  c #A76A38",
"k  c #A7763A",
"l  c #A57425",
"z  c #8E5942",
"x  c #965D48",
"c  c #9D7741",
"v  c #97695C",
"b  c #A66844",
"n  c #A87744",
"m  c #B57546",
"M  c #B17750",
"N  c #A87862",
"B  c #9F726C",
"V  c #C47F56",
"C  c #B7831D",
"Z  c #B48628",
"A  c #A9873C",
"S  c #B38C34",
"D  c #B98837",
"F  c #B99338",
"G  c #AA8725",
"H  c #C2871B",
"J  c #C48B24",
"K  c #C68C27",
"L  c #CC9429",
"P  c #C7893A",
"I  c #C2923D",
"U  c #C99838",
"Y  c #D29A37",
"T  c #D0972E",
"R  c #D7A33A",
"E  c #C4A33A",
"W  c #AB8847",
"Q  c #B58949",
"!  c #BA9748",
"~  c #A78A56",
"^  c #BA8A55",
"/  c #B79859",
"(  c #AF9B56",
")  c #BAA55A",
"_  c #BFAB4A",
"`  c #B89866",
"'  c #B48A7A",
"]  c #BD9B7F",
"[  c #B9977B",
"{  c #AF836E",
"}  c #BCA864",
"|  c #BCAA7E",
" . c #BEB071",
".. c #C28C47",
"X. c #C39849",
"o. c #D49A47",
"O. c #C48C5A",
"+. c #C59857",
"@. c #E19F55",
"#. c #C6A449",
"$. c #D6AA43",
"%. c #CAA555",
"&. c #D4AA58",
"*. c #CCB45A",
"=. c #DEBE5A",
"-. c #D8B859",
";. c #DFB34A",
":. c #E3B24A",
">. c #E4BC4A",
",. c #E5BC59",
"<. c #E3AF4C",
"1. c #C39265",
"2. c #C3906B",
"3. c #C7A96B",
"4. c #CAB568",
"5. c #D7B967",
"6. c #C5AA7A",
"7. c #CCB576",
"8. c #C8B77C",
"9. c #D4BA73",
"0. c #D8BB77",
"q. c #D0AE64",
"w. c #E2BB65",
"e. c #E2BB74",
"r. c #DCC55F",
"t. c #E9C04D",
"y. c #E6C25B",
"u. c #F1C654",
"i. c #DCC666",
"p. c #DCC477",
"a. c #D3CD79",
"s. c #E4C364",
"d. c #ECCA65",
"f. c #E3C56B",
"g. c #EAC76A",
"h. c #E3CC6C",
"j. c #EBC867",
"k. c #F6CD66",
"l. c #E5D36B",
"z. c #E8D96C",
"x. c #FAD56D",
"c. c #E2C373",
"v. c #E5CD73",
"b. c #EBCE73",
"n. c #E6C879",
"m. c #EBD374",
"M. c #EAD677",
"N. c #FEDA73",
"B. c #F2DC7D",
"V. c #FDDE7C",
"C. c #F9D576",
"Z. c #F3CF71",
"A. c #EBE27E",
"S. c #FFE27B",
"D. c #F4E47F",
"F. c #B5898D",
"G. c #BB908D",
"H. c #BDAC85",
"J. c #BCB18E",
"K. c #C09A8E",
"L. c #C3A681",
"P. c #C5B384",
"I. c #CBB58A",
"U. c #C8B787",
"Y. c #D6B98C",
"T. c #C5A893",
"R. c #CCBE92",
"E. c #C9BA95",
"W. c #DCBE92",
"Q. c #DDB29F",
"!. c #E9BF8D",
"~. c #D9B6AE",
"^. c #E4BCA7",
"/. c #E2BCB3",
"(. c #CBC288",
"). c #D6C588",
"_. c #CCC393",
"`. c #CCC39C",
"'. c #DDC49C",
"]. c #D6C596",
"[. c #DDD48B",
"{. c #E4CC83",
"}. c #E8C989",
"|. c #F6CF8C",
" X c #E8D588",
".X c #F4DC8A",
"XX c #F8DA88",
"oX c #E6C594",
"OX c #EBD996",
"+X c #F3DC93",
"@X c #FAD998",
"#X c #EDE48C",
"$X c #F4E383",
"%X c #FDE484",
"&X c #FEE48B",
"*X c #F5EB89",
"=X c #FCEB8C",
"-X c #F5EB84",
";X c #FDF38C",
":X c #FFF88F",
">X c #EAE397",
",X c #FDEB93",
"<X c #FBEC9A",
"1X c #FAE599",
"2X c #FFF294",
"3X c #FDF39A",
"4X c #FDF89A",
"5X c #DCCCA5",
"6X c #D5CDAD",
"7X c #E8CAA7",
"8X c #E7D5AC",
"9X c #F7D7A6",
"0X c #EDCAB1",
"qX c #EAC6B3",
"wX c #E8DBBA",
"eX c #FAE7A6",
"rX c #FEF5A9",
"tX c #FFF0BA",
"yX c #F3E4B7",
"uX c #E9DAC8",
"iX c #F6DAD6",
"pX c #EDE4C9",
"aX c #F6E4C3",
"sX c #FAEAC9",
"dX c #FDF3C7",
"fX c #FCEBD5",
"gX c #FFF3D4",
"hX c #FFFDD6",
"jX c #FEF4D9",
"kX c #FEFDDC",
"lX c #EDEFEC",
"zX c #FCEFEC",
"xX c #FEF6E4",
"cX c #FFFCE4",
"vX c #FDF4EB",
"bX c #FFFCEB",
"nX c #F4F4EA",
"mX c #EEF9F6",
"MX c #FEF5F3",
"NX c #F5FBF4",
"BX c #FEFDF4",
"VX c #FEF6FC",
"CX c #F5FEFE",
"ZX c #FEFEFD",
"AX c #F6F7F3",
"SX c #ECF1ED",
/* pixels */
"ZXZXZXZXZXBXBXBXBXNXZXZXZXZXZXzXZXVXVXVXCXZXnXfXdXdXtXdXjXcXBXBXbXbXZXZXVXZXZXCXAXBXBXBXZXZXZXVXZXZX",
"ZXZXZXZXBXBXBXNXCXAXZXZXZXMXBXBXvXbXvXuX~.J.H.P.) 3.0.0.Y.'.aXkXbXbXbXZXZXZXCXmXCXCXBXNXZXZXVXZXZXZX",
"ZXZXZXZXZXBXBXCXBXZXAXBXBXBXcXkX9Xp.} } 7.{.c.=.h.d.u.w.-.q.3.6.5XsXbXBXAXZXZXZXZXBXBXBXZXZXZXZXZXZX",
"ZXZXZXZXBXCXBXZXAXZXZXnXBXcXpX].} r.M..Xm.g.j.k.u.u.>.u.k.Z.n.e.6.].aXcXBXZXZXZXCXCXBXBXZXZXZXZXZXZX",
"ZXZXZXZXZXZXZXZXZXZXBXvXnXdX_.(.A.z.l.l.h.l.y.,.>.>.t.t.,.s.n. X X6.6.aXbXBXnXZXZXZXZXZXZXZXZXZXZXZX",
"ZXZXZXZXZXZXZXZXZXZXBXbXdX_.(.[.z.z.z.h.i.b.&X,X%XS.%XS.B.v.i.q.n.c.7.Y.wXbXBXvXZXZXZXZXZXZXZXZXZXZX",
"ZXZXZXZXZXZXZXZXZXBXmXkX6X(.[.4X#X[.#XeXrXeX|.e.e.e.c.{.@X1X+X.X*.B.|.6.I.fXMXZXZXZXZXZXZXZXZXZXZXZX",
"BXZXZXZXZXZXZXZXZXZXNXpX[.>X:X[.[.<XrXoX1.n M ^ Q Q Q A A ! c.&Xd.j.s.e.].8XjXBXZXZXZXZXZXZXBXZXZXZX",
"ZXZXBXZXZXZXZXZXVXZXbX`.eX>X*X-XeX9XO.q 4 V m V O.O.1.X.X.P Z :.S.k.s.e.).Y.cXbXZXZXZXZXZXZXZXZXZXZX",
"BXZXZXZXZXZXZXVXZXZXbX`.eX>X;X*XtX2.q 5 a s 5 b b b Q D U Y H J k.x.s.g.p.U.dXbXVXZXZXZXZXZXBXBXZXZX",
"ZXZXZXZXZXZXZXZXZXBXcXR.eX3X:X,X9Xi - 5 5 5 x 2.L.6.6.W S T L H :.N.w.g.p.8.8XcXBXZXZXZXZXZXBXZXZXZX",
"ZXZXZXZXZXZXZXZXZXBXxXR.eX3X:X3XoX2 z 5 5 x Q.sXjXkXdX0.A Z L L Y XX&.c.0.0.'.cXBXZXZXZXZXZXZXZXZXZX",
"ZXZXZXZXZXZXZXZXZXvXjXR.eX,X;X3X'.: 3 : 1 T.MXBXBXNXcXpX .A F U I @X%.5.9.a.U.kXbXZXZXZXZXZXZXZXZXZX",
"ZXZXZXZXZXZXZXZXBXvXjXU.>X X=X3X7X: 3 1 1 /.ZXAXCXmXmXkX(.W ..K X.@XX.%.4.7.U.hXbXZXZXZXZXZXZXZXZXZX",
"ZXZXZXZXZXZXZXZXBXvXjXP.OX X$X<XoX, z z ; ~.MXBXZXNXNXkXY...o.P ..@X/ / ) } 8.hXbXBXZXZXZXZXZXZXZXZX",
"ZXZXZXZXZXZXBXBXBXbXjXP.).p.B.,X!.; i i ; qXvXAXNXCXBXbXW.O.@.P ..@X+.! / / U.hXbXZXZXZXZXZXZXZXZXZX",
"BXZXZXZXZXZXBXBXZXMXxXH.p.f.g.&X!.< q y y qXvXZXZXCXBXcXY.1.;.! ! +XQ k O.O.L.kXbXBXZXZXZXZXZXBXZXZX",
"BXZXZXZXZXBXbXBXZXZXcX6.{.g.s.XXW.< y y , qXvXBXCXZXMXcXY.3.-.#.) +XQ j M ^ L.cXbXCXZXZXZXZXCXCXZXZX",
"bXZXZXZXZXBXBXBXVXMXcX6.{.h.s.XX}.< e u 2 qXbXBXCXCXbXcXY.9.i.*.4.+Xk f m M L.cXbXCXZXZXZXZXZXBXZXZX",
"BXBXZXZXZXBXBXBXZXMXcXP.{.b.j.XXoX< u u 2 qXvXNXCXZXvXcXY.9.l.i.9.1Xl t b b L.cXbXCXZXZXZXZXBXCXZXZX",
"BXBXZXZXZXBXBXBXZXMXvXI. Xb.s.XX}.w t i y qXbXBXCXZXvXxXW.9.b.i.p.eXf a j p ] cXBXBXZXZXZXZXBXCXZXZX",
"BXBXZXZXZXCXBXBXZXVXbXP.OXM.g.XX}.r d i < qXcXBXZXZXBXcXY.0.b.i.p.eXt 6 s u ] cXBXCXZXZXZXZXCXBXZXZX",
"BXZXZXZXZXBXBXBXZXVXcXI..XB.b.&X|.d t p w 0XbXNXCXZXMXbXW.0.m.h.n.eX6 6 p q ] bXbXCXZXZXZXZXZXZXZXZX",
"BXZXZXZXZXZXBXBXZXVXbXU.+XB.m.&X}.d f p w qXbXBXCXCXMXcXoXp.M.h. XeX> & a ; [ bXBXZXZXZXZXZXZXCXZXZX",
"BXZXZXZXZXBXBXZXZXVXvXR.1X.XB.=X Xf h t w 0XxXBXCXCXZXxX).{.m.m.oXeX& & q = 6.xXBXZXZXZXZXZXZXCXZXZX",
"BXBXZXZXZXCXBXBXZXZXxXR.<XD.XX,X.Xh j g r 8XxXNXCXCXBXxXW.}.M.m. X9X= % 4 = G.bXBXZXZXZXZXZXBXBXZXZX",
"BXZXZXZXCXZXBXZXZXZXcXR.<X&X$X=XXXh k k i 0XcXBXCXCXBXxXW.{.M.M. X9X% $ * = G.xXBXZXZXVXZXZXZXCXZXZX",
"BXZXZXZXZXZXBXBXZXZXxXR.rX,X=X,X%XA A k g 7XcXBXZXCXZXxX'.{.B.M. X9X$ + * $ ' bXBXZXZXZXZXZXZXBXZXZX",
"BXZXZXZXZXZXBXBXZXZXvX_.rX2X2X3X$XF W Q g 7XcXNXCXCXBXcXW.{.S.M.OX9X# o * o ' BXZXZXZXZXZXZXZXZXZXZX",
"ZXZXZXZXZXZXBXZXVXZXbXE.<X=X2X4X&X! ! ..x 5XcXNXCXCXZXxX].}.D..X9X9X# o + o ' vXBXZXZXVXVXZXZXZXZXZX",
"BXZXZXZXZXZXBXZXZXZXbXJ.OX#X=X2X=X#.X.+.c W.cXNXCXCXZXxXW. XD.D.9X9Xo . + . { BXVXZXZXZXZXZXZXZXZXZX",
"ZXZXZXZXZXZXBXZXCXZXbXJ. XM.%X=X&X%.%.%.A '.cXBXCXCXZXvX'. X$XD.1X9X# . + . ' MXZXZXZXZXZXZXZXZXZXZX",
"ZXZXZXZXZXZXZXZXZXbXcXH.a.c.Z.%XV.j.#.*.( (.jXZXZXZXVXzX5XOX,X-X<XoXo .   X G.VXZXZXZXZXZXZXZXZXZXZX",
"CXZXZXZXZXZXZXBXBXcXkX| 7.0.j.N.V.g.%.*.) ].kXBXZXVXVXBX6X>X*X$X3XOX# . X   F.VXZXCXCXZXZXZXZXZXZXZX",
"ZXCXZXZXZXZXZXZXZXxXcX| q.&.,.k.V.j.s.4.} ].cXnXZXVXVXBX`.>X;X;X<X+X# . X   F.VXZXCXZXZXZXZXZXZXZXZX",
"ZXZXZXZXZXZXZXZXZXbXcX| } %.<.,.%Xj.b.i.4.(.kXbXZXVXVXBXJ.eX4X-X<X.X# . +   F.ZXCXCXZXZXZXZXVXZXZXZX",
"CXZXZXZXZXZXZXZXZXbXcXH.Q X.R :.%Xg.g.c.9.8.hXbXMXZXBXbX_.rX4X#X<X|.% o @   F.ZXZXCXZXZXZXZXZXZXZXZX",
"ZXZXZXZXZXZXCXZXCXbXcXU.W F T R V.g.w.v.p.7.yXhXcXbXxXwX_.eX4X;X3Xn.% + *   G.MXBXCXZXZXVXZXZXZXZXZX",
"BXZXZXZXZXZXZXZXCXNXcX_.W P K L x.Z.=.b.p.p.).8XaXuX8X_.[.>X4X4X3Xe.% % * O Q.MXBXCXZXZXZXZXZXZXZXZX",
"ZXZXZXZXZXZXCXCXCXNXcX5XW U K H u.N.=.h.c.i.4.7.8.8.(.).rX>X-X:X<X&.% % ; O ~.ZXBXZXZXZXZXZXZXZXZXZX",
"ZXZXZXZXZXZXCXZXCXZXbXsX( Q T Z R z.N.t.*.z.B.p.{.[. X X#X*XD.%X,X7 & 4 ; : iXBXZXCXZXZXVXZXZXZXZXZX",
"ZXZXZXZXZXZXZXCXZXCXbXgXP.W D U G t.S.S.y.=.r.h.f.v.v.v.l.z.D.=XF 7 a y * B zXZXZXZXZXZXZXZXZXCXZXZX",
"ZXZXZXZXZXZXZXZXZXlXBXcXyX~ Q +.F E y.N.S.k.y.y.y.=.s.l.V.B.h.-.7 f t w - /.BXBXCXZXZXZXVXZXZXCXZXZX",
"ZXZXZXZXZXZXZXZXCXSXBXbXcXI.~ ! ! G G #.d.x.N.N.S.N.x.N.C.w.S 8 h g u y v zXZXmXCXZXZXZXZXZXCXZXZXZX",
"ZXZXZXZXZXZXZXZXZXZXBXBXbXsXH.~ ( F S F I U R $.;.:.;.R D l 8 f W d i N /.BXVXCXCXCXZXVXVXZXZXCXZXZX",
"CXZXZXCXBXBXBXBXZXZXAXBXvXbXuXJ.W ! ! F S Z Z Z 9 9 C 0 0 l k A d < { Q.vXBXAXCXCXZXZXZXZXZXZXZXZXZX",
"CXCXZXZXBXBXBXBXBXAXZXCXNXBXBXsX3.! A Q X.o.U Y T K Z K P Q m k c ` oXfXvXMXCXCXCXCXZXVXVXZXCXCXZXZX",
"ZXCXZXZXZXBXBXZXZXlXZXZXZXlXZXcXhX9X3.^ W A D ..Z D D D k n n N I.gXxXvXMXZXCXmXCXZXZXVXZXZXZXZXZXZX",
"ZXZXZXZXZXZXZXZXZXZXZXZXZXZXZXZXbXbXcXfX8XT.| ` / ` / ` H.E.uXfXMXBXMXBXZXZXZXZXZXZXZXZXZXZXZXZXZXZX",
"ZXZXZXZXZXZXZXZXZXZXZXZXZXZXZXZXSXCXZXZXZXvXxXjXsXtXsXgXjXxXMXZXZXZXZXZXZXZXZXZXZXZXZXZXZXZXZXZXZXZX"
};
