/* XPM */
static char *_9510_57ed364b57bb5d4e0f5d108100e3a2189fbf3f67211037742a2996e150946ff1[] = {
/* columns rows colors chars-per-pixel */
"50 50 224 2 ",
"   c #0E0000",
".  c #1C0102",
"X  c #1C0E00",
"o  c #260C00",
"O  c #280907",
"+  c #33120C",
"@  c #371D1E",
"#  c #352200",
"$  c #28231D",
"%  c #2E1928",
"&  c #393533",
"*  c #363725",
"=  c #511F00",
"-  c #4B2401",
";  c #46251C",
":  c #652A00",
">  c #47423F",
",  c #59403C",
"<  c #4D5C33",
"1  c #7E4D25",
"2  c #725334",
"3  c #4E5416",
"4  c #7C384D",
"5  c #504849",
"6  c #8D3D26",
"7  c #8C5007",
"8  c #924B0C",
"9  c #B55F08",
"0  c #8F6200",
"q  c #98691C",
"w  c #937C1E",
"e  c #8D721B",
"r  c #AB6900",
"t  c #B66D00",
"y  c #AE7E0B",
"u  c #AC7205",
"i  c #B27E00",
"p  c #B87507",
"a  c #B87514",
"s  c #B57B16",
"d  c #AE7617",
"f  c #8A662E",
"g  c #B57626",
"h  c #A27033",
"j  c #AB6D24",
"k  c #C57D09",
"l  c #C17903",
"z  c #C77418",
"x  c #9D5A4A",
"c  c #9C7740",
"v  c #9C7E5C",
"b  c #93634C",
"n  c #AD800D",
"m  c #B68409",
"M  c #B5900C",
"N  c #BD8B14",
"B  c #B98717",
"V  c #BC9B1C",
"C  c #BB9515",
"Z  c #BD8621",
"A  c #BE932C",
"S  c #BD9A2D",
"D  c #B99327",
"F  c #C2830C",
"G  c #CE840B",
"H  c #C58A05",
"J  c #C28112",
"K  c #C8891B",
"L  c #D88719",
"P  c #C6961C",
"I  c #C89317",
"U  c #DB9416",
"Y  c #E18B12",
"T  c #C3A21D",
"R  c #C48A23",
"E  c #C98B26",
"W  c #CB9523",
"Q  c #C9932B",
"!  c #C89829",
"~  c #D59629",
"^  c #C68938",
"/  c #CC9A35",
"(  c #CC9A3D",
")  c #C69734",
"_  c #D39B33",
"`  c #D19C3C",
"'  c #CFA42B",
"]  c #C7A226",
"[  c #D8A727",
"{  c #DCB12F",
"}  c #C4A135",
"|  c #CCA638",
" . c #D6A537",
".. c #D7A83B",
"X. c #CDB43D",
"o. c #D7B13A",
"O. c #FCA523",
"+. c #ECB139",
"@. c #F3B530",
"#. c #E1A93C",
"$. c #E4C735",
"%. c #978348",
"&. c #BC9A40",
"*. c #B8845C",
"=. c #BEA24E",
"-. c #C68846",
";. c #CA9743",
":. c #CAA747",
">. c #D5A345",
",. c #D3AC41",
"<. c #D4AB4C",
"1. c #D6A948",
"2. c #CBB045",
"3. c #D9B84A",
"4. c #C8A654",
"5. c #D4AC55",
"6. c #CBB15D",
"7. c #DDB657",
"8. c #DCBB54",
"9. c #DEBC5C",
"0. c #D7B75A",
"q. c #E4BC46",
"w. c #E2B748",
"e. c #E4BC55",
"r. c #D2AE62",
"t. c #D9B768",
"y. c #DEBE73",
"u. c #D3AB74",
"i. c #E0B974",
"p. c #DCC55B",
"a. c #DAC656",
"s. c #E4C658",
"d. c #F8D859",
"f. c #E0D65A",
"g. c #DDC364",
"h. c #D9C567",
"j. c #CBC071",
"k. c #DDCA77",
"l. c #D6D76D",
"z. c #E3CC65",
"x. c #E6CC6C",
"c. c #EACE6E",
"v. c #E9C666",
"b. c #F4C460",
"n. c #E7D469",
"m. c #E1CF72",
"M. c #E5C87A",
"N. c #EBD474",
"B. c #E4D57B",
"V. c #ECDB7C",
"C. c #E8D775",
"Z. c #F6DA78",
"A. c #F4C776",
"S. c #D6E564",
"D. c #ECE074",
"F. c #EDE37C",
"G. c #F2E47B",
"H. c #82808E",
"J. c #9EA38F",
"K. c #B7ADB8",
"L. c #C1BC94",
"P. c #C8B084",
"I. c #E6CF83",
"U. c #E1C78A",
"Y. c #F2CE82",
"T. c #EBDD82",
"R. c #EEDB8D",
"E. c #E8D689",
"W. c #F3DC83",
"Q. c #E4CC9E",
"!. c #EDDF9C",
"~. c #E9DA96",
"^. c #F3DD97",
"/. c #EDE583",
"(. c #F2E28A",
"). c #F8E588",
"_. c #EFE299",
"`. c #F4E199",
"'. c #DFCEBA",
"]. c #DCD1BF",
"[. c #E2CAA7",
"{. c #ECD9A7",
"}. c #F9D4AD",
"|. c #E7CEB7",
" X c #E7D3BA",
".X c #F6D5B6",
"XX c #ECE1A3",
"oX c #FFF0A6",
"OX c #FFE0BD",
"+X c #DFD6C8",
"@X c #DDD7D7",
"#X c #E3D4C4",
"$X c #EBDDCE",
"%X c #E8D9C9",
"&X c #EED9D6",
"*X c #F6E3CB",
"=X c #FDE9D9",
"-X c #FFF7DE",
";X c #F9FFDA",
":X c #F1F1CD",
">X c #DBCCE1",
",X c #F1EDE6",
"<X c #F8EFE9",
"1X c #E9FDEE",
"2X c #EDF7E7",
"3X c #F3FCE4",
"4X c #FFFFE3",
"5X c #F5FDED",
"6X c #FEFEEC",
"7X c #FCF4EB",
"8X c #E8E9F3",
"9X c #F9EEF2",
"0X c #EDF3FC",
"qX c #EEFEFC",
"wX c #EDF6F2",
"eX c #FCF7F7",
"rX c #F4FCF4",
"tX c #FEFEF4",
"yX c #F5F3FD",
"uX c #FEF5FD",
"iX c #F5FDFD",
"pX c #FFFFFF",
"aX c #F6F1F7",
"sX c #E7E5EA",
/* pixels */
"pXpXpXpXpXpXpXpXpXpXpXpXpXpXpXpXiXpXuXpXpXrXeXuXtXtXtXtXuXpXuXeXpXpXpXpXpXpXpXpXpXpXpXpXpXpXpXpXpXpX",
"pXpXpXpXpXpXpXpXpXpXpXpXpXpXpXpXrXpXuXpXpXpXpXuXpXiXpXeXiXiXpXpXpXpXpXpXpXpXpXpXpXpXpXpXpXpXpXpXpXpX",
"pXpXpXpXpXpXpXpXpXpXpXpXpXpXpXpXtXpXtXtXtXiXuXpXpXpXuXiXiXtXrX1XpXpXpXpXpXpXpXpXpXpXpXpXpXpXpXpXpXpX",
"pXpXpXpXpXpXpXpXpXpXpXpXpXpXpXpXiXpXtXtXrXqXpXuXuXuXpXeXuX9XiXiXpXpXpXpXpXpXpXpXpXpXpXpXpXpXpXpXpXpX",
"pXpXpXpXpXpXpXpXpXpXpXpXpXpXpXpXpXpXpXpXiXiXpX&XS S S D ] S XX4XpXpXpXpXpXpXpXpXpXpXpXpXpXpXpXpXpXpX",
"pXpXpXpXpXpXpXpXpXpXpXpXpXpXpXpXuXpXpXiXiXpX%Xv r u u r a j |.pXpXpXpXpXpXpXpXpXpXpXpXpXpXpXpXpXpXpX",
"pXpXpXpXpXpXpXpXpXpXpXpXpXpXpXpXpXpXtXiXyXpXQ.q p F B k G g .XuXpXpXpXpXpXpXpXpXpXpXpXpXpXpXpXpXpXpX",
"pXpXpXpXpXpXpXpXpXpXpXpXpXpXpXpXpX7X6XiXiX7X^. .k B y p G d {.qXpXpXpXpXpXpXpXpXpXpXpXpXpXpXpXpXpXpX",
"pXpXpXpXpXpXpXpXuXpXeXeXiXiXiXiX3XtXiXiXtX}.;.k J Z K H K M |.iXpXpXpXpXpXpXpXpXpXpXpXpXpXpXpXpXpXpX",
"pXpXpXpXpXpXpXpXpX,XpXpX0X0XiXpXpXuXpX-X{.4.B H C R K H R N  XpXpXpXpXpXpXpXpXpXpXpXpXpXpXpXpXpXpXpX",
"pXpXpXpXpXpXpXpXtX2XiXpXiX7X7X-X<X=X{.6.S B K Q W ) Q I Q C #XpXpXpXpXpXpXpXpXpXpXpXpXpXpXpXpXpXpXpX",
"pXpXpXpXpXpXpXpXpXpXiXrX+XP.r.t.=.:.} ! W  .>.( ! ) ) I ` V #XpXpXpXpXpXpXpXpXpXpXpXpXpXpXpXpXpXpXpX",
"pXpXpXpXpXpXpXpXpXyXpX=Xf q ! ! T C W #.#._ / | | ;.` ' >.] #XpXpXpXpXpXpXpXpXpXpXpXpXpXpXpXpXpXpXpX",
"pXpXpXpXpXpXpXpXuXpXpX*Xq Q +.{ w.w.>.` ` ,...[ o.<.1...<.} %XpXpXpXpXpXpXpXpXpXpXpXpXpXpXpXpXpXpXpX",
"pXpXpXpXpXpXpXpXpXiXpX.Xg _ 1.:.` 1.1.<.8.8.,.,.3.5.5.,.7.X.$XpXpXpXpXpXpXpXpXpXpXpXpXpXpXpXpXpXpXpX",
"pXpXpXpXpXpXpXpXiXrXtXOX8 a b.y.b.q.a.n.8.e f u.3.7.5.3.9.X.$XtXpXpXpXpXpXpXpXpXpXpXpXpXpXpXpXpXpXpX",
"pXpXpXpXpXpXpXpXpXpXeX=X- c M.t.t.4.%.3 % = -.y.s.t.a.g.g.p.+XrXpXpXpXpXpXpXpXpXpXpXpXpXpXpXpXpXpXpX",
"pXpXpXpXpXpXpXpXrXeXuX&Xo o # X   . X < K.r.q.p.s.M.p.z.g.0.].iXpXpXpXpXpXpXpXpXpXpXpXpXpXpXpXpXpXpX",
"pXpXpXpXpXpXpXpXrXiXpX@X5 & 5 > H.K.8X1XiXW.d.f.z.M.z.c.x.h.#XpXpXpXpXpXpXpXpXpXpXpXpXpXpXpXpXpXpXpX",
"pXpXpXpXpXpXpXpX5XrXpXpXyXuXpXiXrXeXiX1XuXoX).x.n.I.n.N.N.m.%XpXpXpXpXpXpXpXpXpXpXpXpXpXpXpXpXpXpXpX",
"pXpXpXpXpXpXpXpXpXpXpXeXpXpXuXwX3X6XiX2XpXA.w.^.C.E.C.V.V.N.$XiXpXpXpXpXpXpXpXpXpXpXpXpXpXpXpXpXpXpX",
"pXpXpXpXpXpXpXpXpXpXpX,XtXeXpXtXpXpXpX3XpXG.a.Z.V.R.V.T.V.B.%XpXpXpXpXpXpXpXpXpXpXpXpXpXpXpXpXpXpXpX",
"pXpXpXpXpXpXpXpXuXpXuXpXtXtXpXiXpXuXuXrX7XZ.d.G.T._.F.(.W.V.$XiXpXpXpXpXpXpXpXpXpXpXpXpXpXpXpXpXpXpX",
"pXpXpXpXpXpXpXpXiXrXiXtXpXiXpXuXtXeXuX5XpXc.! _.T.!.F.(.(./.$XpXpXpXpXpXpXpXpXpXpXpXpXpXpXpXpXpXpXpX",
"pXpXpXpXpXpXpXpXpXpXpXpXpXpXpXpXiX,XiX3XpX-.z /./.!.F.(.).E.+XiXpXpXpXpXpXpXpXpXpXpXpXpXpXpXpXpXpXpX",
"pXpXpXpXpXpXpXpXpXpXpXpXpXpXpXpXpXeXpX5XpX^ L /./._.F.(.).T.+XpXpXpXpXpXpXpXpXpXpXpXpXpXpXpXpXpXpXpX",
"pXpXpXpXpXpXpXpXpXpXpXpXpXpXpXpXiXtXuXuXpX[ O.R.Z.!.D.(.).B.+XiXpXpXpXpXpXpXpXpXpXpXpXpXpXpXpXpXpXpX",
"pXpXpXpXpXpXpXpXpXpXpXpXpXpXpXpXiXtXuXpXpX@.O.R.V.R.C.Z.Z.m.#XpXpXpXpXpXpXpXpXpXpXpXpXpXpXpXpXpXpXpX",
"pXpXpXpXpXpXpXpXpXpXpXpXpXpXpXpXpXtXuXiXpX+.Y E.N.E.C.V.V.m.#XpXpXpXpXpXpXpXpXpXpXpXpXpXpXpXpXpXpXpX",
"pXpXpXpXpXpXpXpXpXpXpXpXpXpXpXpXpXuXpX5XpX-.9 m.n.E.n.N.N.x.|.pXpXpXpXpXpXpXpXpXpXpXpXpXpXpXpXpXpXpX",
"pXpXpXpXpXpXpXpXpXpXpXpXpXpXpXpXtXuXpX;XiXx 8 l.n.B.z.c.c.h.'.pXpXpXpXpXpXpXpXpXpXpXpXpXpXpXpXpXpXpX",
"pXpXpXpXpXpXpXpXpXpXpXpXpXpXpXpXtXpXuX:XuX4 6 S.p.M.p.z.c.h. XtXpXpXpXpXpXpXpXpXpXpXpXpXpXpXpXpXpXpX",
"pXpXpXpXpXpXpXpXpXpXpXpXpXpXpXpXiX4X6XyXuXg m e.e.y.s.t.s.0.*XpXpXpXpXpXpXpXpXpXpXpXpXpXpXpXpXpXpXpX",
"pXpXpXpXpXpXpXpXpXpXpXpXpXpXpXpXiXtXtXiXuX&.a v.e.t.a.8.8.3.*XiXpXpXpXpXpXpXpXpXpXpXpXpXpXpXpXpXpXpX",
"pXpXpXpXpXpXpXpXpXpXpXpXpXpXpXpXiXpXuXiXtX*.7 9.3.r.3.<.w.2.%XtXpXpXpXpXpXpXpXpXpXpXpXpXpXpXpXpXpXpX",
"pXpXpXpXpXpXpXpXpXpXpXpXpXpXpXpXtXpXiXqXtXb : <. .5.,.>.,.X. XpXpXiXpXpXpXpXpXpXpXpXpXpXpXpXpXpXpXpX",
"pXpXpXpXpXpXpXpXpXpXpXpXpXpXpXpXtXpXpXqXtX2 : :.' :. . . .}  XtXuXpXpXpXpXpXpXpXpXpXpXpXpXpXpXpXpXpX",
"pXpXpXpXpXpXpXpXpXpXpXpXpXpXpXpXpXeXpXqXeX1 7 >.' ;.~ _ _ S |.pXpXpXpXpXpXpXpXpXpXpXpXpXpXpXpXpXpXpX",
"pXpXpXpXpXpXpXpXpXpXpXpXpXpXpXpXuX6XeXiXeXh p Q I ) W ~ ~ D |.pXpXpXiXpXpXpXpXpXpXpXpXpXpXpXpXpXpXpX",
"pXpXpXpXpXpXpXpXpXpXpXpXpXpXpXpXpX4X2XiXuX;.~ R I R K E K B [.tXpXpXpXpXpXpXpXpXpXpXpXpXpXpXpXpXpXpX",
"pXpXpXpXpXpXpXpXpXpXpXpXpXpXpXpX4XeXiXiXtXQ.A.K K s ) B H n Q.qXpXpXpXpXpXpXpXpXpXpXpXpXpXpXpXpXpXpX",
"pXpXpXpXpXpXpXpXpXpXpXpXpXpXpXpXtXrXiX0X6XR.s.i G p B F U s Q.pXpXpXpXpXpXpXpXpXpXpXpXpXpXpXpXpXpXpX",
"pXpXpXpXpXpXpXpXpXpXpXpXpXpXpXpXpXtXiXiX4XD.$.i t L F t k s }.uXpXpXpXpXpXpXpXpXpXpXpXpXpXpXpXpXpXpX",
"pXpXpXpXpXpXpXpXpXpXpXpXpXpXpXpXuX3XtXyX6XG.$.Q M m n K y 0 U.4XpXpXpXpXpXpXpXpXpXpXpXpXpXpXpXpXpXpX",
"pXpXpXpXpXpXpXpXpXpXpXpXpXpXpXpXpX6X6XpXiXE.w - ; O O + + , >XpXpXpXpXpXpXpXpXpXpXpXpXpXpXpXpXpXpXpX",
"pXpXpXpXpXpXpXpXpXpXpXpXpXpXpXpXuX3XiXuXaXL.2 @ * & & $ * J.tXiXpXpXpXpXpXpXpXpXpXpXpXpXpXpXpXpXpXpX",
"pXpXpXpXpXpXpXpXpXpXpXpXpXpXpXpXpXpXpXyXpXtX,XpXrXwXpXpXiXiXiXpXpXpXpXpXpXpXpXpXpXpXpXpXpXpXpXpXpXpX",
"pXpXpXpXpXpXpXpXpXpXpXpXpXpXpXpXpXpXpXrXtXpXaXiXrXuXpXaXpXpXsXpXpXpXpXpXpXpXpXpXpXpXpXpXpXpXpXpXpXpX",
"pXpXpXpXpXpXpXpXpXpXpXpXpXpXpXpXpXpXpXpXpXpXpXpXpXpXpXpXpXpXpXpXpXpXpXpXpXpXpXpXpXpXpXpXpXpXpXpXpXpX",
"pXpXpXpXpXpXpXpXpXpXpXpXpXpXpXpXpXpXpXpXpXpXpXpXpXpXpXpXpXpXpXpXpXpXpXpXpXpXpXpXpXpXpXpXpXpXpXpXpXpX"
};
