/* XPM */
static char *_867668f6f684d4cec84a6d68ce82f93ButNM4hCl6c4jYpi[] = {
/* columns rows colors chars-per-pixel */
"50 50 242 2 ",
"   c #0C0000",
".  c #140100",
"X  c #1B0300",
"o  c #1B0C00",
"O  c #211300",
"+  c #2C1500",
"@  c #361A00",
"#  c #200800",
"$  c #282009",
"%  c #542E00",
"&  c #593707",
"*  c #53350F",
"=  c #633A07",
"-  c #653D12",
";  c #48342B",
":  c #433739",
">  c #684607",
",  c #72560E",
"<  c #684617",
"1  c #795618",
"2  c #725014",
"3  c #5D5429",
"4  c #68512E",
"5  c #786335",
"6  c #5E5544",
"7  c #765D46",
"8  c #797045",
"9  c #855B18",
"0  c #885409",
"q  c #9C6D1B",
"w  c #99731C",
"e  c #96690C",
"r  c #A8750C",
"t  c #B57E02",
"y  c #B57E0A",
"u  c #B87A07",
"i  c #A6781B",
"p  c #B47C15",
"a  c #B3781A",
"s  c #A36D15",
"d  c #865C20",
"f  c #916E2F",
"g  c #A77A29",
"h  c #B37C35",
"j  c #AC7524",
"k  c #C57D09",
"l  c #8B7E55",
"z  c #8F754C",
"x  c #987D6A",
"c  c #B58205",
"v  c #B5820C",
"b  c #BB8407",
"n  c #B38512",
"m  c #B98519",
"M  c #BC8B1D",
"N  c #B88515",
"B  c #BD941E",
"V  c #AF8216",
"C  c #8D843F",
"Z  c #A98229",
"A  c #BC8B24",
"S  c #B88828",
"D  c #BD9425",
"F  c #AC8C3C",
"G  c #A88539",
"H  c #B98C37",
"J  c #BA9B3B",
"K  c #BB9538",
"L  c #C58A00",
"P  c #C4870A",
"I  c #C69109",
"U  c #C48D15",
"Y  c #C3841C",
"T  c #C28C1B",
"R  c #C68715",
"E  c #CC931D",
"W  c #C4961E",
"Q  c #D38B16",
"!  c #C48523",
"~  c #C68B23",
"^  c #C78B27",
"/  c #C49225",
"(  c #C89929",
")  c #D29729",
"_  c #C48E35",
"`  c #C49334",
"'  c #C79834",
"]  c #CAA439",
"[  c #D9A63A",
"{  c #CFAE37",
"}  c #89845A",
"|  c #9A8759",
" . c #928046",
".. c #A78847",
"X. c #B88A43",
"o. c #BA934C",
"O. c #BC9E4C",
"+. c #B69647",
"@. c #B8995A",
"#. c #AB9853",
"$. c #BEA44E",
"%. c #9F8A65",
"&. c #938A72",
"*. c #A18D62",
"=. c #A69765",
"-. c #A49D7A",
";. c #B89E6B",
":. c #BCA563",
">. c #BCB07E",
",. c #C59C46",
"<. c #C49C56",
"1. c #CDAC43",
"2. c #C8A646",
"3. c #D7A847",
"4. c #CCB84B",
"5. c #D3B34D",
"6. c #D8B549",
"7. c #CEAD58",
"8. c #D7AD51",
"9. c #CDB756",
"0. c #D8B559",
"q. c #E2B858",
"w. c #E1AF49",
"e. c #C39C65",
"r. c #C7A767",
"t. c #CCB564",
"y. c #D5BE64",
"u. c #CAB877",
"i. c #D9B97A",
"p. c #D6AF6C",
"a. c #E4BD6B",
"s. c #DBC45A",
"d. c #E5C35F",
"f. c #DAC667",
"g. c #CBC178",
"h. c #D8C878",
"j. c #DFD375",
"k. c #E4CC69",
"l. c #E9D26D",
"z. c #E7D66D",
"x. c #E6C976",
"c. c #E5D475",
"v. c #EAD373",
"b. c #E5D67F",
"n. c #EBDB7B",
"m. c #F4D97E",
"M. c #EEE27A",
"N. c #F6E477",
"B. c #9B9081",
"V. c #A59C89",
"C. c #A38F84",
"Z. c #B4A89D",
"A. c #B9AF8F",
"S. c #CABB87",
"D. c #D9B787",
"F. c #D1BD97",
"G. c #C5BEA2",
"H. c #D7C889",
"J. c #D9C697",
"K. c #DDD29E",
"L. c #DFD28E",
"P. c #E2D48C",
"I. c #ECDB8C",
"U. c #E8DA84",
"Y. c #F3DC87",
"T. c #E4C39B",
"R. c #ECDC94",
"E. c #E7D799",
"W. c #F4D59F",
"Q. c #EFC990",
"!. c #F6E588",
"~. c #F2E395",
"^. c #F2E49C",
"/. c #FBEA97",
"(. c #F2E698",
"). c #DACCA4",
"_. c #D1CBAE",
"`. c #E3C5AF",
"'. c #EADBA7",
"]. c #F6DCA9",
"[. c #E5DAB6",
"{. c #F5D9B6",
"}. c #EBE3A8",
"|. c #F9E8B6",
" X c #FAEFB0",
".X c #D4D2C4",
"XX c #DCD9D9",
"oX c #DECED9",
"OX c #E5DDC6",
"+X c #F5DCCC",
"@X c #E2D8D9",
"#X c #FADFD4",
"$X c #DEE1CF",
"%X c #E8E4C8",
"&X c #FFEDC3",
"*X c #FEEDCC",
"=X c #F1E9CA",
"-X c #FEF5CA",
";X c #FFF7C8",
":X c #E9E2DA",
">X c #FFEFDB",
",X c #FDE8D4",
"<X c #FDF4D3",
"1X c #FFFBD4",
"2X c #FEF4DC",
"3X c #FFFDDC",
"4X c #F6F9DA",
"5X c #DBD5E1",
"6X c #E3D9E1",
"7X c #EFE5E8",
"8X c #F6EAE6",
"9X c #FFFCE4",
"0X c #F5F2ED",
"qX c #FDF5EC",
"wX c #FFFDEC",
"eX c #F9F9E6",
"rX c #E7E8F5",
"tX c #F6EEF7",
"yX c #EDF4FC",
"uX c #ECF9F8",
"iX c #FEF6F3",
"pX c #F4FDF6",
"aX c #FEFEF4",
"sX c #F4F4FC",
"dX c #FDF6FD",
"fX c #F5FEFE",
"gX c #F9FFFF",
"hX c #F8FFFF",
"jX c #FBFFFF",
"kX c #FAFEFE",
"lX c #FFFFFD",
"zX c #FFFDFF",
"xX c #FFFCFF",
"cX c #FCFFFF",
"vX c #FDFEFF",
"bX c #FFFEFF",
"nX c white",
"mX c #FEFFFF",
"MX c #FEFEFD",
"NX c #FEFEFE",
"BX c #F3F2F2",
"VX c #ECF4E7",
/* pixels */
"bXbXxXbXxXbXbXlXaXaXaXaXbXbXxXbXqXaXaXbXdXxXxXsXuXfXfXfXfXfXfXfXfXhXfXhXhXkXkXkXwXwXwXwXaXkXkXbXbXbX",
"bXbXbXxXbXbXbXlXaXaXaXaXbXbXxXbXlXaXMXMXdXdXxXxXkXfXpXfXpXpXkXhXfXfXhXhXfXhXhXbXaXwXwXwXaXkXlXkXbXbX",
"bXxXbXbXbXbXbXlXaXaXaXaXbXbXbXbXkXdXxXxXxXdXdXdX0XeXwXwXwXaXaXMXqXaXlXxXkXkXkXkXaXaXaXaXkXbXbXbXbXbX",
"xXbXxXbXbXbXlXlXlXlXlXlXlXbXbXbXbXxXdXiXxXiXiXqX9X3X3X3X3X2X2X2X9X9XqXMXbXbXbXdXkXkXlXpXbXbXbXxXbXbX",
"MXbXbXbXbXbXbXkXbXkXlXlXlXbXbXbXBXkXlXaX>X,X{.T.r.:.r.r.D.Q.{.-X<X3X9XwXiXdXbXkXkXkXkXbXbXbXdXxXbXbX",
"MXlXbXbXbXkXbXkXkXkXkXbXlXlXlXaXeXwX9X{.D.e.X.g g g g q q q h h i.W.-X9XwXaXbXbXkXhXkXkXbXbXxXxXbXbX",
"MXMXlXlXbXkXkXkXkXkXbXbXaXaXaXwX1X|.u...w e r n p V m m m p a a j o.i.|.3XwXlXkXhXhXhXkXbXxXxXxXbXbX",
"MXMXlXlXbXkXhXkXkXkXkXbXaXwXwX3X^.O.w w / M v b c c b v u u R Y m j g e.'.3XwXpXkXhXkXkXbXbXxXxXbXbX",
"xXlXlXaXlXlXkXhXhXkXbXlXwX9X3XE.F j m T I b c P N N v n n m E y E p H Z #.'.9XwXkXkXkXkXbXlXaXlXlXbX",
"xXbXlXlXpXkXkXkXkXbXrXaXwX3XS.#.' ` M u b E ( M ( ] K ,.` A ^ U E N / S F u.}.9XwXkXbXkXbXlXlXlXlXbX",
"bXbXaXlXaXkXkXkXbXbXMXaXeX[.z G S A Y ^ ^ ' H H , > & > 9 h _ ^ E I ( ( H +.u.3XwXaXbXbXlXaXaXaXlXbX",
"bXbXlXaXpXkXhXkXsXdXxXqX<X:.F ,._ [ w.' ] X.2 X @ + O . @ d X.3.) E ( ' J F :.4X9XaXbXbXbXlXaXaXlXbX",
"bXbXaXkXaXpXkXkXbXdXMX8XT...7.2.3.S _ 8.F 1 %.2X:X7XoXC.7 2 9 _ ) [ [ ( 1.O.@.{.9XaXbXbXkXkXlXpXlXlX",
"bXkXkXpXaXpXkXkXxXxXdX>Xf G 8.] ' w.8.,.:.'.3XkXbXMXMXiX`.X.0 _ [ [ [ ' 5.7.:.J.9XaXbXbXkXkXhXfXlXbX",
"kXkXkXaXaXpXkXbXdXdXiX`.% <.8.[ { 5.5.$.u. XpXfXhXrXdXMX3XQ.s a w.w.8.] 8.0.7.D.9XiXxXxXkXhXfXhXkXbX",
"kXbXbXkXpXaXlXbXbXtXiXx % T.x.0.f.s.t.u.}.3XpXuXfXfXxXiX9X|.H s q.w.q.5.0.0.r.J.9XwXxXxXbXhXhXhXkXbX",
"kXkXkXkXaXlXaXlXlXqXaX7 4 %.*.*.*.*.l =.%X9XpXuXyXkXsXxXwX2Xi.9 0.a.d.5.k.9.g.H.3XwXlXbXbXbXkXbXbXbX",
"bXbXbXbXbXbXlXlXaXpXwX6 o       .   $ B.eXeXuXkXkXlXdXbXqX9X| < x.q.k.s.f.f.g.H.3XwXlXbXbXbXbXlXbXbX",
"bXbXbXbXbXbXlXaXeXqXaXZ.B.&.&.C.V.&.G.eXaXaXfXhXkXsXxXbX2X3X5 d Y.0.l.l.f.c.H.K.9XwXlXbXbXbXlXlXbXbX",
"kXbXbXbXbXbXbXaXlXaXiXqXkXkXiXaXlXwXaXpXVXpXhXyXfXdXxXiX2X&X .t.m.l.v.v.h.I.u.[.9XaXxXbXbXbXlXlXlXbX",
"bXbXkXbXbXbXlXlXlXMXiXaXiX8XaXqXMX0XlXlXpXkXkXhXsXlXlXqX3X}.u./.n.N.v.v.I.E.>.=XwXlXxXbXbXbXbXlXlXbX",
"bXbXbXbXbXbXlXlXiXMXdXxXMXiXMXMXlXMXbXbXhXyXyXyXbXlXqX2X1XW.I.Y.l.!.v.n.~.J.S.9XaXbXxXxXbXbXaXlXlXbX",
"bXkXbXbXbXbXbXbXxXxXbXMXxXxXdXiXsXkXkXyXhXhXkXbXbXaX2X<X;XR.Y.n.n.!.b.~.E.>.OXwXxXxXxXxXbXbXlXlXlXbX",
"bXbXbXbXbXbXbXbXdXMXlXdXsXxXxXbXdXkXhXfXkXkXyXbXBXwX2X-XE.R.U.Y.!.U.U.}.J.-.9XlXxXxXxXxXbXbXlXaXlXbX",
"bXlXlXlXbXbXbXbXbXbXbXbXbXbXbXbXkXhXkXfXkXbXbXpXwX3X;X XL.I./.b.U.(.R.K.-.=XiXBXxXbXbXbXbXbXlXlXlXbX",
"lXlXlXlXbXbXbXbXbXbXbXbXxXbXbXbXfXkXkXlXdXaXaXwX<X;X}.L.^.R.U./.(.L. X8 =XpX0XxXbXbXbXbXbXlXlXlXbXbX",
"lXlXbXbXbXbXbXbXbXbXbXbXbXbXbXkXsXkXbXlXlXaXeX1X}.}.^.U.U.~.~.P.^.|.l %XwXBXbXxXbXbXbXbXbXbXbXbXbXbX",
"lXlXbXbXbXbXbXbXbXbXbXbXbXbXbXbXlXkXpXaXwX9X-X}.E.U.b.~./.P.L. XK.} _.wX0XbXtXbXkXbXbXlXbXbXbXbXbXbX",
"bXbXbXbXbXbXlXlXlXlXbXbXbXbXbXbXlXaXaX9X4X-X}.L.U.j.M.M.h.^. XS.%._.4X7XxXyXbXsXbXkXaXlXlXbXbXbXbXbX",
"bXbXbXbXbXbXlXlXlXlXlXlXlXlXlXaXeXaXwX2X[.K.L.U.z.j.M.j.h.E.F.l _.aXBXxXsXbXdXkXkXlXaXaXlXbXbXbXbXbX",
"bXbXbXbXbXbXlXlXlXlXaXkXaXlXkXaXwXwX9X%XK.H.j.j.s.M.s.s. X#.5 [.wXiXbXxXdXxXdXkXkXpXaXaXaXbXbXbXbXbX",
"lXlXlXaXlXlXlXlXbXbXbXbXlXaXlXaXeX2X|.T.H.L.j.z.z.4.M.U.C | =XwXqXxXxXdXdXxXbXsXbXaXaXaXlXbXbXbXbXbX",
"aXlXaXaXaXlXlXbXbXtXxXxXsXkXaX9X1X].Q.i.a.x.h.f.f.h.g.l } 4XaXeXkXbXxXdXdXdXdXxXbXkXaXpXlXbXbXbXbXbX",
"aXaXaXaXaXaXlXbXdXbXxXxXiXlXaX3XW.x.0.a.q.9.9.x.g.S.3 -.wXVXpXuXkXbXxXxXdXdXxXxXbXlXpXaXlXbXbXbXbXbX",
"lXlXaXlXlXbXbXkXdXbXbXMXaXeX<X{.f.1.6.4.6.4.4.y.:.4 _.wX0XbXkXhXkXaXlXxXdXMXMXlXaXpXaXpXaXlXMXMXbXbX",
"lXbXlXlXkXkXhXhXkXkXBXqXwX<XJ.u.1.4.{ { 6.s.4.G 1 |.,XaXdXrXxXbXbXaXaXaXaXaXiXlXlXlXbXbXbXbXiXiXbXbX",
"bXbXbXkXhXfXfXhXkXbXqXwX3XW.@.<.J 1.1.] 1.5.O...-X,XqXdXtXdXiXdXiXaXwXqX9XqXwXiXxXxXxXxXxXdXdXxXbXbX",
"bXbXkXhXfXfXfXhXsXlXwX3X].t.,.2.] ] ] { ] K X.r.-X'.{.#X,X#X+X=X,X*X&X&X&X|.-X<XiXdXdXxXxXxXdXxXbXbX",
"bXbXbXkXhXfXfXhXpXaX9X|.p.` ^ ) ) W W { ( A D 8.g <.+.o.<.F +.O.#.+.+.K J J #.=.2XqXbXbXbXlXwXwXlXbX",
"xXbXbXkXhXhXfXhXaXwX<XQ.X.^ ) R E T U W W / / ~ ( ^ ` A N / W W A K D B W D J +.;XqXiXbXbXlXwXaXaXbX",
"MXMXlXlXkXlXkXlXaX9X2Xf j ^ k Q ^ ! ! ^ ^ ^ ! ! ! ! Y T E I L P ! ! T R U / S @.*XwXxXxXdXkXbXkXlXbX",
"iXaXaXlXlXlXaXlXwX2XT.d h ) k Q ! ! k ^ ^ a Y m ! Y Y R P L L L ^ k Q P R n j o.*XqXxXbXhXkXkXlXbXbX",
"aXiXaXaXaXaXaXaXaXwXz * q j a k y y y t k c c y v p p y c t c b u u L t P U a +.|.3XwXlXpXlXaXpXlXbX",
"lXlXaXaXaXlXlXaX:XwX4 < @.<._ _ A A M B M / D D D S S a S M m m Y ~ ~ r p S j z ;X3XwXaXpXpXkXaXlXbX",
"lXlXaXaXaXlXlXlXbXiX; O - * % = > > > > , , , , < - & * - - - = % > 9 1 2 < < z 2XwXaXkXbXbXkXbXbXbX",
"lXbXbXbXlXbXbXbXdX7X: . X . o + X X X # o O O O o .     X X X . + o X X X . : G.wXaXbXkXbXbXbXbXbXbX",
"kXhXkXkXbXkXkXbXdXbX5XXXXX:XOX@X@X@XXX@XXX%X$X$X$XXXXXXX6X6X@X@X.X_.:XtX7XoX@XxXMXaXpXaXbXbXxXdXbXbX",
"hXkXhXkXkXkXkXbXxXfXbXbXBXbXlXiXxXxXMXkXkXhXkXhXfXkXkXbXbXbXbXbXbXkXdXtXdXxXdXsXbXlXpXaXlXxXxXxXbXbX",
"bXbXbXkXbXbXbXbXbXbXbXbXbXbXbXbXbXbXbXbXkXbXbXbXbXkXbXbXbXbXbXbXbXbXbXbXbXbXbXbXbXbXkXbXlXbXbXbXbXbX",
"bXbXbXbXbXbXbXbXbXbXbXbXbXbXbXbXbXbXbXbXbXbXbXbXbXbXbXbXbXbXbXbXbXbXbXbXbXbXbXbXbXbXbXbXbXbXbXbXbXbX"
};
