/* XPM */
static char *e30ac2749eb8422ec57c4baa1d03e20dACRvv6mCvnRwnnM1[] = {
/* columns rows colors chars-per-pixel */
"50 50 240 2 ",
"   c #090000",
".  c #130100",
"X  c #1B0600",
"o  c #260D00",
"O  c #2D1B00",
"+  c #261400",
"@  c #3C1D00",
"#  c #3F1600",
"$  c #3E1910",
"%  c #332200",
"&  c #392910",
"*  c #2A231B",
"=  c #481C01",
"-  c #462300",
";  c #522F06",
":  c #443205",
">  c #573806",
",  c #4A3314",
"<  c #482C16",
"1  c #663504",
"2  c #5B3E36",
"3  c #785618",
"4  c #6E4F0C",
"5  c #594923",
"6  c #5C4D33",
"7  c #77592C",
"8  c #6D5834",
"9  c #7E7123",
"0  c #6C4E4D",
"q  c #554C45",
"w  c #915B17",
"e  c #98680B",
"r  c #9F6F1D",
"t  c #AD7A0B",
"y  c #B57B01",
"u  c #B77D08",
"i  c #AB781A",
"p  c #B37D12",
"a  c #B77B1A",
"s  c #A06E15",
"d  c #865C26",
"f  c #886C24",
"g  c #976C29",
"h  c #967627",
"j  c #997D39",
"k  c #866C35",
"l  c #A47529",
"z  c #B77B27",
"x  c #A97B34",
"c  c #AE742E",
"v  c #C27F24",
"b  c #887642",
"n  c #9B7D4A",
"m  c #82685C",
"M  c #867356",
"N  c #847A75",
"B  c #B58305",
"V  c #BB850C",
"C  c #BE8C0D",
"Z  c #BB8305",
"A  c #BF910B",
"S  c #AD8318",
"D  c #BB8413",
"F  c #BE8A12",
"G  c #B2831B",
"H  c #BA841B",
"J  c #B38A15",
"K  c #BF971E",
"L  c #9E8039",
"P  c #BB8D2C",
"I  c #B88627",
"U  c #BC922C",
"Y  c #A9873B",
"T  c #BB8B31",
"R  c #B48936",
"E  c #BA963A",
"W  c #BFA534",
"Q  c #C28A0C",
"!  c #C28C14",
"~  c #C48D1C",
"^  c #C8891C",
"/  c #CA941B",
"(  c #C79518",
")  c #D4931B",
"_  c #CBA01E",
"`  c #C28D29",
"'  c #C88B28",
"]  c #C39424",
"[  c #CD9222",
"{  c #C2942C",
"}  c #CC9B2E",
"|  c #C79A28",
" . c #D89727",
".. c #C5983A",
"X. c #D49C34",
"o. c #CD8E35",
"O. c #CDA72B",
"+. c #D8A32E",
"@. c #CBA337",
"#. c #D2A436",
"$. c #D8AA3B",
"%. c #DEB13C",
"&. c #E0AE3B",
"*. c #998346",
"=. c #978454",
"-. c #AA8845",
";. c #B28C4A",
":. c #B98C45",
">. c #BD9C4F",
",. c #B5954B",
"<. c #A88B53",
"1. c #B69457",
"2. c #BBA353",
"3. c #BFA544",
"4. c #9D8767",
"5. c #948D7D",
"6. c #AD9167",
"7. c #B79567",
"8. c #B29C77",
"9. c #B8A469",
"0. c #BAA97A",
"q. c #C38D46",
"w. c #C69949",
"e. c #C89C57",
"r. c #CDA445",
"t. c #C8A549",
"y. c #D3A343",
"u. c #D3AD43",
"i. c #D4A94D",
"p. c #D9B548",
"a. c #C7A756",
"s. c #D3AB5A",
"d. c #CDB459",
"f. c #D8B956",
"g. c #E3B756",
"h. c #E4B649",
"j. c #C69962",
"k. c #C8A968",
"l. c #CBB769",
"z. c #D5B866",
"x. c #C3AD72",
"c. c #CEBA7B",
"v. c #D7B479",
"b. c #D7AB7B",
"n. c #E6BD63",
"m. c #E2BD79",
"M. c #DCC456",
"N. c #E7C557",
"B. c #DAC468",
"V. c #DCC675",
"C. c #CCC172",
"Z. c #E4C965",
"A. c #E5D163",
"S. c #E9D36E",
"D. c #E6CA77",
"F. c #ECDB7C",
"G. c #EAD376",
"H. c #F1DB76",
"J. c #F3CF7B",
"K. c #F5E17E",
"L. c #A09986",
"P. c #B8A886",
"I. c #B6AA9E",
"U. c #BBBBB8",
"Y. c #B8AFB0",
"T. c #948B8C",
"R. c #D6BB88",
"E. c #C8B99A",
"W. c #CCB68B",
"Q. c #E1BB8C",
"!. c #C8BBA4",
"~. c #D7C489",
"^. c #DBC899",
"/. c #DCD18F",
"(. c #E4C98A",
"). c #ECD582",
"_. c #E9D988",
"`. c #F2DD83",
"'. c #F3DD8B",
"]. c #EDC79B",
"[. c #EBDB9B",
"{. c #E9D795",
"}. c #F2DC93",
"|. c #F2DE9B",
" X c #F6D89B",
".X c #F4E388",
"XX c #FBE591",
"oX c #F7E49B",
"OX c #EDE192",
"+X c #DFD4AA",
"@X c #D1CAB7",
"#X c #EADAA4",
"$X c #E6D9A9",
"%X c #F7D7A5",
"&X c #ECDCB7",
"*X c #FADDB6",
"=X c #E0CAA3",
"-X c #F3E1A4",
";X c #FAE6A8",
":X c #F9E7B9",
">X c #FFF4B8",
",X c #EEE4B2",
"<X c gray76",
"1X c #DBC2C6",
"2X c #EADDC6",
"3X c #E0DADA",
"4X c #FDEBC4",
"5X c #FFECCE",
"6X c #F7E4CA",
"7X c #FFF5C5",
"8X c #FFFBCE",
"9X c #FCF2C9",
"0X c #EEE7D4",
"qX c #FFEFD4",
"wX c #F8E9DD",
"eX c #FEF3D4",
"rX c #FFFCD4",
"tX c #FEF5DC",
"yX c #FFFCDC",
"uX c #EFE9CF",
"iX c #EBEAEA",
"pX c #F8EBEC",
"aX c #FEF5E4",
"sX c #FFFDE4",
"dX c #FEF4EB",
"fX c #FFFDEC",
"gX c #F4F6EB",
"hX c #ECEEF8",
"jX c #F6EDF7",
"kX c #EDF3F6",
"lX c #EDFDFC",
"zX c #EDFCF5",
"xX c #F4F5F5",
"cX c #FEF5F4",
"vX c #F5FDF2",
"bX c #FEFEF4",
"nX c #F5F4FC",
"mX c #FCF5FC",
"MX c #F5FEFE",
"NX c #FEFEFE",
/* pixels */
"NXNXNXNXNXNXNXNXbXbXNXbXNXMXMXMXzXlXzXlXlXMXlXlXlXlXMXMXMXMXNXMXlXMXMXMXNXNXNXNXNXNXNXbXNXNXNXNXNXNX",
"NXNXNXNXNXNXNXNXbXbXbXNXMXNXMXMXMXMXvXzXzXvXMXNXMXNXNXNXNXNXNXNXNXMXMXnXMXNXNXxXNXcXNXNXNXNXNXNXNXNX",
"NXNXNXNXNXNXNXNXNXNXNXbXvXNXNXMXhXNXNXNXbXaXsXfXaXdXcXbXNXcXbXcXcXNXNXNXNXNXNXNXNXNXNXNXNXNXNXNXNXNX",
"MXNXNXNXNXNXNXNXNXNXbXNXNXNXNXNXNXmXpXaXsXyXrXrXrXrXtXtXtXaXsXfXbXfXcXNXNXNXNXNXNXNXNXNXNXNXNXNXNXNX",
"NXNXNXNXNXNXNXNXNXNXmXcXNXbXNXNXmXcXdXtX:X(.s.>.R -.;.;.7.v.%X4XaXsXfXfXcXNXNXNXNXNXNXNXNXNXNXNXNXNX",
"NXNXNXNXNXNXNXNXNXNXNXNXNXbXcXfXdX6X].j.l e e a i i i i s l R 1.Q.6XtXaXaXNXNXNXMXNXNXMXNXNXNXNXNXNX",
"NXNXNXNXNXNXNXNXNXNXNXNXbXfXaXeX%Xj.l s a ~ V y y y V D D t t s l k.*XrXsXcXNXNXMXMXNXNXNXNXNXNXNXNX",
"NXNXNXNXNXNXNXNXNXNXNXcXbXaXqX:XR a p H ! Z Z Q Q u u u Z Q Q V I l :. XyXsXgXNXMXNXMXNXNXNXcXbXNXNX",
"NXNXNXNXNXNXNXNXNXjXNXcXaXtX=Xj U F B B ! F p H v ^ ' p Q y ( B ~ i T ;.%XyXfXvXMXNXMXNXNXbXbXbXNXNX",
"NXNXNXNXvXNXNXNXnXjXmXdXsX0.<.,.U A A ( ] ` ..e.q.q.q.q.X.H Q ( ~ ~ T R x.9XsXvXMXMXMXNXNXNXbXbXNXNX",
"NXNXNXbXNXMXMXNXNXNXNXcXeXn Y E A A O.U E ;.d = = = = 1 l ..( | / / U R Y #XrXfXbXNXNXMXNXbXbXbXNXNX",
"NXNXNXNXNXMXNXNXNXmXpXfX8.<.e.E %.U ..w.g > < 2 0 0 $ X # x r.} / ( O.@.Y ~.9XsXvXNXNXNXNXNXbXbXNXNX",
"NXNXNXbXNXvXMXNXNXmXcXqX7 >.i.u.J y.s.;.6.=XcXNXmXpX1Xm = 3 w.y.+.( #.r.2.x.:XsXbXbXNXNXNXNXNXNXNXNX",
"NXmXNXNXvXNXMXNXmXcXcXM 3 k.@.@.f.s.e.x.&XsXNXMXmXmXNXwX4.> x y.&.| #.u.d.9.:XsXbXNXNXNXNXMXNXNXNXNX",
"mXNXNXNXNXNXNXMXnXNXcX, n J.g.p.i.m.v.x.:XsXvXMXNXkXcXfXE.- g n.%.%.$.p.a.x.*XsXbXNXNXNXNXNXNXNXNXNX",
"NXNXNXNXNXvXMXNXNXjXwX& 7 f 3 S g k 7 8.sXbXiXMXMXMXvXfX4X@ w n.$.N.u.z.a.W.&XsXbXNXNXNXNXMXNXNXNXNX",
"NXNXNXNXNXNXNXNXNXNXU.*     X   .   q iXmXnXNXNXMXxXNXbX6X: ,.n.f.N.f.B.l.~.+XfXbXNXNXNXNXNXbXNXNXNX",
"NXNXNXNXNXNXNXNXkXNXxXY.U.<X<XU.U.<XiXNXNXNXNXiXvXvXbXbX2Xk k.G.N.N.B.V./.0.yXbXNXNXNXNXNXNXbXbXNXNX",
"NXNXNXNXNXNXNXNXNXNXNXxXNXNXNXNXcXvXNXmXNXcXbXfXfXsXfXsX&XW.V.S.Z.H.V.OX~.P.0XbXNXNXNXNXNXNXNXNXNXNX",
"NXNXNXNXNXNXNXNXNXNXxXxXNXxXxXvXbXgXNXcXNXfXyXyXrXrXrX9X#X}.D.S.A.z.}.#X4.2XNXcXNXNXNXNXNXNXNXNXNXNX",
"NXNXNXNXNXNXNXNXxXNXMXNXNXNXNXNXvXbXNXbXfXyX$X-X-X[.,X$X}.}.G.S..XXX[.=.E.cXNXmXNXNXNXNXNXNXNXNXNXNX",
"NXNXNXNXNXNXNXNXNXNXNXNXcXNXNXNXvXvXdXcXaX:X0.}._.(.oX(.|.).H.H._.G.*.8.dXmXiXNXNXNXNXNXNXNXNXmXNXNX",
"NXNXNXNXNXNXNXNXNXNXmXNXkXNXNXNXNXgXcXfXaXW.n )..X.XoX}.|.`.K.H.F.9 b yXdXNXNXNXNXNXbXNXNXNXNXNXNXNX",
"NXNXNXNXNXNXNXNXNXNXMXNXcXNXNXMXNXvXNXaXtXx.Y ).G.XX'. X}..X.XF..XC.:X&XdXNXjXNXNXbXbXbXNXNXNXNXNXNX",
"NXNXNXNXNXNXNXNXNXNXNXNXNXNXNXNXNXNXNXdXaX7.4 ;XoX}.|.oX|.}.`.H..XOX-X+X2XsXvXbXbXfXfXfXNXNXNXNXNXNX",
"NXNXNXNXNXNXNXNXNXNXNXNXNXNXNXNXnXNXNXmXdXN > (.}.oX-X;X;X;XXX`..X_.OX$X&XuXtXfXfXfXfXbXbXNXNXNXNXNX",
"NXNXNXNXNXNXNXNXNXNXNXNXNXNXNXNXzXNXNXmXpXm . O + % & 5 =.~.XXF..XF.}.OX#X+X&XsXsXfXfXbXbXNXNXNXNXNX",
"NXNXNXNXNXNXNXNXNXNXNXNXNXNXNXNXMXNXmXmXjXI.6 6 6 5 & O : k l.`..XF._.OX_./.$X8XsXbXbXNXNXbXbXNXNXNX",
"NXNXNXNXNXNXNXNXNXNXNXNXNXNXNXNXNXMXNXNXNXmXpXfXfXfX0X!.4.b 2.V..X).F.F.F._.[.$XsXbXNXNXmXNXNXNXNXNX",
"NXNXNXNXNXNXNXNXNXNXNXNXNXNXNXNXzXvXNXNXNXNXNXNXvXbXNXfXrX{.B.l.).'.H.S.S._._.^.yXcXNXNXNXNXvXbXNXNX",
"NXNXNXNXNXNXNXNXNXNXNXNXNXNXNXNXvXvXkXnXnXNXMXhXNXMXkXgXyX>X_.B.).G.S.A.A.S.D.^.tXmXmXNXNXNXvXbXNXNX",
"NXNXNXNXNXNXNXNXNXNXfXfXfXfXfXfXsXfXbXNXNXNXNXNXlXMXMXNXsX8X;XG.V.V.A.A.A.A.V.~.qXcXmXmXNXNXvXbXNXNX",
"NXNXNXNXMXNXNXmXNXaX8X;X;X>X>X:X4XqXqXaXbXbXNXMXMXMXnXNXfXrX7X_.V.f.G.N.M.S.C.C.4XaXmXNXNXNXNXvXNXNX",
"mXNXNXNXMXNXNXNXcX5X Xz.z.B.c.c.Q.R.^.2XsXfXNXMXNXMXnXNXsXsXeX0.s.f.M.M.M.M.B.0.6XaXNXNXmXNXvXvXNXNX",
"NXNXNXNXMXMXNXNXcXeXv.t.i.f.d.z.z.l.~.>XyXfXNXNXNXNXNXNXtXyX:XL a.N.u.f.M.d.C.9.9XfXNXNXNXNXNXvXNXNX",
"NXNXNXMXNXMXNXNXaXeXk.E p.g.i.f.d.2.l.[.rXsXcXNXNXmXNXNXaXrX$Xj y.h.$.u.p.d.l.9.tXfXNXmXNXNXbXvXNXNX",
"NXNXbXNXvXMXMXNXdXrXk...@.$.} #.p.@.E d.-XyXfXmXjXmXNXdXsX7X~.t.y.$.%.@.r.d.9.P.sXcXNXmXNXNXNXcXNXNX",
"bXcXbXNXMXMXMXNXfXrXV.E U +.+.+.O.O.W 3.c.;XtXfXcXcXcXqX9X}.2.r.#. .$.{ E a.9.+XfXNXNXNXNXNXNXNXNXNX",
"bXbXNXvXMXMXNXNXsXtX X:.H [  . .Q _ O.U U >.v.].:X*X*X].m.s.R }  . . .o.t.,.0.eXfXNXNXNXNXNXbXNXNXNX",
"NXbXNXNXMXMXMXNXbXyX8Xe.I o.) ) _ ( ( | | U R R :.-.e.q.I { U [ ^ X.' ..t.*.~.sXbXNXNXNXNXNXNXbXNXNX",
"NXNXNXNXMXMXMXNXbXsXyX X:.z ' ^ v ^ [ ) ! ^ ] ] U ` ` ` ' [ [ [ ' a ` w.j 9.yXsXNXNXMXNXNXNXNXNXNXNX",
"NXNXNXNXNXNXNXNXNXbXfX5Xb.c z o.' ' a a ! Q ! C F ! ~ ] ~ D u p z o.e.3 6.rXeXfXNXNXNXNXNXNXNXNXNXNX",
"NXNXNXNXNXNXNXNXNXbXfXdXqXb.g w c c z ` H t B A B u t t p a ` ..q.1.; =.rXsXfXcXNXNXNXNXNXNXNXNXNXNX",
"bXNXNXNXNXNXNXNXbXNXxXNXdXwXj.w 1 1 w x P G S J J I P T I R l x 3 o 7.yXaXfXpXNXNXNXNXNXNXNXNXNXNXNX",
"NXNXNXNXNXNXNXbXNXMXMXNXcXfXeXR.8 ; # ; 3 f h h L f 3 9 7 4 @ . , &XfXwXdXNXNXNXNXNXNXNXNXNXNXNXNXNX",
"bXNXNXNXmXNXcXbXvXzXMXNXhXmXsXeXeXE.M 5 & % + X . X X .   % M ^.fXbXpXNXNXjXnXNXNXNXNXNXNXNXNXNXNXNX",
"bXcXNXmXNXcXfXfXbXzXMXlXMXNXfXtXsXvXsXwX+XI.L.5.N N T.Y.3XcXNXcXvXkXNXnXNXNXnXmXNXNXNXbXNXNXNXNXNXNX",
"bXNXNXNXNXbXfXfXvXMXlXlXMXMXvXbXvXNXMXbXvXNXNXNXNXNXNXNXNXNXNXMXNXMXNXNXnXnXNXNXNXNXNXbXNXNXNXNXNXNX",
"NXNXNXNXNXNXNXbXNXNXNXNXNXNXNXNXNXNXNXNXNXNXNXNXNXNXNXNXNXNXNXNXNXNXNXNXNXNXNXNXNXNXNXNXNXNXNXNXNXNX",
"NXNXNXNXNXNXNXNXNXNXNXNXNXNXNXNXNXNXNXNXNXNXNXNXNXNXNXNXNXNXNXNXNXNXNXNXNXNXNXNXNXNXNXNXNXNXNXNXNXNX"
};
