/* XPM */
static char *_3483_67739672c6570479a6f9f2f3a492691f53d1d8557a8d8b8ed35473683f899107[] = {
/* columns rows colors chars-per-pixel */
"50 50 242 2 ",
"   c #0B0101",
".  c #160400",
"X  c #1D0800",
"o  c #1E1101",
"O  c #240800",
"+  c #310D00",
"@  c #411A00",
"#  c #663B04",
"$  c #66340B",
"%  c #4A3927",
"&  c #734704",
"*  c #725010",
"=  c #73565B",
"-  c #7E6453",
";  c #8B540A",
":  c #BA5405",
">  c #9E6909",
",  c #A76A06",
"<  c #B06102",
"1  c #BB7502",
"2  c #BD7B02",
"3  c #B67607",
"4  c #A26617",
"5  c #B97817",
"6  c #AB7315",
"7  c #8F7C38",
"8  c #917E3A",
"9  c #8A6C2B",
"0  c #A37F33",
"q  c #C35901",
"w  c #C27C00",
"e  c #C77706",
"r  c #D07A17",
"t  c #AF8300",
"y  c #BA8709",
"u  c #BA8615",
"i  c #BE970B",
"p  c #97823D",
"a  c #BD8526",
"s  c #A78838",
"d  c #B98B36",
"f  c #B49A3D",
"g  c #B8AC24",
"h  c #C08303",
"j  c #C58A0A",
"k  c #C8940D",
"l  c #C38B1D",
"z  c #C68718",
"x  c #D38D15",
"c  c #C6911F",
"v  c #C6941A",
"b  c #D08609",
"n  c #E99200",
"m  c #C58825",
"M  c #C69423",
"N  c #C99324",
"B  c #CA962A",
"V  c #CC9B2C",
"C  c #C69729",
"Z  c #D29626",
"A  c #CC9A33",
"S  c #C69835",
"D  c #D59B34",
"F  c #C0853F",
"G  c #ED9A2B",
"H  c #CAA539",
"J  c #D2A53C",
"K  c #D4A83A",
"L  c #CCB43C",
"P  c #D3B73D",
"I  c #D3A22D",
"U  c #E9B036",
"Y  c #DCC739",
"T  c #EAD03F",
"R  c #9E8845",
"E  c #948250",
"W  c #A18E47",
"Q  c #A9964B",
"!  c #B29452",
"~  c #B3A053",
"^  c #A8996B",
"/  c #B29769",
"(  c #A69B75",
")  c #B19570",
"_  c #B5A77B",
"`  c #B7AF6F",
"'  c #C7A947",
"]  c #D4AA44",
"[  c #D4A54A",
"{  c #D6A947",
"}  c #CEB44B",
"|  c #D6B24C",
" . c #DAB448",
".. c #D0AB54",
"X. c #CDB55A",
"o. c #DBB452",
"O. c #DAB25B",
"+. c #D4BC5D",
"@. c #DBBE5C",
"#. c #D3B455",
"$. c #C0A852",
"%. c #ECBD4B",
"&. c #E1B65E",
"*. c #E5BB59",
"=. c #F4BA56",
"-. c #ECAB50",
";. c #C2A86A",
":. c #D8BA68",
">. c #D3B672",
",. c #CFAD7A",
"<. c #E5B962",
"1. c #E4BC66",
"2. c #EAA379",
"3. c #C68B4F",
"4. c #DCC246",
"5. c #D7C349",
"6. c #DFCA5B",
"7. c #DAC457",
"8. c #E2C84D",
"9. c #E3C658",
"0. c #FFC753",
"q. c #E4D35C",
"w. c #EDD65C",
"e. c #EBD649",
"r. c #DBC36A",
"t. c #DBCC6C",
"y. c #D8C765",
"u. c #D7C976",
"i. c #DFD775",
"p. c #C9CB70",
"a. c #EAC463",
"s. c #E3CB64",
"d. c #EDCC63",
"f. c #E9C56C",
"g. c #E3CB6B",
"h. c #E5C46B",
"j. c #E4D26D",
"k. c #EBD36B",
"l. c #EEDD6F",
"z. c #E7D764",
"x. c #E3C572",
"c. c #E9CA77",
"v. c #F3C878",
"b. c #E3D672",
"n. c #E9D473",
"m. c #EBDA74",
"M. c #E3D47A",
"N. c #EBD17C",
"B. c #E5DD7D",
"V. c #ECDC79",
"C. c #E6DA75",
"Z. c #F3D47A",
"A. c #F6DA7C",
"S. c #F3D46D",
"D. c #EAE57A",
"F. c #F4E374",
"G. c #F2EC6D",
"H. c #B09D95",
"J. c #B3A98F",
"K. c #A69CA3",
"L. c #A6A7A2",
"P. c #A5A0AE",
"I. c #AAABA6",
"U. c #ABA9B9",
"Y. c #B4BCBE",
"T. c #C59E91",
"R. c #DAB886",
"E. c #CFB18E",
"W. c #E3BB88",
"Q. c #FFBF97",
"!. c #E6B89A",
"~. c #B6C1BF",
"^. c #D1C982",
"/. c #D9D286",
"(. c #DBC293",
"). c #D8C596",
"_. c #D8D495",
"`. c #E8C986",
"'. c #F1CC84",
"]. c #E4D38A",
"[. c #EAD685",
"{. c #F4DC83",
"}. c #F3DB8B",
"|. c #F8D883",
" X c #ECC994",
".X c #E6D698",
"XX c #F2D896",
"oX c #ECE284",
"OX c #ECE38B",
"+X c #ECE989",
"@X c #F3E98B",
"#X c #F7E588",
"$X c #E9E695",
"%X c #F9E598",
"&X c #FEF399",
"*X c #DDCAA4",
"=X c #D4C8A5",
"-X c #DFD3AD",
";X c #DECBB6",
":X c #D2CAAE",
">X c #E1D5AD",
",X c #EAD6AB",
"<X c #F7D7A4",
"1X c #ECDAB6",
"2X c #F2CBAD",
"3X c #FAE6A7",
"4X c #EBE5B8",
"5X c #FBE6B8",
"6X c #BBC2C4",
"7X c #C8C8C8",
"8X c #D7D3C8",
"9X c #E9DACE",
"0X c #F9DCC4",
"qX c #E8D4D4",
"wX c #F3E9C9",
"eX c #FEF3C8",
"rX c #EEE1D3",
"tX c #F7E8D6",
"yX c #EEF3DF",
"uX c #FAF8DB",
"iX c #E8DCE6",
"pX c #FDEDE4",
"aX c #FDEDEE",
"sX c #ECFFEE",
"dX c #ECFAE6",
"fX c #FFFBE3",
"gX c #F4F3EB",
"hX c #FDFDED",
"jX c #F8F6E6",
"kX c #EFEFF7",
"lX c #F4EEFF",
"zX c #ECFDF3",
"xX c #ECF8FC",
"cX c #F5F6F2",
"vX c #FDF6F3",
"bX c #F4FBF3",
"nX c #FCFDF5",
"mX c #F5F6FC",
"MX c #FCF5FD",
"NX c #F5FDFD",
"BX c #FFFEFF",
"VX c #EDEEE9",
/* pixels */
"BXBXBXBXBXBXBXBXBXBXBXBXBXBXBXBXBXBXNXBXNXbXcXBXMXnXMXBXBXBXBXhXNXBXBXmXBXBXBXBXBXBXBXBXBXBXBXBXBXBX",
"BXBXBXBXBXBXBXBXBXBXBXBXBXBXBXBXBXBXBXnXBXBXBXNXBXBXbXnXBXMXMXmXbXBXBXBXBXNXNXBXBXBXBXBXBXBXBXBXBXBX",
"BXBXBXBXBXBXBXBXBXBXBXBXBXBXBXBXNXBXBXNXBXBXBXBXxXNXnXhXnXBXBXBXfXnXBXMXBXBXNXBXBXBXBXBXBXBXBXBXBXBX",
"BXBXBXBXBXBXBXBXBXBXBXBXBXBXBXBXBXnXBXBXBXBXBXMXNXdX>X.XXX<X,X,X.XtXBXNXNXvXBXBXBXBXBXBXBXBXBXBXBXBX",
"BXBXBXBXBXBXBXBXBXBXBXBXBXBXBXBXnXcXBXBXBXMXBXBXuXE.9 , 5 6 6 6 s E.bXNXBXnXBXMXBXBXBXBXBXBXBXBXBXBX",
"BXBXBXBXBXBXBXBXBXBXBXBXBXBXBXBXBXbXBXBXMXBXBXnX2.F 3 w e 1 1 y > R.bXBXBXnXnXNXBXBXBXBXBXBXBXBXBXBX",
"BXBXBXBXBXBXBXBXBXBXBXBXBXBXBXBXBXbXBXBXcXBXhX;X; < y j y 1 2 j 5 `.nXNXNXhXnXBXBXBXBXBXBXBXBXBXBXBX",
"BXBXBXBXBXBXBXBXBXBXBXBXBXBXBXBXnXNXBXBXvXnXuX( e j y 3 y C m 5 1 c.nXNXBXnXBXNXBXBXBXBXBXBXBXBXBXBX",
"BXBXBXBXBXBXBXBXBXBXBXBXBXBXBXBXNXBXMXBXzXBXwXy M u u u l u y l y R.BXNXBXMXBXnXBXBXBXBXBXBXBXBXBXBX",
"BXBXBXBXBXBXBXBXBXBXBXBXBXBXBXBXbXBXcXhXBXeX| a l N M c c c c c y R.BXBXnXBXBXnXBXBXBXBXBXBXBXBXBXBX",
"BXBXBXBXBXBXBXBXBXBXBXBXBXBXBXBXBXBXsXBXvXf.i S c Z V Z N B B N v R.BXNXBXBXBXNXBXBXBXBXBXBXBXBXBXBX",
"BXBXBXBXBXBXBXBXBXBXBXBXBXBXBXBXMXdXNXBX'.I D V V V V V V V V D M (.BXmXnXBXMXNXBXBXBXBXBXBXBXBXBXBX",
"BXBXBXBXBXBXBXBXBXBXBXBXBXBXBXBXBXBXNXwXJ D -.H  .A S J ] D J { I (.BXNXnXBXBXBXBXBXBXBXBXBXBXBXBXBX",
"BXBXBXBXBXBXBXBXBXBXBXBXBXBXBXBXhXBXrX$.[ -.[ [ | ' ' } | ] ] | K ).BXNXnXMXBXNXBXBXBXBXBXBXBXBXBXBX",
"BXBXBXBXBXBXBXBXBXBXBXBXBXBXBXBXnXvXc.H o.@.| O.~ #.+.#...| | | ] *XBXbXnXBXBXMXBXBXBXBXBXBXBXBXBXBX",
"BXBXBXBXBXBXBXBXBXBXBXBXBXBXBXBXNX].%.=.L 5.g.*.~ u.M.:.#.:.9.o.| *XBXmXnXBXBXBXBXBXBXBXBXBXBXBXBXBX",
"BXBXBXBXBXBXBXBXnXBXBXnXhXhXBXMXpX! w.P h. Xx.' =XG.Z.:.7.y.7.r.7.=XmXBXNXBXBXnXBXBXBXBXBXBXBXBXBXBX",
"BXBXBXBXBXBXBXBXBXnXMXBXvXBXMXMX/ >.+.z.z.t.>.;.5XG.c.f.9.t.g.c.y.=XBXBXBXMXBXnXBXBXBXBXBXBXBXBXBXBX",
"BXBXBXBXBXBXBXBXBXMXnXbXBXlXnX=XQ '.`.n.q.q./ qXeXe.a.|.z.t.m.`.y.*XBXBXnXMXBXnXBXBXBXBXBXBXBXBXBXBX",
"BXBXBXBXBXBXBXBXMXnXjXzXBXMX0X;.S.N.}.c.G.y.J.MX3XY 9.|.l.C.j.[.j.-XBXNXBXBXBXnXBXBXBXBXBXBXBXBXBXBX",
"BXBXBXBXBXBXBXBXBXBXhXNXlXBX) f.F.Z.t.@Xu._ jXMX<Xe.S.Z.F.{.t.}.n.-XBXBXBXMXBXnXBXBXBXBXBXBXBXBXBXBX",
"BXBXBXBXBXBXBXBXBXBXbXBXBXH.;.#X{.k.D.+X( 8XBXNX3Xe.A.[.oX$Xb.%Xm.>XBXNXBXBXBXnXBXBXBXBXBXBXBXBXBXBX",
"BXBXBXBXBXBXBXBXNXBXMXaXtXE OX#X#XC.&X,.J.BXmXNX5X8.{.XXB.@XB.%Xm.-XBXBXnXBXBXnXBXBXBXBXBXBXBXBXBXBX",
"BXBXBXBXBXBXBXBXNXcXMXvX_ %X[.@XD.@X.X( hXBXBXNX5Xg B.3Xi.$X#X}.m.>XMXNXMXBXBXnXBXBXBXBXBXBXBXBXBXBX",
"BXBXBXnXBXnXnXBXsXBXaX2X@XD.B.XXl.3X^ 8XBXNXcXBX2Xq Z.$XoXD.#X+XA.;XmXBXbXBXBXBXBXBXBXBXBXBXBXBXBXBX",
"BXBXBXBXBXBXnXBXzXnXtX<X+XD.B.}.&X~ :XjXBXNXvXBX!.: k.$XoXD.#X+XF.>XbXnXhXBXBXhXBXBXBXBXBXBXBXBXBXBX",
"BXBXBXBXBXNXMXBXNXuX%XoXoXoX#X#X/.^ vXBXmXNXNXNXR.q a.$X#XD.}.OXb.>XvXBXvXBXMXcXBXBXBXBXBXBXBXBXBXBX",
"NXnXBXBXBXNXBXBXnX4Xi.l.D.@X}.V.H.qXBXMXBXMXBXBXW.r 0..XA.V.[./.`.1XBXBXBXBXBXBXBXBXBXBXBXBXBXBXBXBX",
"BXvXBXBXNXmXBXBX5X Xs.z.V.N.N.y.^ fX9XrXtX4XwXwX'.G q.+XZ.m.'.B.M..XwXtXrXtXyXBXBXBXBXBXBXBXBXBXBXBX",
"BXNXBXBXxXBXnXpX3.:.k.l.n.x.g.b.y.i.p.[.t.C.y.t.].%.q./.Z.g.Z.M.z.s.M.u.u.t._.hXBXBXBXBXBXBXBXBXBXBX",
"nXvXBXNXMXnXhX;X: { N.j.g.a.g.M.F.7.g.k.9.w.9.g.^.0.6./.v.y.v.g.V.q.q.s.a.7./.BXBXBXBXBXBXBXBXBXBXBX",
"BXNXBXBXvXnXpXE.e =.'.>.a.d.7.u.:.:.c.1.f.:.c.`.p.0.7.u.f.@.f.6.W.@.9.f.v.7.E.BXBXBXBXBXBXBXBXBXBXBX",
"BXnXnXBXxXBXfXW.n U r.>.*.%.*.X.&.&.<.<.<.<.1.&.L  .o.a.7.} 6.1.v.H 8.f.-. .(.BXBXBXBXBXBXBXBXBXBXBX",
"NXnXnXBXmXBXfX Xn U g.r.9.%.9.y.q.8.4.4.4.4. .5.F.h.O.o.| 7.*... .8.} #.9.8.^.MXBXBXBXBXBXBXBXBXBXBX",
"BXnXnXBXNXBXfX2XZ m p 8 s s s W W R p 7 7 7 8 R - 9 ..o.H } o.[ L ~ Q Q W 9 _ NXBXBXBXBXBXBXBXBXBXBX",
"BXBXnXBXNXMXhX1X$ + .   . O X X                 O + ! *.C J ] { o.*       % 7XNXBXBXBXBXBXBXBXBXBXBX",
"BXBXvXBXMXBXnXtXH.K.P.U.U.K.P.U.L.L.L.L.L.I.I.I.= + ! D Z K S A J ) K.U.U.iXBXxXBXBXBXBXBXBXBXBXBXBX",
"BXBXMXBXNXNXBXvXBXbXbXNXBXNXNXBXnXnXBXnXnXnXnXBXT.$ m Z V B V B y %XBXmXbXcXvXdXBXBXBXBXBXBXBXBXBXBX",
"BXBXMXBXBXnXBXBXBXBXjXjXbXNXNXvXMXMXMXMXBXMXMXmXT.; z x Z m C M k  XVXzXhXBXgXhXBXBXBXBXBXBXBXBXBXBX",
"MXBXMXMXnXsXBXMXMXBXMXBXBXBXBXBXBXBXBXBXBXBXBXBXW.4 x b Z 5 C y 3 E.BXNXzXMXMXMXBXBXBXBXBXBXBXBXBXBX",
"BXBXBXBXBXBXBXBXBXBXBXBXBXBXBXBXBXBXBXBXBXBXBXBXQ.4 h y b m y k 5 W.BXNXmXnXnXNXBXBXBXBXBXBXBXBXBXBX",
"BXBXBXBXBXBXBXBXBXBXBXBXBXBXBXBXBXBXBXBXBXBXBXBXQ.6 b w 1 z 3 3 6 >.dXNXBXnXMXNXBXBXBXBXBXBXBXBXBXBX",
"BXBXBXBXBXBXBXBXBXBXBXBXBXBXBXBXBXBXBXBXBXBXBXBX2.; z z r a m l 5 '.uXzXNXnXBXBXBXBXBXBXBXBXBXBXBXBX",
"BXBXBXBXBXBXBXBXBXBXBXBXBXBXBXBXBXBXBXBXBXBXBXBX!.$ & ; * # * ; & E.hXmXBXBXBXmXBXBXBXBXBXBXBXBXBXBX",
"BXBXBXBXBXBXBXBXBXBXBXBXBXBXBXBXBXBXBXBXBXBXBXBXH.O             - 8XBXBXBXBXBXvXBXBXBXBXBXBXBXBXBXBX",
"BXBXBXBXBXBXBXBXBXBXBXBXBXBXBXBXBXBXBXBXBXBXBXBXmXY.6XY.~.~.7X6XmXMXBXMXmXNXbXnXBXBXBXBXBXBXBXBXBXBX",
"BXBXBXBXBXBXBXBXBXBXBXBXBXBXBXBXBXBXBXBXBXBXBXBXgXmXNXNXNXmXMXBXBXmXNXBXBXBXNXMXBXBXBXBXBXBXBXBXBXBX",
"BXBXBXBXBXBXBXBXBXBXBXBXBXBXBXBXBXBXBXBXBXBXBXBXhXhXMXcXBXnXvXBXNXnXhXnXbXBXBXBXBXBXBXBXBXBXBXBXBXBX",
"BXBXBXBXBXBXBXBXBXBXBXBXBXBXBXBXBXBXBXBXBXBXBXBXBXBXBXBXBXBXBXBXBXBXBXBXBXBXBXBXBXBXBXBXBXBXBXBXBXBX",
"BXBXBXBXBXBXBXBXBXBXBXBXBXBXBXBXBXBXBXBXBXBXBXBXBXBXBXBXBXBXBXBXBXBXBXBXBXBXBXBXBXBXBXBXBXBXBXBXBXBX"
};
