/* XPM */
static char *_8097_edce039ef6c85937210af5c3a75dd53fc88e69d908c71e52e9d5fb10cdb9c96f[] = {
/* columns rows colors chars-per-pixel */
"50 50 250 2 ",
"   c #060000",
".  c #0B0004",
"X  c #0B0C05",
"o  c #130000",
"O  c #150904",
"+  c #141008",
"@  c #241705",
"#  c #331000",
"$  c #3D2E06",
"%  c #2D2914",
"&  c #1D113F",
"*  c #383927",
"=  c #561A01",
"-  c #582906",
";  c #4C3604",
":  c #502E0E",
">  c #7B3800",
",  c #643905",
"<  c #52392A",
"1  c #56410C",
"2  c #694A09",
"3  c #755616",
"4  c #6E510F",
"5  c #78651B",
"6  c #5C4C38",
"7  c #4D4A30",
"8  c #785626",
"9  c #786835",
"0  c #443E40",
"q  c #443C63",
"w  c #6A6654",
"e  c #706979",
"r  c #843701",
"t  c #875406",
"y  c #9C5707",
"u  c #805413",
"i  c #9A6716",
"p  c #966510",
"a  c #B36C03",
"s  c #B36D0A",
"d  c #B96A00",
"f  c #BB7C01",
"g  c #B4710B",
"h  c #B77804",
"j  c #A97819",
"k  c #B97713",
"l  c #A9700C",
"z  c #816925",
"x  c #996822",
"c  c #8D6F2F",
"v  c #A8792A",
"b  c #B97D23",
"n  c #C17C0B",
"m  c #C67C03",
"M  c #C37E1A",
"N  c #C57B19",
"B  c #DB7F10",
"V  c #C27D2E",
"C  c #8F5D42",
"Z  c #9B7C44",
"A  c #937D54",
"S  c #847878",
"D  c #AB715B",
"F  c #B3820B",
"G  c #B98804",
"H  c #BC8917",
"J  c #A88412",
"K  c #9B8634",
"L  c #A5812B",
"P  c #B98526",
"I  c #B88537",
"U  c #BB9735",
"Y  c #BE9E2D",
"T  c #C2830D",
"R  c #CA8609",
"E  c #D88605",
"W  c #D89608",
"Q  c #C5821B",
"!  c #C48B19",
"~  c #C68714",
"^  c #C59413",
"/  c #CA9415",
"(  c #CA9C17",
")  c #CC9C1C",
"_  c #C69517",
"`  c #D59616",
"'  c #C9940F",
"]  c #E8970F",
"[  c #DBA207",
"{  c #CEA016",
"}  c #C38825",
"|  c #D28A29",
" . c #CA9623",
".. c #C6922D",
"X. c #C9962C",
"o. c #CC9B2E",
"O. c #C49927",
"+. c #D6982A",
"@. c #C38D32",
"#. c #CA8331",
"$. c #CD9B32",
"%. c #C79537",
"&. c #D39A35",
"*. c #D08C37",
"=. c #EB803C",
"-. c #C6A628",
";. c #D3A92C",
":. c #D6A62B",
">. c #C7A537",
",. c #D3A133",
"<. c #DBAC3D",
"1. c #D6A736",
"2. c #CCB03D",
"3. c #DAB43A",
"4. c #E7B93A",
"5. c #EDAF2C",
"6. c #EBA915",
"7. c #EBC73F",
"8. c #AE8F4F",
"9. c #B8A87A",
"0. c #9F9178",
"q. c #C79649",
"w. c #D69F46",
"e. c #C79B58",
"r. c #CC8D45",
"t. c #CAA849",
"y. c #D7AB47",
"u. c #D7B448",
"i. c #D7A855",
"p. c #D4BB5A",
"a. c #D9B859",
"s. c #CBB052",
"d. c #E4B949",
"f. c #E5AD52",
"g. c #E6B85B",
"h. c #C79562",
"j. c #D9A866",
"k. c #CBB767",
"l. c #C5AD79",
"z. c #DAAA7B",
"x. c #C9B67C",
"c. c #D5BA77",
"v. c #CEAE68",
"b. c #E3AC71",
"n. c #EEBC74",
"m. c #E1B260",
"M. c #DBC35B",
"N. c #D2C949",
"B. c #E3C14C",
"V. c #E7C458",
"C. c #EDD356",
"Z. c #DCC967",
"A. c #DAC678",
"S. c #DED577",
"D. c #E7CB67",
"F. c #EAD368",
"G. c #E8D76A",
"H. c #F8D56D",
"J. c #EBCC74",
"K. c #E6CC76",
"L. c #E5D274",
"P. c #ECDB73",
"I. c #E6D47C",
"U. c #EBD47B",
"Y. c #ECDC7C",
"T. c #E8D779",
"R. c #F2DC7A",
"E. c #F6D773",
"W. c #F8CE6A",
"Q. c #F5E578",
"!. c #F7E571",
"~. c #918894",
"^. c #898B89",
"/. c #AC988E",
"(. c #BCA99B",
"). c #999AAC",
"_. c #B8B7B5",
"`. c #C9B787",
"'. c #CEB28E",
"]. c #E4BE80",
"[. c #D6BBB0",
"{. c #D6C589",
"}. c #DDDC8B",
"|. c #D7C697",
" X c #CCC68A",
".X c #E6CC87",
"XX c #E3D985",
"oX c #ECDC82",
"OX c #E2D38B",
"+X c #EBDD8B",
"@X c #E9D686",
"#X c #F3DD84",
"$X c #F7D98A",
"%X c #E8D99A",
"&X c #F6DA95",
"*X c #EAC691",
"=X c #EDE38C",
"-X c #E9E387",
";X c #F4E384",
":X c #F4E48B",
">X c #F9EA87",
",X c #F8E798",
"<X c #FDF393",
"1X c #CCC1BA",
"2X c #D8CDAB",
"3X c #F7CCAB",
"4X c #EBDCAC",
"5X c #E5DBA8",
"6X c #F6D8A6",
"7X c #E6DCB8",
"8X c #EED1AC",
"9X c #FDE7A4",
"0X c #EBE8B9",
"qX c #FAF5B2",
"wX c #C7C8C7",
"eX c #CBD4CD",
"rX c #D5D6DA",
"tX c #DADBDB",
"yX c #D9D1CD",
"uX c #FEDAC7",
"iX c #EBD9D0",
"pX c #EEE7CB",
"aX c #FAE9C8",
"sX c #FAECD8",
"dX c #FCF4DC",
"fX c #FFF6D7",
"gX c #E9EBDB",
"hX c #E8E6E5",
"jX c #FEEBE4",
"kX c #F5ECEF",
"lX c #EBF6EB",
"zX c #FEF5E3",
"xX c #FFFCE3",
"cX c #F5F4ED",
"vX c #FDF4EE",
"bX c #F6FCEB",
"nX c #FEFEEC",
"mX c #E5E6F1",
"MX c #F7EAF9",
"NX c #EEF2F3",
"BX c #EEFDFE",
"VX c #EBFDFB",
"CX c #F3F5F4",
"ZX c #FDF5F2",
"AX c #F5FBF5",
"SX c #FDFDF4",
"DX c #F4F6FD",
"FX c #FDF5FD",
"GX c #F5FEFD",
"HX c #FFFFFF",
/* pixels */
"HXHXHXHXHXHXHXHXGXAXHXHXHXFXSXSXHXHXGXHXHXGXHXHXGXHXHXHXGXHXHXGXnXSXGXAXSXSXSXGXHXHXHXHXHXHXHXHXHXHX",
"HXHXHXHXHXHXHXHXHXSXSXHXGXGXDXNXFXHXHXFXHXFXFXHXFXFXFXFXFXFXFXFXDXGXGXHXHXHXHXHXHXHXHXHXHXHXHXHXHXHX",
"HXHXHXHXHXHXHXHXSXSXSXNXGXGXGXGXGXGXGXGXGXGXGXGXGXGXGXGXGXGXGXGXGXGXGXDXHXFXkXZXHXHXHXHXHXHXHXHXHXHX",
"HXHXHXHXHXHXHXHXSXSXGXcXSXdXdXxXHXHXHXHXHXHXHXFXFXGXHXFXHXHXHXHXnXnXxXjXSXHXHXFXHXHXHXHXHXHXHXHXHXHX",
"HXHXHXHXHXHXHXHXGXGXGXnXaXb.q.q.o.o.$.$.,.$.o.o.....X.o.$.o.o.$.q.8.r.h.2XnXAXHXHXHXHXHXHXHXHXHXHXHX",
"HXHXHXHXHXHXHXHXHXGXHXxXn.N d a s s g s g g g a s s s s s s s s h a m s `.nXGXHXHXHXHXHXHXHXHXHXHXHX",
"HXHXHXHXHXHXHXHXFXHXFXaXb n m n F F F F F F F F k F F F F F F F G m m l z.SXHXSXHXHXHXHXHXHXHXHXHXHX",
"HXHXHXHXHXHXHXHXvXHXHXiXi d m F n n m m m n n n n f n N n n n n J n m l `.SXHXFXHXHXHXHXHXHXHXHXHXHX",
"HXHXHXHXHXHXHXHXnXBXGXiX= i / R ..f R N k G h ~ Q M Q Q Q Q M Q m m R l c.SXHXSXHXHXHXHXHXHXHXHXHXHX",
"HXHXHXHXHXHXHXHXHXGXDX[.- v  .N k G ~ #.%.1.o.@.) _ _ _ _ _ _ ) ..&.;.L l.vXAXGXHXHXHXHXHXHXHXHXHXHX",
"HXHXHXHXHXHXHXHXFXDXFX'.> P &.| X.,.,.v 3 5 5 z 3 3 4 2 2 2 4 3 3 z 4 9 [.FXHXGXHXHXHXHXHXHXHXHXHXHX",
"HXHXHXHXHXHXHXHXFXFXZX'.y o.$.*...:. .4 @ . + @ + . . . . . . . O @ + w tXSXHXGXHXHXHXHXHXHXHXHXHXHX",
"HXHXHXHXHXHXHXHXFXGXnXz.k :.O.y.q.;.>.l.wXeXeXrXtXrXrXrXtXrXrXtXrXtXwXAXHXHXHXHXHXHXHXHXHXHXHXHXHXHX",
"HXHXHXHXHXHXHXHXSXAXzXj.g 3.-.y.i.;.>.|.HXGXHXFXAXAXAXGXGXGXAXHXDXHXGXGXGXNXHXFXHXHXHXHXHXHXHXHXHXHX",
"HXHXHXHXHXHXHXHXFXGXnXh.y d.2.i.i.3.-.|.FXGXCXHXHXGXHXHXHXGXHXHXSXHXHXDXNXSXHXFXHXHXHXHXHXHXHXHXHXHX",
"HXHXHXHXHXHXHXHXHXGXvXD r g.a.a.j.d.2.%XFXHXSXSXSXSXSXHXSXFXSXSXSXcXHXHXGXSXSXFXHXHXHXHXHXHXHXHXHXHX",
"HXHXHXHXHXHXHXHXbXGXFX: t Z.Z.a.B.p.l.7XFXFXFXHXFXHXFXHXHXHXFXHXAXGXFXFXSXnXSXDXHXHXHXHXHXHXHXHXHXHX",
"HXHXHXHXHXHXHXHXnXFXFX- i S.Z.D.D.D.c.5XnXxX7X4XXX}.}.%X5X0XdXnXbXHXHXHXFXSXHXHXHXHXHXHXHXHXHXHXHXHX",
"HXHXHXHXHXHXHXHXSXGXMX= v XXI.F.J.D.k.{.5X.XZ.N.C.C.F.F.D.c.A.{.0XdXHXHXHXGXFXHXHXHXHXHXHXHXHXHXHXHX",
"HXHXHXHXHXHXHXHXSXHXhX, w.U.I.W.K.U.L.S.U.L.F.!..XK.K.J.F.U.E.#XOX5XsXSXGXHXHXHXHXHXHXHXHXHXHXHXHXHX",
"HXHXHXHXHXHXHXHXSXHXiX3 g.oXXXJ.J.R.Q.T.I.U.U.H.&X$X@X#X#XY.K.L.I.{.5XgXGXHXHXFXHXHXHXHXHXHXHXHXHXHX",
"HXHXHXHXHXHXHXHXFXGX7XL W.:X+XR.oXT.G.T.$X&X&X$XP.G.P.Q.:X:X+X@X;XY.OX5XsXHXHXHXHXHXHXHXHXHXHXHXHXHX",
"HXHXHXHXHXHXHXHXFXGX0Xt.E.:X-X;X:XI.Q.>X,X9X9X,X>X>XQ.P.T.XX+X,X=X>XP.OX0XvXHXSXHXHXHXHXHXHXHXHXHXHX",
"HXHXHXHXHXHXHXHXSXSX0XD.Q.=X}.Y.+X-X>X;Xk.K 9 5 8 Z l.&X<X:X#XoXS.Q.Q.U.5XjXHXGXHXHXHXHXHXHXHXHXHXHX",
"HXHXHXHXHXHXHXHXFXSX<X!.Q.>X>X>X>XqX{.7     X + X O ; U Z.-X=X-X;XY.=X-X;X%XxXGXHXHXHXHXHXHXHXHXHXHX",
"HXHXHXHXHXHXHXHXmXxXqXT.A.`.x.x.`.w $ w wXhXhXhX_./.8.c U D.<XXX;XoX=X-X;XOXdXGXHXHXHXHXHXHXHXHXHXHX",
"HXHXHXHXHXHXHXHXSXfX X4 @ o .     e hXFXFXHXSXSXnXSXpX9.U <.E.+X;X@X=XQ.#X@XpXFXHXHXHXHXHXHXHXHXHXHX",
"HXHXHXHXHXHXHXHXbXbX1X0.S ~.~.^.wXGXHXFXDXHXHXSXvXGXBXzXn.6.d.,X#X@X+XY.R.XX7XAXHXHXHXHXHXHXHXHXHXHX",
"HXHXHXHXHXHXHXHXHXSXFXDXHXFXHXDXSXGXNXAXHXHXDXHXFXVXBXHX9X5.4.E.R.@X#XY.P.I.2XSXHXHXHXHXHXHXHXHXHXHX",
"HXHXHXHXHXHXHXHXHXHXHXFXHXAXAXSXbXSXSXGXHXHXHXHXHXAXGXFXsXW.7.U.U.L.U.T.F.I.|.HXHXHXHXHXHXHXHXHXHXHX",
"HXHXHXHXHXHXHXHXCXFXHXHXSXSXCXHXHXSXAXSXHXCXCXHXFXbXSXFXnXQ.C.W.F.L.L.G.D.L. XSXHXHXHXHXHXHXHXHXHXHX",
"HXHXHXHXHXHXHXHXSXSXSXbXSXSXHXFXHXFXHXAXHXHXSXGXGXxXxXFXHX-XN.W.D.Z.D.Z.V.L.'.SXHXHXHXHXHXHXHXHXHXHX",
"HXHXHXHXHXHXHXHXSXuX*XU.&X3X6X}.%XpXSXGXbXnXFXFXFXSXGXGXSX9X>.D.B.M.S.Z.a.V.'.SXHXHXHXHXHXHXHXHXHXHX",
"HXHXHXHXHXHXHXHX7Xa.4.u.p.j.a.N.k.9XSXDXAXSXSXFXZXbXGXDXzXc.Y g.d.V.k.a.d.a.`.HXHXHXHXHXHXHXHXHXHXHX",
"HXHXHXHXHXHXHXHX6XW 6.f.3.d.y.3.-.J.vXFXFXHXnXnXHXnXGXSXsXq...f.u.a.y.u.B.t.|.HXHXHXHXHXHXHXHXHXHXHX",
"HXHXHXHXHXHXHXHXuXW 6.b.t.<.i.u.:.a.8XFXHXCXlXVXDXAXGXFXaXq.1.f.t.u.y.:.f.8.gXGXHXHXHXHXHXHXHXHXHXHX",
"HXHXHXHXHXHXHXHXsX[ ] h.>.;.t.t.-.>.v.4XxXHXGXGXFXHXcXnX*X$.;.<.t.1.:.1.%.`.SXBXHXHXHXHXHXHXHXHXHXHX",
"HXHXHXHXHXHXHXHXnX4.E *.-.-.&.-.-.O.O.s..XaXSXFXSXxX4X8Xe.o.( O.t.;.^ y.K iXHXNXHXHXHXHXHXHXHXHXHXHX",
"HXHXHXHXHXHXHXHXGX$XE E { ! o.O.&.,.) ~ U q.v.e.v.t.t.8.P ` ' %...) ^ U /.CXHXZXHXHXHXHXHXHXHXHXHXHX",
"HXHXHXHXHXHXHXHXVXjX=.E +.M *.@.} Q ` +.| Q ~ ( ! G _ k +.W R ....H ) L 0XGXHXSXHXHXHXHXHXHXHXHXHXHX",
"HXHXHXHXHXHXHXHXFXFX3XI h W ` F H H H H H ! } P ' R G ' ! ! } M W } Z (.FXFXFXSXHXHXHXHXHXHXHXHXHXHX",
"HXHXHXHXHXHXHXHXGXSXfX].j l g | Q T T T ~ / T h V r.#.k k T n / v 2 0.FXGXDXHXbXHXHXHXHXHXHXHXHXHXHX",
"HXHXHXHXHXHXHXHXGXGXSXfX].x > r a k ! T h h h N m a G ~ ~ } b t 6 [.HXAXGXGXCXSXHXHXHXHXHXHXHXHXHXHX",
"HXHXHXHXHXHXHXHXGXGXHXSXvX'.C = - 4 x L b P P } G ' G j z - # < rXDXGXGXAXHXHXFXHXHXHXHXHXHXHXHXHXHX",
"HXHXHXHXHXHXHXHXSXFXHXGXHXSXyX/.6 < $ $ ; ; ; ; : . . .   0 _.HXFXmXAXSXZXDXHXFXHXHXHXHXHXHXHXHXHXHX",
"HXHXHXHXHXHXHXHXSXFXFXGXGXGXHXFXDXeX^.w 7 * % % & q e ).mXGXBXGXhXSXSXvXSXHXFXFXHXHXHXHXHXHXHXHXHXHX",
"HXHXHXHXHXHXHXHXSXSXFXHXSXSXGXHXGXHXHXGXHXGXCXDXSXSXSXSXlXbXHXCXHXZXvXSXSXHXHXGXHXHXHXHXHXHXHXHXHXHX",
"HXHXHXHXHXHXHXHXAXGXHXSXSXSXHXFXSXFXSXSXHXHXHXHXHXFXCXZXFXHXFXFXGXHXHXFXFXGXAXGXHXHXHXHXHXHXHXHXHXHX",
"HXHXHXHXHXHXHXHXHXHXHXHXHXHXHXHXHXHXHXHXHXHXHXHXHXHXHXHXHXHXHXHXHXHXHXHXHXHXHXHXHXHXHXHXHXHXHXHXHXHX",
"HXHXHXHXHXHXHXHXHXHXHXHXHXHXHXHXHXHXHXHXHXHXHXHXHXHXHXHXHXHXHXHXHXHXHXHXHXHXHXHXHXHXHXHXHXHXHXHXHXHX"
};
