/* XPM */
static char *_860_138a145af075372ee6236effa2f64e01f181241e642a40f26cae2623e2b3092e[] = {
/* columns rows colors chars-per-pixel */
"50 50 244 2 ",
"   c #0C0300",
".  c #0A0900",
"X  c #130300",
"o  c #180800",
"O  c #291B02",
"+  c #2B1200",
"@  c #3A2500",
"#  c #392D10",
"$  c #472800",
"%  c #4B3600",
"&  c #593A03",
"*  c #4C3410",
"=  c #612E00",
"-  c #5B451C",
";  c #6A4805",
":  c #784D07",
">  c #705116",
",  c #5D4D29",
"<  c #514B36",
"1  c #7D642B",
"2  c #684E29",
"3  c #855317",
"4  c #896217",
"5  c #997114",
"6  c #BB7D03",
"7  c #B87807",
"8  c #A5691A",
"9  c #A77517",
"0  c #B67D15",
"q  c #A97B03",
"w  c #9A6C28",
"e  c #9C752A",
"r  c #936D3B",
"t  c #967739",
"y  c #8B6F2B",
"u  c #A67628",
"i  c #B37F22",
"p  c #A57D37",
"a  c #A16E2F",
"s  c #C37F09",
"d  c #86785E",
"f  c #8B794A",
"g  c #827765",
"h  c #AE7F63",
"j  c #BA8407",
"k  c #AE8A1A",
"l  c #BC831C",
"z  c #BC8A1C",
"x  c #B58516",
"c  c #AB8529",
"v  c #BA8629",
"b  c #BD942C",
"n  c #A88839",
"m  c #B68737",
"M  c #BC9439",
"N  c #C38508",
"B  c #C4940C",
"V  c #C3841B",
"C  c #C48A1C",
"Z  c #C88917",
"A  c #D18919",
"S  c #CA9719",
"D  c #D1A119",
"F  c #C58B23",
"G  c #CB8B22",
"H  c #C48B2A",
"J  c #C88A28",
"K  c #D58A21",
"L  c #C5952D",
"P  c #CA9C28",
"I  c #D49625",
"U  c #C48B33",
"Y  c #C39333",
"T  c #C89937",
"R  c #D89931",
"E  c #E69829",
"W  c #CDA32C",
"Q  c #D6A42B",
"!  c #CBA336",
"~  c #D6A838",
"^  c #DBB13E",
"/  c #E2AA37",
"(  c #978549",
")  c #918A5E",
"_  c #A78646",
"`  c #B48C45",
"'  c #BA964A",
"]  c #A48957",
"[  c #A39456",
"{  c #B89855",
"}  c #B4A258",
"|  c #B7AA4C",
" . c #9D9169",
".. c #949274",
"X. c #A78A6B",
"o. c #B19567",
"O. c #B99E75",
"+. c #AF8A68",
"@. c #B8A365",
"#. c #BAA577",
"$. c #AEA57C",
"%. c #C69D47",
"&. c #C69A4A",
"*. c #D09E4A",
"=. c #C9A448",
"-. c #D5AC4C",
";. c #D8AA45",
":. c #D8B24A",
">. c #C8A959",
",. c #D5AA57",
"<. c #CDB855",
"1. c #DAB859",
"2. c #E4BB58",
"3. c #E4B743",
"4. c #CB9D79",
"5. c #C6A868",
"6. c #D4AB66",
"7. c #C8B26A",
"8. c #D6BC6B",
"9. c #D8B667",
"0. c #CAB974",
"q. c #D5B57A",
"w. c #C9AB7D",
"e. c #E3B969",
"r. c #D8C852",
"t. c #DAC64C",
"y. c #E6C75D",
"u. c #EBC753",
"i. c #DCC56C",
"p. c #D8C562",
"a. c #D0D16C",
"s. c #CDC67A",
"d. c #D7C678",
"f. c #DDD47B",
"g. c #E6CB6C",
"h. c #E8C569",
"j. c #EDD46E",
"k. c #E8D868",
"l. c #F2D96D",
"z. c #ECCB73",
"x. c #E6C875",
"c. c #ECD374",
"v. c #EBDE73",
"b. c #EBD57B",
"n. c #EBDA7C",
"m. c #E4D479",
"M. c #F1DB76",
"N. c #F4D67C",
"B. c #F2DA7E",
"V. c #F9DE7B",
"C. c #F1CE7A",
"Z. c #F6E579",
"A. c #FAE264",
"S. c #9D9193",
"D. c #A69987",
"F. c #9DA085",
"G. c #B6AA8A",
"H. c #B5A99E",
"J. c #B4AD8C",
"K. c #B6B3B3",
"L. c #C8AE89",
"P. c #D4AD84",
"I. c #CBBA86",
"U. c #DAB687",
"Y. c #DEBC99",
"T. c #E0B290",
"R. c #C9BDAF",
"E. c #DBCC85",
"W. c #D7C98A",
"Q. c #DFD287",
"!. c #D7C897",
"~. c #DCD39C",
"^. c #DDD497",
"/. c #E4C785",
"(. c #E3D483",
"). c #E9D783",
"_. c #ECDB84",
"`. c #EDDB8D",
"'. c #E8D786",
"]. c #F1DD85",
"[. c #F6D988",
"{. c #E1CD9C",
"}. c #E7CB95",
"|. c #E9DB96",
" X c #F7DC94",
".X c #ECE48D",
"XX c #EDE785",
"oX c #F3E38C",
"OX c #FAE585",
"+X c #F6E694",
"@X c #FBEB93",
"#X c #F7E797",
"$X c #F9EB93",
"%X c #DCC3A4",
"&X c #DDD7A6",
"*X c #DACCB5",
"=X c #D1CEB8",
"-X c #E9CCA7",
";X c #E8DAA8",
":X c #FAD9A9",
">X c #E9D8B6",
",X c #F4DABA",
"<X c #FBE9AA",
"1X c #E6E3BB",
"2X c #FCE7BA",
"3X c #FFF8BE",
"4X c #FFF5A3",
"5X c #D0C9C3",
"6X c #FBD5C4",
"7X c #E9DAD2",
"8X c #F6E9C5",
"9X c #F8E8C6",
"0X c #FFF2C2",
"qX c #FFFBC5",
"wX c #FEF3CA",
"eX c #FFFCCE",
"rX c #ECEBD3",
"tX c #F9EBD7",
"yX c #FFF4D4",
"uX c #FFFCD3",
"iX c #FEF4DB",
"pX c #FFFDDC",
"aX c #F4F4D5",
"sX c #E9E7E8",
"dX c #F6EEE7",
"fX c #FEF3E4",
"gX c #FEFCE4",
"hX c #F5F3EB",
"jX c #FEF5ED",
"kX c #FFFDEC",
"lX c #F5F8EA",
"zX c #F7ECFB",
"xX c #EDF6FD",
"cX c #EBFEFF",
"vX c #E7F3FF",
"bX c #F4F6F5",
"nX c #FEF5F4",
"mX c #F5FCF4",
"MX c #FEFDF4",
"NX c #F5F5FC",
"BX c #FDF6FD",
"VX c #F5FEFE",
"CX c #FEFEFE",
"ZX c #ECF0F4",
/* pixels */
"CXCXCXCXMXMXMXmXCXVXCXCXCXCXCXCXMXVXVXVXVXVXcXcXVXVXCXCXCXCXMXMXnXBXCXCXCXNXMXBXMXMXMXMXCXCXVXVXCXCX",
"CXCXCXCXCXMXMXCXCXVXCXVXNXCXCXmXCXCXmXmXCXCXCXbXNXmXCXMXhXdXjXMXCXCXCXBXCXCXCXMXMXMXMXCXmXCXVXVXCXCX",
"CXCXCXCXmXMXmXCXCXCXCXBXCXCXCXCXNXCXCXCXnXMXMXjXkXjXkXMXnXMXMXMXnXCXCXCXCXCXCXNXCXMXMXBXCXCXVXCXCXCX",
"CXCXCXCXCXMXCXCXNXCXCXCXCXCXMXMXMXjXfXkXgX9X}.w.U.P.P.Y.,XyXkXjXMXMXmXCXVXCXVXCXCXCXMXMXCXCXCXCXCXCX",
"CXCXCXCXmXCXCXmXCXCXCXCXCXjXjXjXpXpX0X}.{ u 8 v 8 u u u p o.U.;XgXkXjXmXVXVXVXVXCXCXMXMXCXCXCXCXCXCX",
"CXCXCXCXCXCXCXCXCXCXBXCXMXjXkXpXqX/._ 5 8 0 7 7 s s 7 9 8 9 n _ I.8XpXkXmXCXVXVXCXCXCXCXCXMXMXCXCXCX",
"CXCXCXCXmXCXCXCXCXCXCXBXMXkXfX2X' c 9 x Z B N N s s 6 s Z C 0 5 e 5.2XpXgXMXVXVXCXVXCXCXCXCXMXMXCXCX",
"CXCXCXCXCXCXCXCXNXCXCXjXkXgX,X5.i v l V 0 7 6 N N N j j 6 0 N C v u { <XpXkXlXCXCXCXCXCXMXCXCXCXCXCX",
"CXCXMXCXCXCXCXCXCXCXBXtXfX,Xo._ U s J J v v m M T v T T 0 A K s G v i 6.uXiXfXMXCXCXCXCXCXCXCXCXCXCX",
"CXCXMXCXCXCXCXCXCXnXMXfX9Xf _ &.U A J U &.>.{ t 1 ; : u H G K E K K U ` }.pXgXMXCXCXCXCXCXCXCXCXCXCX",
"CXCXCXCXCXCXCXCXCXBXjXiXO.t ' T R A J =.' 1 O   X o o = i R s K A A *.m q.pXgXjXCXCXCXCXCXCXCXCXCXCX",
"CXMXCXCXCXCXCXCXnXMXiX>X] >.>.Y I / ;.M t f G.rX=XJ.f > 4 U ;.R / L *.' o.9XfXMXCXCXCXCXCXCXVXCXCXCX",
"MXCXCXCXCXCXCXCXCXnXfXo.{ &.! ~ R ^ M n 0.wXkXgXMXkX9X#.y p ;.~ ;.,.6.q.$.>XMXmXCXCXCXCXCXCXCXVXCXCX",
"MXCXCXCXCXCXCXCXnXjX>X2 5.%.:.~ ! :.=.7.;XgXMXCXCXMXkX9X+.y m n n } [  ...=XMXhXCXCXCXCXCXCXCXCXCXCX",
"CXCXCXCXCXCXCXCXjXkXX.& 8.2.2.~ p.| } !.gXMXzXBXBXzXBXnXG.- o X . . . . < K.CXCXCXCXCXCXCXCXCXCXCXCX",
"CXMXCXCXCXCXCXCXMXgX- _ z.2.^ 2.<.s.W.*XMXBXzXCXBXCXBXBX7XD.d  ...g F...5XVXCXNXCXCXMXCXCXCXCXCXCXCX",
"MXMXCXCXVXCXCXCXkX>X> 8.h.h.y.r.r.a.J.kXnXMXgXgXkXkXBXCXBXMXkXkXkXkXmXCXCXCXVXCXCXMXMXMXBXCXCXCXCXCX",
"kXMXmXVXCXCXCXCXgX%Xt q.h.z.2.k.k.a.$.fXBXkXuXqXqXwXaXaXaXtXiXpXkXMXCXCXVXBXCXCXCXMXMXMXCXCXCXCXCXCX",
"kXMXVXCXVXCXCXMXpX!.7.e.g.V.1.v.p.f.!.mXjX8X^.s.s.s.W.W.!.~.~.&XrXaXMXmXCXVXCXCXCXMXMXCXCXCXCXCXCXCX",
"MXMXCXCXVXCXCXkXpX!.|.b.c.[.h.].m.'.%XtX>X~.Q.n.m.f.Q.).(.m.E.!.&X8XiXMXBXCXCXCXCXCXMXCXCXCXCXCXCXCX",
"CXCXCXCXVXCXCXkXpX;X X_.B.n.c.c.B.(.U.-X{.`.n.v.v.v.k.Z.v.v.].`.^.&X1XaXkXMXCXmXCXCXCXCXCXCXCXCXCXCX",
"CXCXCXCXCXCXMXgXeX|.(.].n.b.oX).n.x.}.:X|.`.n.k.Z.v.k.k.k.l.). X.X^.~.&XaXMXCXNXCXCXCXCXCXCXCXCXCXCX",
"CXCXCXCXCXmXMXgXeXQ.m.oXn.`.oX_.Z.M. X+X`.oX@X@X#X$XOXOXZ.V.[.[..X.X|.~.1XiXMXCXCXCXCXCXCXCXCXCXCXCX",
"CXCXCXCXCXCXkXpXqXE._.@Xb.$X`.oXOXM.[.+X<X X0.[ ( [ 7.z.Z.OX X XXXXX.X|.;XaXkXCXCXCXCXCXCXCXCXCXCXCX",
"CXCXCXCXCXCXkXpX0XE._.$Xn.oX+XXXZ.@X+X:X .O     .   @ ( i.OX[.@XZ.Z.Q.#X&X&XgXCXCXCXCXCXCXCXCXCXCXCX",
"CXCXCXCXCXmXkXpXqXd.).OXn.oX+X_.n.b.!., * F.H.5XK.S.d f | n.OXc.Z.Z.v.$X;X&XyXkXCXCXBXCXCXCXCXCXCXCX",
"CXCXCXCXCXCXMXpXqXs.i.OXB.].]._.4X7., H.NXsXCXBXBXCX7XG.[ r.k.l.l.Z.n.oX.X~.rXjXBXCXCXCXCXCXCXMXCXCX",
"CXCXCXCXCXCXMXgX0X@.6.[.B.].].).E.I.tXzXCXCXvXCXNXCXCXiXf.<.r.A.l.v.n.oX.X^.1XpXBXCXCXCXCXCXCXMXCXCX",
"CXCXCXCXCXCXMXgX2X_ ' [.N.N.B.m.#X{.*XCXCXzXCXCXVXzXCXgX<Xp.t.A.l.M.n.).`.^.;XpXMXCXCXCXCXCXCXCXCXCX",
"MXmXCXCXCXCXMXgX2Xr n C.N.c.c.m.i.!.7XBXBXVXmXmXCXCXCXMX3X_.k.u.c.z.c.b.'.E.!.pXkXCXCXCXCXCXMXMXCXCX",
"MXMXmXCXCXCXMXjXyXr a C.z.h.j.g.c.0.9XCXmXMXgXlXmXCXCXMXiX Xz.y.z.C.).i.m.W.W.pXkXBXCXCXCXCXMXMXCXCX",
"MXMXCXCXCXCXCXjXyXf e h.h.y.g.g.c.8.-XjXkXkXlXaXMXmXBXBXgX:XC.h.h.x.x.i.m.d.I.pXMXCXCXBXCXCXCXCXCXCX",
"CXCXMXMXCXCXBXBXfX4.a 2.e.2.e.x.x.9.-XiXkXmXVXcXcXcXbXMXuX:X` C.e.9.h.i.i.7.I.gXNXCXBXCXCXCXCXmXCXCX",
"CXCXMXMXCXCXCXBXjXT.u -.2.3.9.e.e.>./.wXgXmXcXcXcXcXhXgXwXq.` 9.e.2.1.r.8.0.I.gXBXCXBXCXCXCXCXCXCXCX",
"CXCXmXCXCXCXCXBXjX:Xp R 3.^ 2.:.1.<.9.:XuXkXmXVXVXVXkXpXeX} M :.;.r.-.>.8.5.!.gXMXCXCXCXCXCXCXMXCXCX",
"CXCXCXmXCXCXCXBXgX2X&.L ^ Q 3.~ ~ :.=.7.2XgXMXmXbXhXgXpX<X' -.;.~ ^ :.=.7.@.8XgXMXCXCXCXCXCXMXCXCXCX",
"CXCXCXCXVXCXCXCXgXwX9.L I S / D P ;.%.{ }.iXkXBXMXnXfXwX/.&.-.! W W ~ >.{ #.pXkXMXCXCXmXCXCXMXCXCXCX",
"BXCXCXCXCXVXCXCXjXeX[.=.P S Q D D P T %.5.P.-XtXiXpX2X X*.T W S D W b 6.( >XgXMXMXMXCXMXMXMXCXMXCXCX",
"CXCXCXCXVXCXCXCXjXuX3X1.H C I S S B S P v m &.9.6.6.,.T z D S D z P b { #.iXMXBXCXMXmXMXMXMXCXCXCXCX",
"CXCXCXCXCXVXVXCXMXiXuXU.m H J A S B S S z I L 0 H 0 J l F W j S S b | t -XmXCXVXCXVXMXMXCXMXBXCXCXCX",
"MXCXCXCXVXCXCXCXCXjXgXwXU.a 8 J H J F V V C C C C l V F J H F J L u t L.fXBXBXVXVXVXVXMXCXCXCXCXCXCX",
"MXCXCXCXCXCXCXCXCXjXBXjX6X+.3 3 8 0 v v F C C x j Z F z i v U m m 4 o.gXMXBXBXCXVXCXCXVXCXCXBXCXCXCX",
"MXMXCXCXCXCXCXCXCXCXCXBXnX6Xh = : 5 v v 0 j j j j j x z v m u w & #.yXfXjXBXCXCXCXCXVXCXCXCXCXCXCXCX",
"MXMXCXCXCXCXCXCXVXCXCXzXBXzX6Xh $ ; 4 e c c k k k 5 5 c e : $ $ L.iXkXjXCXBXNXBXCXCXCXCXCXCXCXCXCXCX",
"mXCXCXCXBXCXMXkXmXCXCXCXBXBXnXfX%XX.2 @ $ - % % % @ O o X @ X.jXMXhXMXCXMXmXCXVXCXCXCXCXCXCXCXCXCXCX",
"CXCXCXCXCXBXkXkXMXVXVXVXBXCXMXkXkXfX=XD.d < # O O # < g R.fXnXnXsXNXCXmXsXMXMXCXCXCXCXCXCXCXmXVXCXCX",
"VXCXCXBXCXMXgXgXkXVXVXvXVXCXMXrXdXMXCXMXVXbXNXVXNXCXCXCXVXCXCXCXCXVXxXmXMXMXdXCXCXBXCXCXCXVXMXMXCXCX",
"CXCXCXCXCXMXkXkXlXmXVXVXVXxXMXMXMXCXMXVXVXCXVXVXCXNXxXNXCXCXmXCXVXxXmXVXlXkXkXnXCXCXCXCXCXCXmXMXCXCX",
"CXCXCXCXCXCXCXMXCXCXCXCXCXCXCXCXCXCXCXCXCXCXCXCXCXCXCXCXCXCXCXCXCXCXCXCXCXCXCXCXCXCXCXCXCXCXCXCXCXCX",
"CXCXCXCXCXCXCXCXCXCXCXCXCXCXCXCXCXCXCXCXCXCXCXCXCXCXCXCXCXCXCXCXCXCXCXCXCXCXCXCXCXCXCXCXCXCXCXCXCXCX"
};
