/* XPM */
static char *_8105_4a86ea0a5a347dc7dc42f5b07f9095833cc8e1f2b62b1955542aea9ee4ea09b0[] = {
/* columns rows colors chars-per-pixel */
"50 50 228 2 ",
"   c #3E2801",
".  c #563406",
"X  c #59390A",
"o  c #552F0D",
"O  c #6D380F",
"+  c #693524",
"@  c #5E4819",
"#  c #6C4E0D",
"$  c #7E5E0B",
"%  c #654F1D",
"&  c #774B16",
"*  c #705314",
"=  c #7D6707",
"-  c #654F28",
";  c #7D5D36",
":  c #796C37",
">  c #8F5C00",
",  c #895E19",
"<  c #9A6A07",
"1  c #8B621B",
"2  c #8D651B",
"3  c #886500",
"4  c #AB6F0F",
"5  c #A87E12",
"6  c #87562B",
"7  c #8E5029",
"8  c #8B7726",
"9  c #9C6E33",
"0  c #866137",
"q  c #876C51",
"w  c #AA7A4A",
"e  c #BE8A00",
"r  c #AC8013",
"t  c #B8881A",
"y  c #BFA80C",
"u  c #B9A517",
"i  c #9C8832",
"p  c #B08D2F",
"a  c #B68723",
"s  c #B2843B",
"d  c #BA9635",
"f  c #BA932C",
"g  c #CA990F",
"h  c #C99816",
"j  c #C2880B",
"k  c #D7A41B",
"l  c #DCA21D",
"z  c #C5B113",
"x  c #E3BB1D",
"c  c #CB9B2D",
"v  c #C59227",
"b  c #CA9A32",
"n  c #D39D32",
"m  c #D79B2B",
"M  c #CAA729",
"N  c #DAA727",
"B  c #D7B529",
"V  c #CAA737",
"C  c #D6A737",
"Z  c #D8B739",
"A  c #E4AB23",
"S  c #E1B628",
"D  c #E2B333",
"F  c #E7B93D",
"G  c #F1BC3C",
"H  c #ECAB37",
"J  c #DEC43C",
"K  c #F0CE2E",
"L  c #E4C634",
"P  c #EBCE3C",
"I  c #E8C83B",
"U  c #F1C23D",
"Y  c #EDD439",
"T  c #F3D33E",
"R  c #FCD53B",
"E  c #F2D135",
"W  c #E8CC2B",
"Q  c #A6804F",
"!  c #BAA44B",
"~  c #AFA87E",
"^  c #CA9946",
"/  c #CCA948",
"(  c #D6AC44",
")  c #C6B24F",
"_  c #DAB745",
"`  c #DBAE58",
"'  c #C9B654",
"]  c #D4BC52",
"[  c #D7B25B",
"{  c #E4BC4D",
"}  c #E7BA45",
"|  c #E6BC55",
" . c #E3A74F",
".. c #CCBD60",
"X. c #D6BB6C",
"o. c #C0A270",
"O. c #DABC78",
"+. c #C9BA79",
"@. c #E2BF6D",
"#. c #DBC748",
"$. c #CFC35D",
"%. c #DBC85B",
"&. c #E4C246",
"*. c #EBCC44",
"=. c #E6C24C",
"-. c #ECC64D",
";. c #E4C94C",
":. c #EBCD4B",
">. c #E8C745",
",. c #F4CD43",
"<. c #F2CC4A",
"1. c #FBCF4A",
"2. c #FCCE47",
"3. c #EED241",
"4. c #ECD24D",
"5. c #E9D54B",
"6. c #F2D644",
"7. c #FED345",
"8. c #F5D44C",
"9. c #FBD34D",
"0. c #F5DA4E",
"q. c #FDDB4A",
"w. c #E5C154",
"e. c #EAC452",
"r. c #E4CA54",
"t. c #EBCB5D",
"y. c #E7CC5A",
"u. c #F1C356",
"i. c #F3CD53",
"p. c #FDCF56",
"a. c #F7CB5A",
"s. c #EED154",
"d. c #EDD45C",
"f. c #F4D355",
"g. c #FAD453",
"h. c #F6DB5E",
"j. c #FEDD5B",
"k. c #F8D659",
"l. c #FFE04A",
"z. c #FDE35D",
"x. c #FFE057",
"c. c #CEC464",
"v. c #DECB6B",
"b. c #D6C567",
"n. c #DBC87B",
"m. c #E3CB68",
"M. c #F4CE61",
"N. c #F4C767",
"B. c #E8D568",
"V. c #FDD664",
"C. c #F4DB63",
"Z. c #F8DA68",
"A. c #ECCC7F",
"S. c #E7D177",
"D. c #FAD976",
"F. c #FEE368",
"G. c #F5E377",
"H. c #DFBE91",
"J. c #CCBC9A",
"K. c #DBCF87",
"L. c #DCD088",
"P. c #E2CC8A",
"I. c #E7D888",
"U. c #F3DF86",
"Y. c #E8D69B",
"T. c #F8DA9E",
"R. c #EBE588",
"E. c #F6E98B",
"W. c #F3E295",
"Q. c #FDF298",
"!. c #E6DEA0",
"~. c #E8DABB",
"^. c #EFE2AD",
"/. c #F6E6A8",
"(. c #FEF8A8",
"). c #EDE6B4",
"_. c #F3E1B1",
"`. c #FEF2B4",
"'. c #FEF3BC",
"]. c #DCCFCA",
"[. c #DAC7C1",
"{. c #E8D9C6",
"}. c #E4DFD9",
"|. c #ECE6C5",
" X c #EDECCB",
".X c #FCEEC4",
"XX c #FFEDCF",
"oX c #F2E5C4",
"OX c #FEF3C4",
"+X c #F4F0CE",
"@X c #FDF5CA",
"#X c #EBE7D6",
"$X c #EAE8D6",
"%X c #F6EAD7",
"&X c #F9ECD6",
"*X c #FFF5D6",
"=X c #F3F3DB",
"-X c #FCF5DC",
";X c #FFFDDC",
":X c #FAF5D4",
">X c #EEF9DB",
",X c #F2DDE4",
"<X c #EFEFEE",
"1X c #EDE8E5",
"2X c #F2EDE2",
"3X c #FBEEE9",
"4X c #EFF9E0",
"5X c #F6F3E4",
"6X c #F4FBE4",
"7X c #FDFEE3",
"8X c #F7F5EB",
"9X c #FEF3ED",
"0X c #F6FDED",
"qX c #FDFDEC",
"wX c #FFF4E0",
"eX c #EEECF6",
"rX c #E4E9F6",
"tX c #FEEFFC",
"yX c #F1EEF9",
"uX c #EFF8FF",
"iX c #F4F4F4",
"pX c #FDF6F5",
"aX c #F5FEF3",
"sX c #FDFDF4",
"dX c #F4F5FC",
"fX c #FEF5FE",
"gX c #F5FDFD",
"hX c #FFFEFF",
/* pixels */
"hXhXhXhXhXhXhXhXhXhXsXqXsXhXhX0XsXhXhXhXsXsXpXhXsXhXhXhXhXhXgXhXpXsXsXsXsXsXpXhXhXhXhXhXhXhXhXhXhXhX",
"hXhXhXhXhXhXhXhXhXsXhXsXsXhXdXiX0XaXhXpXsXaXsXsXpXsXsXsXsXsXsXsXfXhXhXhXhXhXhXgXhXhXhXhXhXhXhXhXhXhX",
"hXhXhXhXhXhXhXhXhXhXpXdXhXhXhXfXhXhXgXhXhXhXfXgXhXhXhXhXsXgXsXgXhXhXhXhXhXsXsXsXhXhXhXhXhXhXhXhXhXhX",
"hXhXhXhXhXhXhXhXhXhXsXhXfXqX;X,X3XqXwXqXpXhXfXhXhXfXhXfXhXfXhXhX0XsXgXsXsXgXaX0XhXhXhXhXhXhXhXhXhXhX",
"hXhXhXhXhXhXhXhXhXhXsXhXgX^.[ q ! D.B.G.I.R.W.Q.'.@X@X*X7XqXpXsXpXhXhXpXhXhXfXgXhXhXhXhXhXhXhXhXhXhX",
"hXhXhXhXhXhXhXhXhXfXsXhXfXc.u . 3 #.L 6.#.M.r.5.#.5.%.v.S.S.P.I.^.^._._.{.%XhXhXhXhXhXhXhXhXhXhXhXhX",
"hXhXhXhXhXhXhXhXsXgXaXpXfX$.z - , D.g.z.M.D.M.8.0.6.8.8.8.s.s.d.;.;.J Z ] L.+XsXhXhXhXhXhXhXhXhXhXhX",
"hXhXhXhXhXhXhXhX7XhXqXhXfX' z + $ Z.Y T &.V.g.E a.k.a.p.g.g.g.9.k.q.l.q.C.I.%XhXhXhXhXhXhXhXhXhXhXhX",
"hXhXhXhXhXhXhXhX7XdXaXhXfXb.B + = Z.a.1.1.1.8.d.7.q.I 6.0.;.Z.C.C.4.6.q.e.P.-XsXhXhXhXhXhXhXhXhXhXhX",
"hXhXhXhXhXhXhXhXqXgXsXhXfX' z O = v.M.V.f.C.F.G.| V.h.z.x.7.q.3.z.:.j.8.z.v.7XgXhXhXhXhXhXhXhXhXhXhX",
"hXhXhXhXhXhXhXhXpXfXsXhXfX) z 9 r C h l A A N h [ ' b.] { i.8.0.Y 8.V.i.0.%.;XhXhXhXhXhXhXhXhXhXhXhX",
"hXhXhXhXhXhXhXhXhXhXpXpXfXK.%.H.| ` b n n n v < % X % X O 7 7 w Z k.f.0.#.I.=XhXhXhXhXhXhXhXhXhXhXhX",
"hXhXhXhXhXhXhXhXgXhXsXdXhX-XOXqXiX7X7X7X+X|.=X$X(.R.E.| a 4 > r =.z.P d.n.*XgXhXhXhXhXhXhXhXhXhXhXhX",
"hXhXhXhXhXhXhXhXaXgXgXuXhXhXhXhXhXuXgXhXgXiXhXhXhXfX7XT.^ 4 t { a.j.>.b.XXhXhX6XhXhXhXhXhXhXhXhXhXhX",
"hXhXhXhXhXhXhXhXaXgXsXhXhXgXfXgXhXpXsX9XpXsXfX9XfXhXoXm.v j D V.8.f.%.Y.pXhXhXaXhXhXhXhXhXhXhXhXhXhX",
"hXhXhXhXhXhXhXhXhXsXhXsXsXhXhXsXgXgXhXdXhXhXhXgXhX7Xn.M g k <.r.E Z.O.7XhXhXeXgXhXhXhXhXhXhXhXhXhXhX",
"hXhXhXhXhXhXhXhXhXhXhXhXhXhXhXhXaXgXhXfXgXsXsXpXgXI.} H e ( D.T E m.oXhXhXsXsXhXhXhXhXhXhXhXhXhXhXhX",
"hXhXhXhXhXhXhXhXhXhXhXhXhXhXhXhXgXpXfXhXhXaXhXhX8Xc.C m k w.N.E :.I.-XhXhXsXhXgXhXhXhXhXhXhXhXhXhXhX",
"hXhXhXhXhXhXhXhXhXhXhXhXhXhXhXhXhXaXhXhXhXuXhXhXY.( C t } i.i.K v.`.sXgXgXsXhXhXhXhXhXhXhXhXhXhXhXhX",
"hXhXhXhXhXhXhXhXhXhXhXhXhXhXhXhXhXpXhXsXhXgXpX9X( Z v t =.k.4.P Y.7XhXgXhXhXpXhXhXhXhXhXhXhXhXhXhXhX",
"hXhXhXhXhXhXhXhXhXhXhXhXhXhXhXhXgXhXsXhXgXgXqX~.N V 5 V i.i.*.s.%XsXhXgXhXhXgXhXhXhXhXhXhXhXhXhXhXhX",
"hXhXhXhXhXhXhXhXhXhXhXhXhXhXhXhXfXhXsXdXgXhX.XX.D a < } V.<.J U.pXhXgXgXhXhXpXhXhXhXhXhXhXhXhXhXhXhX",
"hXhXhXhXhXhXhXhXhXhXhXhXhXhXhXhXhXhXsXgXhXsXT.C C , p <.p.<.#..XfXpXaXsXhXhXhXhXhXhXhXhXhXhXhXhXhXhX",
"hXhXhXhXhXhXhXhXhXhXhXhXhXhXhXhXhXfXhXhXhX8XP.h f & m.,.G 7.y.0XhXpXaXsXpXhXhXgXhXhXhXhXhXhXhXhXhXhX",
"hXhXhXhXhXhXhXhXhXhXhXhXhXhXhXhXsXgXsX7XhX%XV D 6 2 0.L a.-.U.gXhXhXhXhXhXhXhXhXhXhXhXhXhXhXhXhXhXhX",
"hXhXhXhXhXhXhXhXhXhXhXhXhXhXhXhXgXhXsXsXhXY.V V & p 0.I u.t.(.hXhXhXhXhXhXhXhXhXhXhXhXhXhXhXhXhXhXhX",
"hXhXhXhXhXhXhXhXhXhXhXhXhXhXhXhXpXhXpXgXpX) M s & _ 3.-.<.S.;XgXhXhXhXhXhXhXhXhXhXhXhXhXhXhXhXhXhXhX",
"hXhXhXhXhXhXhXhXhXhXhXhXhXhXhXhXhXaXhXfX&Xu C 0 1 R *.e.-.T.hXpXhXhXhXhXhXhXhXhXhXhXhXhXhXhXhXhXhXhX",
"hXhXhXhXhXhXhXhXhXhXhXhXhXhXhXhXhX>XhXfXY.y C o p 7.*._ r.OXfXsXhXhXhXhXhXhXhXhXhXhXhXhXhXhXhXhXhXhX",
"hXhXhXhXhXhXhXhXhXhXhXhXhXhXhXhXhX>XgXpXX.N d X _ <.,.I B.0XdXhXhXhXhXhXhXhXhXhXhXhXhXhXhXhXhXhXhXhX",
"hXhXhXhXhXhXhXhXhXhXhXhXhXhXhXhXhX6XsXXX/ C 2 * :.u.U L I.sXgXhXhXhXhXhXhXhXhXhXhXhXhXhXhXhXhXhXhXhX",
"hXhXhXhXhXhXhXhXhXhXhXhXhXhXhXhXfX0X0X).V  .O 8 ,.N.U W Y.gXhXfXhXhXhXhXhXhXhXhXhXhXhXhXhXhXhXhXhXhX",
"hXhXhXhXhXhXhXhXhXhXhXhXhXhXhXhXsXgXgXn.A ^ o d Y | =.#.OXfXhXqXhXhXhXhXhXhXhXhXhXhXhXhXhXhXhXhXhXhX",
"hXhXhXhXhXhXhXhXhXhXhXhXhXhXhXhXpXgXhXO.B s . _ I { } 5.*XhXhXaXhXhXhXhXhXhXhXhXhXhXhXhXhXhXhXhXhXhX",
"hXhXhXhXhXhXhXhXhXhXhXhXhXhXhXhXhXgX6X[ F 2 . w.L { ;.B.;XhXhXsXhXhXhXhXhXhXhXhXhXhXhXhXhXhXhXhXhXhX",
"hXhXhXhXhXhXhXhXhXhXhXhXhXhXhXhXsXgX|./ } # # f.*.e.:.G.qXhXgXsXhXhXhXhXhXhXhXhXhXhXhXhXhXhXhXhXhXhX",
"hXhXhXhXhXhXhXhXhXhXhXhXhXhXhXhXpXgX).C { . 8 z.8.i.s.E.fXhXaXhXhXhXhXhXhXhXhXhXhXhXhXhXhXhXhXhXhXhX",
"hXhXhXhXhXhXhXhXhXhXhXhXhXhXhXhXfXhX/.B /   i j.f.a.4.Q.gXhX0XhXhXhXhXhXhXhXhXhXhXhXhXhXhXhXhXhXhXhX",
"hXhXhXhXhXhXhXhXhXhXhXhXhXhXhXhXhXfXI.B ^ o ! 7.i.f.4.`.fXgX6XhXhXhXhXhXhXhXhXhXhXhXhXhXhXhXhXhXhXhX",
"hXhXhXhXhXhXhXhXhXhXhXhXhXhXhXhXhXfXv.x [ - v.7.i.f.4.'.fXhX4XhXhXhXhXhXhXhXhXhXhXhXhXhXhXhXhXhXhXhX",
"hXhXhXhXhXhXhXhXhXhXhXhXhXhXhXhXuXpXP.| F D g.:.R U B.'.sXhXhXhXhXhXhXhXhXhXhXhXhXhXhXhXhXhXhXhXhXhX",
"hXhXhXhXhXhXhXhXhXhXhXhXhXhXhXhXhX;Xb.M g g ,.3.g.e.S..X9XyXeX<XpXiXgXhXhXhXhXhXhXhXhXhXhXhXhXhXhXhX",
"hXhXhXhXhXhXhXhXhXhXpXhXhXpXpXgXiX+XX.V c b r.w./ ) +.~.1XeXiXpXgXiXgXpXhXpXhXhXhXhXhXhXhXhXhXhXhXhX",
"hXhXhXhXhXhXhXhXpXgXgXiXiX<XiX<XrX#XJ.o.w 0 ; - % : ~ #XhXhXhX0XhXhXhXhXhXhXhXhXhXhXhXhXhXhXhXhXhXhX",
"hXhXhXhXhXhXhXhXiXgXpXiXiXiXiXiXgXdX$X#X].[.].].-X X%XpXfXdXhXsXhXhXhXhXhXhXhXhXhXhXhXhXhXhXhXhXhXhX",
"hXhXhXhXhXhXhXhXpXhXhXhXhXhXhXhXgX0X=X+X#X#X=X5X2X#X5XhXhXfXhXiXhXhXhXhXhXhXhXhXhXhXhXhXhXhXhXhXhXhX",
"hXhXhXhXhXhXhXhXhXhXhXhXhXhXhXhXhXsX7X7X=X2X2X7XpX2X5XsXhXgXhXsXhXsXgXhXhXhXhXhXhXhXhXhXhXhXhXhXhXhX",
"hXhXhXhXhXhXhXhXhXhXhXhXhXgXpXgXhXfXpXpXtXtX9XsXsX8XqXsXhXhXhXgXhXhXhXhXhXhXhXhXhXhXhXhXhXhXhXhXhXhX",
"hXhXhXhXhXhXhXhXhXhXhXhXhXhXhXhXhXsXhXhXpXpXhXhXhXhXsXhXhXhXhXhXhXhXhXhXhXhXhXhXhXhXhXhXhXhXhXhXhXhX",
"hXhXhXhXhXhXhXhXhXhXhXhXhXhXhXhXhXhXhXsXgXsXgXhXsXsXhXhXsXhXhXhXhXhXhXhXhXhXhXhXhXhXhXhXhXhXhXhXhXhX"
};
