/* XPM */
static char *_7984_257290c0149448a35380ceca6245afda656ac4330207ca85996fe2a9bae0cfa1[] = {
/* columns rows colors chars-per-pixel */
"50 50 252 2 ",
"   c #170400",
".  c #160D00",
"X  c #270B00",
"o  c #261604",
"O  c #371701",
"+  c #2B170D",
"@  c #352805",
"#  c #342D09",
"$  c #382E2A",
"%  c #2C2723",
"&  c #461F03",
"*  c #452802",
"=  c #473701",
"-  c #563703",
";  c #4E3310",
":  c #633901",
">  c #663F14",
",  c #4D372D",
"<  c #564712",
"1  c #54490B",
"2  c #6A4D07",
"3  c #6F5011",
"4  c #796213",
"5  c #4E4630",
"6  c #6C512C",
"7  c #7B6639",
"8  c #4C484A",
"9  c #746B53",
"0  c #715F5E",
"q  c #8C550D",
"w  c #986506",
"e  c #956519",
"r  c #98741B",
"t  c #926D15",
"y  c #A46609",
"u  c #A87404",
"i  c #BB7A02",
"p  c #B6790A",
"a  c #A9791A",
"s  c #BC7D1B",
"d  c #B67A17",
"f  c #AB6D14",
"g  c #8B672C",
"h  c #9B7627",
"j  c #8C7937",
"k  c #977937",
"l  c #926E2D",
"z  c #A87829",
"x  c #B67928",
"c  c #A67837",
"v  c #A66A24",
"b  c #855121",
"n  c #C57809",
"m  c #C37E19",
"M  c #C77B16",
"N  c #8E7546",
"B  c #887465",
"V  c #B07E63",
"C  c #BA8605",
"Z  c #BC8414",
"A  c #B98819",
"S  c #B28915",
"D  c #9C8431",
"F  c #AA8627",
"G  c #BB8C24",
"H  c #B68827",
"J  c #BB932B",
"K  c #A98637",
"L  c #B4893A",
"P  c #AD9237",
"I  c #BA9837",
"U  c #BFA133",
"Y  c #C6860A",
"T  c #C48B13",
"R  c #CA821B",
"E  c #C78817",
"W  c #C99417",
"Q  c #D1961A",
"!  c #CA8C22",
"~  c #C78B27",
"^  c #CC9323",
"/  c #CC9B25",
"(  c #C79529",
")  c #D59828",
"_  c #C99939",
"`  c #D49A34",
"'  c #C88B35",
"]  c #CEA42B",
"[  c #D1A229",
"{  c #CAA538",
"}  c #D4A638",
"|  c #D5B33B",
" . c #D8B93D",
".. c #CFB13F",
"X. c #E3A939",
"o. c #9C8B5A",
"O. c #B68C47",
"+. c #AD9643",
"@. c #B79746",
"#. c #B38A54",
"$. c #B89756",
"%. c #A78C51",
"&. c #BDA956",
"*. c #928E74",
"=. c #AA9768",
"-. c #B09572",
";. c #BBAF70",
":. c #C69D49",
">. c #D79C46",
",. c #C29C5B",
"<. c #C9A646",
"1. c #D6A949",
"2. c #CBB34A",
"3. c #D8B649",
"4. c #C9A958",
"5. c #D5AE51",
"6. c #D9AA55",
"7. c #CEB454",
"8. c #D4BB53",
"9. c #D8B758",
"0. c #E8B749",
"q. c #E5BA58",
"w. c #EAB14E",
"e. c #C39C64",
"r. c #C9AA64",
"t. c #C9B668",
"y. c #D8B866",
"u. c #C5AC75",
"i. c #CAB678",
"p. c #D6B877",
"a. c #E3BC6A",
"s. c #E3B972",
"d. c #E1AF70",
"f. c #D8C54A",
"g. c #DAC457",
"h. c #CEC248",
"j. c #E5C55A",
"k. c #E8D55A",
"l. c #DCC364",
"z. c #DAC568",
"x. c #D8C775",
"c. c #DED673",
"v. c #E3CC6B",
"b. c #E6C966",
"n. c #F2C766",
"m. c #E8D469",
"M. c #EBCD74",
"N. c #E6C77A",
"B. c #E4D37B",
"V. c #EDD57B",
"C. c #ECDB7C",
"Z. c #E8D775",
"A. c #F5D97C",
"S. c #F2D86C",
"D. c #F3E378",
"F. c #AC988D",
"G. c #B5A884",
"H. c #B1AD97",
"J. c #A39997",
"K. c #D7B987",
"L. c #CBBB96",
"P. c #C8B088",
"I. c #CCB4A2",
"U. c #E0B5A2",
"Y. c #DBC988",
"T. c #DED38A",
"R. c #D9CA97",
"E. c #E4C689",
"W. c #E3D484",
"Q. c #EBD483",
"!. c #ECDB84",
"~. c #E4D58C",
"^. c #ECDC8B",
"/. c #E8D889",
"(. c #F3DC85",
"). c #F2DD89",
"_. c #FADB86",
"`. c #E9CD9A",
"'. c #E8D998",
"]. c #F8DD91",
"[. c #ECE288",
"{. c #F2E185",
"}. c #F3E28C",
"|. c #F7E689",
" X c #F3E393",
".X c #FEEA95",
"XX c #F9E797",
"oX c #F6EB94",
"OX c #DCC6A6",
"+X c #DAD3B7",
"@X c #CEC3B5",
"#X c #E9C9A5",
"$X c #ECDBAB",
"%X c #E5D9A5",
"&X c #F6DBA8",
"*X c #E8DDB5",
"=X c #F2DAB4",
"-X c #ECE1A8",
";X c #FCE7A7",
":X c #FDF3A9",
">X c #EDE4B9",
",X c #FAE6B6",
"<X c #FFF3B9",
"1X c #D6D1CC",
"2X c #FBDACC",
"3X c #ECD5CC",
"4X c #FEEBC3",
"5X c #F8E9C8",
"6X c #FFF4CB",
"7X c #FFFCCD",
"8X c #FAF4C3",
"9X c #EAE5D9",
"0X c #FAEBD7",
"qX c #FDF3D4",
"wX c #FFFCD3",
"eX c #FEF5DB",
"rX c #FFFBDB",
"tX c #F4F4DA",
"yX c #EBFAD9",
"uX c #DFDFE9",
"iX c #EAE9E5",
"pX c #FDECED",
"aX c #F5EBE7",
"sX c #ECF3EC",
"dX c #EEFDEC",
"fX c #ECF8E5",
"gX c #F2F3E6",
"hX c #FDF4E4",
"jX c #FFFCE3",
"kX c #F4F4EC",
"lX c #FDF5EC",
"zX c #F3FCEB",
"xX c #FEFCEC",
"cX c #F0FEE5",
"vX c #EDEDF4",
"bX c #EBEBF9",
"nX c #F3EEF4",
"mX c #FBEDF5",
"MX c #F7ECF9",
"NX c #EDF4F2",
"BX c #EDF2FE",
"VX c #ECF9FC",
"CX c #EBF9F5",
"ZX c #F6F6F6",
"AX c #FCF5F3",
"SX c #F4FAF4",
"DX c #FDFCF4",
"FX c #F5F5FC",
"GX c #FBF5FC",
"HX c #F5FBFD",
"JX c #FCFBFD",
"KX c #DFEAE4",
/* pixels */
"GXFXFXFXSXdXcXcXdXCXVXFXJXFXFXFXBXVXCXyXyXqXxXGXMXGXDXjXhXgXzXkXkXAXkXlXAXSXSXSXVXVXBXVXGXmXmXAXAXZX",
"MXGXGXZXSXzXdXdXdXSXSXVXFXFXGXMXHXSXcX7X7X7X6X0X2X2X2X2X<X6XrXjXxXxXxXhXhXgXkXSXHXHXVXBXZXAXAXpXAXSX",
"GXGXFXFXSXSXSXSXsXGXJXAXhXlXxXxXeX,X/.l.2._ K c c c v z K K O.$.t.Y.,X7XrXhXlXAXvXFXFXHXZXkXlXxXAXSX",
"SXSXSXSXSXSXFXSXDXpXaXhXjXwX$Xi.#.L a u u u p Z f s d f f f d z F D h $.E.4XeXhXlXZXFXHXDXsXfXDXSXFX",
"zXzXzXSXFXFXGXGXpXAXjX5X`.i.+.r x x p n i i C i p n n n n n M M w S S a r c p.,XjXxXlXgXzXHXHXdXSXZX",
"cXzXzXSXFXGXGXGXpXpX6XE.@.r u A f M n Y Y C Y C i i i i n n n n n C p Z H H c %.K.,XjXhXgXHXVXCXGXGX",
"dXdXSXSXAXGXmXmXpX#X$.K H ~ A T R Y Y C C C C S G S Z C Y M M n E T T T Y Z S S r t.,XrXxXNXVXVXFXSX",
"dXdXSXZXGXAXpXeXP.#.c H G T Y T Y E T A J I +.+.+.P K H G ~ ! R R R Y T T T W W ( F 4.,XxXFXBXHXHXGX",
"VXVXHXFXmXlXhX-.k L ' ( W ^ Q E ~ G I 4.=.7 # @ o # # X O : e ' ' ) ! E T W W Z / ~ O.u.jXAXFXFXFXGX",
"VXHXFXvXAX0X#XN L _ } ^ Q / ) ^ ( <.O.6 # + % 8 8 $ + X X O - e d ^ ` / ( ( / W ^ _ ' e.5XpXGXFXFXZX",
"VXHXFXnXDX0Xo.g <.} / / / ) ` ` { J c o.L.9XSXJXHXDXgX+X-.7 2 2 w Z } _ I { _ _ ( >.>.#.#XqXDXkXGXZX",
"BXFXFXFXDXU.6 k 5.{ [ [ [ ` _ 1.} I r.&XlXGXJXHXsXHXZXxXlX4Xp.e w p ` <.<.<._ <._ 6.>.,.K.0XxXkXSXSX",
"VXHXFXGXlXB O c 9.1.] | | 1.<.5.{ 4.#XhXGXMXMXFXNXJXFXnXAXlX2XO.v n ` <.7.7.<.7.1.5.6.4.K.qXgXDXSXGX",
"ZXSXDXGXpX5 X c a.1. . .3.3.5.7.7.p.=XhXmXGXJXNXsXJXJXJXnXpXlX#Xf y >.1.7.8.&.8.5.1.y.r.K.qXgXSXSXSX",
"zXgXDXAXpX, O b a.q.3.3.3.9.9.t.4.i.=XlXaXNXSXdXdXdXKXJXGXGXDX#Xq y 6.9.7.z.2.h.f.3.q.t.Y.jXNXHXHXFX",
"SXkXJXAXpX, & & p.a.q.8.8.g.l.z.B.u.R.hXxXSXdXfXcXSXNXJXnXvXDXOX: y a.q.8.m.h.f.f.9.v.t.G.DXZXHXGXZX",
"JXBXbXJXmX0 & & $.s.b.q.b.b.g.v.g.x.Y.$XqXxXSXZXFXvXJXGXaXxXqXo.k A.n.3.k.k.f.g.k.C.Y.=.*XDX1XJXZXSX",
"BXHXJXMXaXI.O ; : d.].y.b.A.b.g.m.v.z.Y.%X5XhXDXJXZXJXxXqXeX,Xu.Q.z.g.S.k.h.k.m.&.-X;.H.hXDXJXiXSXGX",
"FXFXJXpXaXhX6 + X g E.].N.x.M._.k.m.z.x.T.%X>X5XeX0XrXwX,X%X'.Y.C.C.S.c.k.l.Z.x.,XR.9 yXDXgXgXDXZXGX",
"HXvXSXDXAXAXI.# *   > K.&XQ.Q.M.k.m.m.Z.T.T.Y.R.%X$X-X-X'.T.Y.!.l.m.c.D.(.B.~.,XG.6 AXSX9XJXsXkXZXSX",
"zXfXDXDXlX9XDXI.+ O X * =.;X;X].D.D.S.m.c.[././.T.'.^.W.[.!.c.C.oXm.D.c.c.:XOXo.0 JXaXMXJXJXdXSXSXZX",
"fXDXgXzXSXZXJXJX1X$   O X < i.E.Z.D.Z.Z.D.{.(.(.C.}.^.B.[.|.[.C.c.D.c.[.:Xo.$ F.JXGXGXbXJXNXDXSXSXGX",
"yXDXiXdXJXJXuXHXJXaXB . o @ - 4 z.W.[.!.{.|.(.C._.{.(.!.}.{.[.[.oXc.oXt.= 6 OXxXaXGXMXJXvXHXCXCXAXFX",
"gXDXkXHXFXbXHXFXZXAXDX3XN 1 6 k x.~.oX^.^.(.(._.|.(._.|.).^.}.|.[.[.oX;.;.<XwX9XxXkXDXZXFXFXHXHXGXSX",
"kXSXFXFXFXBXbXJXFXxXjX0X%X~.'..XXX X'. X XV.C..X_._.(.!._. XXX}.oX[./.-XoX-X%X%X5XtXxXDXZXSXFXJXZXZX",
"JXFXZXZXFXJXJXiXxXeX5X-X&X'.).}.'. X X^..X:X X}..X.XXXoX X_.(.(.^.}.oXoX XT.'.'.-X%X8XyXDXGXFXFXFXDX",
"JXBXGXJXZXkXDXhXqX>X%X'. X}.[.!.oXx.'.oXx.~.:X[.D 4 7 z..X_.(..X!.}. X^.[.!.[.[.[.T.'.8XjXDXHXGXFXZX",
"FXGXJXGXlXhXrX6X-X-X'.).!.B.!.{.B.oX[.[.:Xi.1 o o 1 2 2 4 +.s._.}.}.).B./.oX|.C.[.W.T.-X5XhXAXGXGXSX",
"BXJXAXiXxXrX,X'.~.!.).{.Z.B.B.C.B. X:X;.1 @ 9 H.+X-.7 6 - * 3 z v.V._.V.V.(.C.m.c.D.[.T.%X5XhXAXGXDX",
"GXGXDXxXqX`.i.W.A.M.Z.V.C.Z.B.B./.W.j 1 *.tXcXDXDXDXhXI.N > : : P 7.V.A.V.M.V.M.m.Z.C.T.`.*X5XhXSXZX",
"GXiXDXjXL.$.t.A.S.k.j.m.Z.V.B.E.XXN o.tXxXZXFXBXFXbXMXGXpXU.V l r I b.n.M.M.M.A.M.m.B.!.~.R.=XeXxXZX",
"GXpXjX%Xl I A.b.b.n.m.m.b.b.M.~.;.G.qXxXiXBXFXbXFXJXGXmXAXmX2XK.@.{ 9.a.M.M.N.N.A.z.l.B.c.i.`.qXlXFX",
"JX0XwX$.F j.n.q.n.M.v.j.j.j.n.s.-.dXsXsXHXBXHXBXFXFXFXFXSXSXxXeXK.6.<.0.n.n.N.s.N.s.g.k.v.z.K.5XDXJX",
"GX0X<X<./ 0.w.q.a.a.z.g.j.q.w.a.L.DXSXDXJXZXJXBXJXHXFXHXZXSXSXjX4Xd.J _ 0.j.a.a.s.b.f. .g.x.u.3XAXJX",
"AXeX,X<.` X.w.w.a.y.9.8.9.3.q.a.R.eXtXtXxXaXGXZXFXnXNXZXZXSXlXhXlXe.r G  .0.q.q.q.0.3.| 9.p.-.3XDXHX",
"mXlX;X:.` X.X.w.6.9.7.7.2.3.6.y.Y.6XwXqXjXgXDXDXFXGXHXJXJXDXAXpXeX%.t J |  .q.1.3.3. . .8.K.-.3XDXDX",
"pXlX=X:.~ ) w.w.1.1.2.2.2.2.2.4.p.,X7XrXjXhXAXZXFXGXJXGXGXMXAXlX6X$.F .. .| 1.1.6.} |  .7.&.-.0XAXGX",
"pXhX4X:.x ! ) X.} 1.<.<.....<.<.$.Y.,X6XrXjXDXSXFXFXFXMXmXAXGXxX&X7.U | } ] >.6.1.{ { 2.2.$.G.jXAXSX",
"GXaXqXr.x x E X.` } { ] ] { { { :.r.E.$X5XeXxXJXJXGXDXSXGXlXpX6Xy.{ ( ] [ ) ` >.>.:.{ U &.%.$XjXAXZX",
"JXaXrXK.z d p ) ) ) / ( ( ( ] ( { L @.$.u.R.*X>XqX0X0X6X4X=XK.$.I ( ] W Q [ ) ` >._ ..P &.=.rXxXSXSX",
"nXGXxX=X,.v f m R Q ) ! ! Q Q T Q Q Q ( J P P @.+.+.@.@.I P J ( ~ ~ E Q Q Y R ) ! J I K o.>XDXBXGXSX",
"JXsXlXjX`.c w d R R m M R ! Q W Y Y Y W T A G G J J ( G T A T E ^ ! W E W E E d G 6.D j %XxXiXHXFXSX",
"JXZXpXxXeXE.L w f s ~ ` ! s i n M M M R ! R ~ ' A A m m m M Y R p R E Z M ~ ' >.L 2 k ,XjXxXJXBXZXGX",
"ZXHXMXaXlXrX`.L v e v x x x ~ ^ R R M Z M d M M M ! R M R R M d E H s x L O.c g 3 o.=XjXgXiXHXJXGXZX",
"nXZXGXJXAXjX4X,X#.l b 6 b b e y S C S C p C p p p i p M A Z s d F P P O.j 6 ; , I.lXlX9XDXJXgXsXZXZX",
"AXkXFXGXGXkXrXrXrX#XV 6 & O * - 1 4 t F F H G H H H H F h k h r t 2 O   . , H.GXDXpXJXJXgX9XDXJXDXFX",
"lXAXFXbXFXHXzXtXtXjXAX2XH.9 ; @ # # # # = = - - * * O X           . 5 *.1XDXDXZXsXSXvXiXGXJXJXaXGXSX",
"xXDXGXGXVXZXSXxXzXlXAXmXGXDX9X+XH.*.9 5 5 $ # o o o + + $ 8 0 J.@X9XDXHXJXHXSXdXHXCXZXHXJXMXMXGXFXAX",
"ZXZXGXZXFXZXSXDXDXSXFXZXZXAXAXDXJXJXDXZXgXiXiX9XiXiXaXAXAXJXJXJXCXSXZXZXZXZXSXSXSXFXSXSXGXGXFXGXZXSX",
"AXFXSXGXGXSXZXZXZXZXZXZXZXZXHXDXkXZXZXZXZXSXHXDXGXDXGXSXGXSXsXZXHXZXSXZXZXZXSXGXSXGXZXGXSXSXSXFXSXGX"
};
