/* XPM */
static char *c6f6e1ee7dc441dcf41fd4bd5a5bc688kRaV8UC3GA8DtVO3[] = {
/* columns rows colors chars-per-pixel */
"50 50 240 2 ",
"   c #3C1B1C",
".  c #4C141A",
"X  c #441D1D",
"o  c #4C1E1D",
"O  c #54161B",
"+  c #58171B",
"@  c #531F1E",
"#  c #5B1A1C",
"$  c #650F05",
"%  c #641E16",
"&  c #631B1C",
"*  c #6B1E1D",
"=  c #46231E",
"-  c #4D211C",
";  c #56261B",
":  c #54211E",
">  c #5B231E",
",  c #6A2B16",
"<  c #64251E",
"1  c #6A251E",
"2  c #65291D",
"3  c #6B2A1E",
"4  c #722C15",
"5  c #7D2F15",
"6  c #73231E",
"7  c #7A261D",
"8  c #742B1D",
"9  c #7A2B1E",
"0  c #6F311D",
"q  c #7C3315",
"w  c #75311C",
"e  c #7C331D",
"r  c #7B3A1F",
"t  c #551F20",
"y  c #572120",
"u  c #5D2220",
"i  c #652420",
"p  c #6B2521",
"a  c #672820",
"s  c #6D2920",
"d  c #732622",
"f  c #7B2621",
"g  c #742A21",
"h  c #7B2B21",
"j  c #773120",
"k  c #7C3121",
"l  c #821B05",
"z  c #9A2809",
"x  c #9A360E",
"c  c #8A2E13",
"v  c #832B18",
"b  c #822C1D",
"n  c #8B2D1D",
"m  c #992F13",
"M  c #942E1D",
"N  c #8B3315",
"B  c #84331E",
"V  c #8B321C",
"C  c #863919",
"Z  c #933514",
"A  c #9B3515",
"S  c #943D14",
"D  c #9D3B13",
"F  c #93341C",
"G  c #9B341C",
"H  c #943A1C",
"J  c #9B3919",
"K  c #A82605",
"L  c #B42C04",
"P  c #AA380D",
"I  c #B73809",
"U  c #A53B14",
"Y  c #AB3B14",
"T  c #A3351B",
"R  c #A83518",
"E  c #A43C1B",
"W  c #AC3B1B",
"Q  c #B43C14",
"!  c #BC3D14",
"~  c #B6371B",
"^  c #B33D1A",
"/  c #BB3B1B",
"(  c #832621",
")  c #892723",
"_  c #832C22",
"`  c #8B2C23",
"'  c #932C22",
"]  c #9A2E23",
"[  c #843221",
"{  c #8B3222",
"}  c #843B21",
"|  c #933323",
" . c #9C3323",
".. c #943A21",
"X. c #9B3C22",
"o. c #A32F22",
"O. c #A33324",
"+. c #AA3424",
"@. c #A43C23",
"#. c #AA3B24",
"$. c #B73A22",
"%. c #CA3A06",
"&. c #D73E04",
"*. c #C23D14",
"=. c #C23D1C",
"-. c #C73D23",
";. c #89491D",
":. c #95441D",
">. c #9A461A",
",. c #9F551C",
"<. c #A7420E",
"1. c #B4420C",
"2. c #BA430C",
"3. c #BE480B",
"4. c #B7570F",
"5. c #A34114",
"6. c #AA421D",
"7. c #A94819",
"8. c #B34412",
"9. c #BB4312",
"0. c #B24F14",
"q. c #BC4D15",
"w. c #B4441B",
"e. c #BC441C",
"r. c #B44E1D",
"t. c #BD4D1B",
"y. c #A95518",
"u. c #B85617",
"i. c #B76519",
"p. c #B56D19",
"a. c #874320",
"s. c #8F4521",
"d. c #954621",
"f. c #9D4322",
"g. c #AC4423",
"h. c #A24822",
"j. c #AE4B22",
"k. c #B54524",
"l. c #B44A22",
"z. c #A95820",
"x. c #BE5421",
"c. c #B35A20",
"v. c #C5470B",
"b. c #C3450D",
"n. c #CB450B",
"m. c #CC4B0C",
"M. c #D74606",
"N. c #D44B0C",
"B. c #DB4C0B",
"V. c #C8580C",
"C. c #DD5B06",
"Z. c #D1540A",
"A. c #DC530C",
"S. c #D55B0B",
"D. c #DA5808",
"F. c #C54414",
"G. c #CC4412",
"H. c #CB4B14",
"J. c #C8461A",
"K. c #C34A1C",
"L. c #D54416",
"P. c #D34C12",
"I. c #DD4A14",
"U. c #C45314",
"Y. c #C65D16",
"T. c #C85913",
"R. c #C6561B",
"E. c #D45412",
"W. c #D65A14",
"Q. c #DB5B12",
"!. c #D5571B",
"~. c #E34C06",
"^. c #E94B06",
"/. c #E34E0C",
"(. c #E25306",
"). c #ED5505",
"_. c #EB5C04",
"`. c #E35209",
"'. c #EC530A",
"]. c #EE560C",
"[. c #E45C0A",
"{. c #F35504",
"}. c #F55904",
"|. c #FD5B01",
" X c #F35F09",
".X c #E34B13",
"XX c #C8670D",
"oX c #DA640C",
"OX c #D4690B",
"+X c #D9680B",
"@X c #D9740B",
"#X c #C86618",
"$X c #D46514",
"%X c #DC6913",
"&X c #D86819",
"*X c #C67513",
"=X c #D97A15",
"-X c #E26906",
";X c #E96807",
":X c #E2640E",
">X c #F36304",
",X c #F56C04",
"<X c #FD6B02",
"1X c #F36D09",
"2X c #E8770B",
"3X c #F77603",
"4X c #FB7C02",
"5X c #C44A22",
"6X c #C65A21",
"7X c #D55821",
"8X c #CF6520",
"9X c #DB7322",
"0X c #E77621",
"qX c #DA820D",
"wX c #DE930D",
"eX c #D68211",
"rX c #E98808",
"tX c #EE8C0A",
"yX c #F38506",
"uX c #F98203",
"iX c #F58A07",
"pX c #FD8C02",
"aX c #ED9406",
"sX c #EA9909",
"dX c #F39404",
"fX c #FB9402",
"gX c #FB9C03",
"hX c #F49A09",
"jX c #E28512",
"kX c #EB8B13",
"lX c #F28610",
"zX c #FDA302",
"xX c #F6AC06",
"cX c #FDAB02",
"vX c #F8A708",
"bX c #FEB401",
"nX c #FEBB02",
"mX c #F3A212",
"MX c #FEC502",
"NX c #FFD103",
/* pixels */
"> i i i u u < g d g 3 U F [ h s s s s p p a i 9 9.g g h h h h _ _ _ g d F 3 > > : < M ; = - y > > 2 ",
"i 2 3 p i > 1 g g < > H [ [ _ h h h h h d p d d R n { { { { _ { { | ` h U 9 p > < R M.; : > u > u 0 ",
"s s g 3 < : 6 < : > 6.K.{ h p p p p s d d f b M A.S.r.g.| _ h _ '  .` Q N.9 p 1 P L n.< i a i a a 0 ",
"g h h 3 @ # M < 9 4.dX2XK. .` f f f d ( R n.n.B.,XfXgXjXl.` f ( ` ' ! M.~.n ) ! K $ z 5 a 3 d 8 g k ",
"_ g i o @ M *.N.@XcXhX#Xe./ *./ / ~ / B.n.v > < q y.@XrX2XH./ / *.&.K K ^.B.I.^.%.K %.P < g h k h [ ",
"u O t * M *.L D.cXmXu...f f b M Q P.}.2.i y t o - ; 0 w C <.N.}.|.&.%.%.%.P z m m z I v.4 h h h g j ",
"o u 7 R B.n.2.+XiXu.| f d p p p p f n.T i u t @ - - : - X X - 5 n.n.c # . . . . . O O % v i 2 > : : ",
"f M Q ^.U 6 [ >.U.{ d * p p p i p i v 8.p i i > : : o o o o X X , % . o . . O O O + O # c 9 i 2 2 j ",
"F.M.L P i p h { W d d p i i i i i p p 8.9 d p i < < u : : : : o # + O O O # + + # # # * v 8.| ..X.#.",
"q.U c 1 s h ( ' A p p i i i i i p s i U E g h g g d d p a u u u > + O # # # & & & & * 6 b U.W.R.W.[.",
"0 > @ # h { { Y J p i p p 3 3 p s 8 8 8.S.{ _ [ _ _ _ h h g s p 1 & & & % * & * * * 8 b V q.uXgXiX4.",
"k 3 < > _  .X.E.6.h p p p s s d s 2 B @XgXT._ _ | { { { { _ h h 6 * & * * 6 * 6 6 6 7 n | r.aXnX*X>.",
"} g p i h X.6XlXu.{ h d 3 g 8 < - 4 T.gXaXyXt.( k ..@.f. .{ _ d n v & 6 6 7 f 7 ( f ) ' X.g.=XtXu.f.",
"{ h d g { l.kXMX=Xf.8 > > > o o 7 m.3Xu.X.5.D.J.h.h.h.h...[ ` @.N.Y 1 7 ( 7 ) ) ) ) n '  .@.U.u.h.f.",
"{ h h f E 2XcXMXvXOXU 3 > # 6 m ~.}.J h B e 0.uXkXjX8Xx.k./ H.N.M.N.n b ) ` ' ' ' ' '  . .@.w.8...f.",
"| [ _  .[.+X&X9X&X:X4X>X(.S.N.%.~.(.f g r ;.jXbXMXcXfX1X'.}.~.v.2.C.V.' n ' ] ] ] ]  .] O. .E 9.{ f.",
"` ) M N.3.k f.l.j.$X4X`.N.oX3X%.&.(.e w ;.p.bXnXrXi.7.W 9.`.}.;X-XdXdXw.` ' O.O.+.O.O.O.O.O. .F.{ | ",
"' o.N.).8 > 8 C q.uXE.' _ ( v.>X>X;X:.r y.tXdXi.d.[ d p d 9 J q.$XjXfXoXG ( ] O.O.+.+.+.+. .' I.| { ",
"H.v.(.}.Z.S q 0.uX:XO.{ f d B -XcXzXOXT.,X+X>._ d p p p p p d h ..h.r.>XH.@.| ) ) ) ) ] ] ` ' `./.P.",
"-   = , <.Z.2XdXyXR.X.{ h s h XXbXdX3X<XH.[ d p p i & i i < p 3 h _ [ w.,XQ.k.o.] ' ' ]  .O.~ }.2.e ",
"        - w y.aXhXi.@.{ 8 3 < XXuX;X,XZ.h p i i i i u i i < p p s d k y.fXuX]./.-.-.5X-.5X!.1X<.- = ",
"o X   - ; 0 ;.p.jXtXu.B w 2 , -XM._.>XJ g p i i i a i p p p s p d g s.eXzXT.G F Y F.P.;XyXfX4.3 > ; ",
"> : - : > 0 C :.,.OX,XS 2 w V.[.P _.[.b p p i p p 3 s 3 s s d g 9 } p.zX#X{ p i i d | x.hXaX:.k a 2 ",
"a 2 < > > a j r B B m.D.4.rXgX,XD.,XoXB g p p 3 p p s s s p i a 3 y.aX=XX.h p < < 8 ` @.:X@X} h j g ",
"g d s p a 2 3 j g g B S.4X:XR.l.Y.2XqX,.} g s s s g 8 @ o o @ 1 5.yXzXq.{ f 3 i a s [  .Q.0.[ [ g k ",
"h k h g g i i a 8 h { F.H.| _ } s.*XbXp.s.k s s s a @   O 1 v I >X4XfX6.{ { [ g g g _ ' G.F [ ` _ } ",
"{ { _ _ f p : i h X.K.;Xw.k i 2 j ,.wXxXeX:.p : : : > 5 m ! ~.^.I I uXE.X.X.H } j s f ' B.n p f { | ",
"h h _ _ _ p p V w.&XaXzXr.[ i > 0 a.z.sXbXtX@XV.N.B.M.M.M.{.|.{.M.B.<X4X&X6Xl.H [ ( o.J.{.! ` d p g ",
"f 7 f d f M n.}.,XlXvXvXr.[ 1 > > 0 s.eXqXi.7.7.F.{.&.L %.{.{.F.F G t.lXbXmX0X7XJ.L..X`.B./.B.*.T F ",
"Q G R ! G.{.}.F.W k.$XyX6.[ 3 @ = > f.%XR.s.k j | [.}.{.).I 9 # i k X.#XmXNXvXiX1XH.T ` _ ` / {.{.A.",
"> < 9 U {.m.9 p h { e.>XX.h > o > 9 e. XE.H e B 6.3X3XA.H p u : y a { l.9XmXcX3Xg.h d 9 d g T B.D 8 ",
"d d g f B.v @ : > d E ).#.) h 9 V E 1.Y 8.5.6.r.%XpX!.#.} p : o - u j ..l.7XuX:X| k 8 d < i 9.N i g ",
"{ ( d O.N.p u : > i J {.J.#.{ 3 > - o o > 9 H #XgXvX8Xg.{ 8 > : - u a j | 5X1XQ. .h 3 < : p 9.9 _ | ",
"f ( O.I.9.d 2 a p d A }.F., o X X - o : 2 k ..c.sXnX9Xl...h 2 u u ; X y } !.3X[...d o X o V m.) ` { ",
"o.=.'.|.Q _ _ h k h 2.1.: X X o - - : > a e { z.=XcX=Xl.X.} g 3 2 > e D H.1X4XC.e._ 3 d | K.'.F ( | ",
"'.B.9.~.G.` [ _ h F v.: X o o : y y > u p j C ..Y.uX&Xk.@.| [ h 3 J ;X,X-X-XC.Z.A.K.K.F.F.F././.L.I.",
"n < u V ).F.#.@.w.[.C o : : > < i i i p 3 d g [ U.1X>X5X#.@.| h F [.C.C 2 3 9 B 5.}.G.E ` _ ' `.{.m.",
"u @ - : N D.1XlXpXOX< > < < i 3 s s s s d p 3 n 9.g.%XyX&Xx.j.r.oX@Xe i p 1 g d 9.^ ` ( f d d ! @.g ",
"y o - u i { $XnXbXy.g 2 s s d 8 g h g h g i p ` } } y.xXMXxXmXvXgXy.[ h f ( h b 9.] { ` _ d 8 Q f s ",
"y : : i d ..l.tXrXH k g g h h k h _ _ _ h i d ( 1 8 d.eXwXqXqXdXrXd.....| | ` O.W | | { _ h V R h d ",
"i < 3 g h | #.Q.V.9 h h _ _ _ { ` { { ` g i ( ' d d V S r { ..@.V.E X. .] ] ~ I.E _ | { ` 3 Y T ( g ",
"d 1 p 1 d ) O.=.2.3 _ [ { { { | | | ` h s f ] $.G F v > d [ | _ G G.+.~ =.F.3.>X5.t 9 B 9 N B.+.` } ",
"` ` ' ] +.$.-..X1.s { { | |  . .| h d h { #.-..X{.8.: > h | ` h #.3X,Xm.A 8 i 8.S.:   X Z Y E F.+. .",
"G.F.! *.*.L.'.<XV.d | | X. .| h i p g ..l.7X:X X|.Z @ < h [ f G *.,X8.p i p d 0.pXOXN x U f _ F.).P.",
": : : : > 1 v -XyXJ | | ` g p i i f  .5XjXmX2Xw.N.Z u p d h Y n.l n.c 6 h h ( E 3XV.T Q 2.n G A , , ",
"X X o o t @ u D pX*X{ h h g d f ` T J.1XcXxX6X| 8.U p d V Q B.&.L ~.Y f ) ` ( O.v.g d 9 B.m.4     = ",
"X X o o : u i g @X4XH.E h.O.O.+.! n.1.>.XXrXt.} 8.N.^ 9.U q > > c m.-X9.` _ M G.Y i 3 v 1.;       - ",
"X X o @ @ u > 1 A.E.Q.rX2X!.P.F.S ; - > 3 :.Z.H b.(.D 2 o X X X X o 5 V.N.n.N.Z.I > ; v -         = ",
"o o - : : u u V R | #.iXgX-X5.2 X o - : u > >.}.M.3 : y : : : : : : @ > Y x ; X ; c x 5       X X - ",
"- : : u u i < n h _ { oXXXH 3 < > > > > : y < m.v.< < p p p a a < < i i N ,     X : S ,   X X X = ; "
};
