/* XPM */
static char *_5496_eb791277a158e63596d3810f92343d2c7b935b0e58a2d884d26ab841aff77ec5[] = {
/* columns rows colors chars-per-pixel */
"50 50 255 2 ",
"   c #0B0200",
".  c #050800",
"X  c #120400",
"o  c #190A00",
"O  c #1A1100",
"+  c #180F0D",
"@  c #230800",
"#  c #2B1403",
"$  c #361A00",
"%  c #291312",
"&  c #3A2704",
"*  c #2F2601",
"=  c #332C2D",
"-  c #471600",
";  c #462703",
":  c #563C05",
">  c #4E3711",
",  c #6F3806",
"<  c #4C3827",
"1  c #633D2E",
"2  c #544313",
"3  c #755906",
"4  c #715515",
"5  c #7E640A",
"6  c #5C4221",
"7  c #6A5A27",
"8  c #6D4F2B",
"9  c #756539",
"0  c #71652D",
"q  c #575746",
"w  c #595758",
"e  c #68685B",
"r  c #8E550A",
"t  c #87670A",
"y  c #9B7718",
"u  c #906A11",
"i  c #A77608",
"p  c #B87907",
"a  c #A97616",
"s  c #B67915",
"d  c #A76811",
"f  c #977839",
"g  c #8D7031",
"h  c #A67A28",
"j  c #B57B27",
"k  c #A97C37",
"l  c #AC6C25",
"z  c #A05C16",
"x  c #CB7501",
"c  c #C47C0B",
"v  c #C87805",
"b  c #C47D13",
"n  c #CA7B1D",
"m  c #C57C18",
"M  c #CD7701",
"N  c #CB7C24",
"B  c #8B794D",
"V  c #A77942",
"C  c #8A7B71",
"Z  c #7E8068",
"A  c #BB8402",
"S  c #BE8A0C",
"D  c #BB8506",
"F  c #AB871D",
"G  c #B98819",
"H  c #B88D14",
"J  c #B78927",
"K  c #BC9227",
"L  c #AA8837",
"P  c #B88937",
"I  c #B89438",
"U  c #AC9033",
"Y  c #AA9835",
"T  c #C48B02",
"R  c #C5860B",
"E  c #C48B13",
"W  c #C78617",
"Q  c #D18A1B",
"!  c #C79117",
"~  c #D59419",
"^  c #C19206",
"/  c #C98B28",
"(  c #D28626",
")  c #C49324",
"_  c #CA9323",
"`  c #CC9B2A",
"'  c #C89629",
"]  c #D59927",
"[  c #C38B34",
"{  c #CC933C",
"}  c #C69936",
"|  c #D39838",
" . c #D78937",
".. c #CEA42B",
"X. c #D8A62B",
"o. c #CAA738",
"O. c #D7AC36",
"+. c #D5A73A",
"@. c #D2B23E",
"#. c #978954",
"$. c #A88946",
"%. c #B58644",
"&. c #B89749",
"*. c #A99759",
"=. c #B89A57",
"-. c #B08A5A",
";. c #BAA64E",
":. c #93896F",
">. c #AB9863",
",. c #B99869",
"<. c #B4A46E",
"1. c #C89B46",
"2. c #CF9B4A",
"3. c #CBA544",
"4. c #C8A54A",
"5. c #D4A441",
"6. c #D4AA44",
"7. c #D6AA4B",
"8. c #CBB349",
"9. c #DCB54B",
"0. c #D7B648",
"q. c #C7A758",
"w. c #D5AB57",
"e. c #CCB658",
"r. c #D6B757",
"t. c #E2BA4E",
"y. c #E3B95A",
"u. c #CBAA66",
"i. c #CBBC6B",
"p. c #CBB26A",
"a. c #D6BC67",
"s. c #C7B679",
"d. c #D6B778",
"f. c #D1AB73",
"g. c #E6BD67",
"h. c #E0AF6A",
"j. c #DAC459",
"k. c #E4C759",
"l. c #D8C869",
"z. c #DAC979",
"x. c #DED278",
"c. c #CFC57D",
"v. c #E5CD64",
"b. c #E3CD6B",
"n. c #E7C766",
"m. c #EAD46C",
"M. c #E8D267",
"N. c #F5DA6A",
"B. c #E5CA78",
"V. c #EBD574",
"C. c #E3D47C",
"Z. c #EAD67C",
"A. c #ECDB7C",
"S. c #E7D876",
"D. c #F3DB7C",
"F. c #F5D975",
"G. c #F6CE6C",
"H. c #F9E279",
"J. c #EEE27D",
"K. c #BBB698",
"L. c #B1AA91",
"P. c #B2ACA6",
"I. c #979388",
"U. c #C8B883",
"Y. c #D4BB84",
"T. c #C8B594",
"R. c #E3BC88",
"E. c #D1B7A2",
"W. c #D7C686",
"Q. c #D8CC97",
"!. c #DBD395",
"~. c #CFCE8D",
"^. c #E4CA87",
"/. c #ECDB84",
"(. c #EDDC8A",
"). c #E7D687",
"_. c #F2DD83",
"`. c #F1DE8B",
"'. c #F6D78A",
"]. c #ECDC91",
"[. c #E6D797",
"{. c #F4DB98",
"}. c #EDC998",
"|. c #EDE387",
" X c #F3E384",
".X c #F3E38C",
"XX c #F9E788",
"oX c #F3E392",
"OX c #FCEA93",
"+X c #F4E49B",
"@X c #F9E895",
"#X c #FEF092",
"$X c #E7E395",
"%X c #DDD2A5",
"&X c #D4CBAF",
"*X c #E7D8A7",
"=X c #F5DAA4",
"-X c #E9DCB9",
";X c #F8D8B4",
":X c #E6CAA4",
">X c #DDE1A0",
",X c #ECE3A5",
"<X c #F6E7A7",
"1X c #FBE8B8",
"2X c #EFEEBD",
"3X c #B4B7C0",
"4X c #B7C1CB",
"5X c #D0D1CD",
"6X c #EDD5C7",
"7X c #EDEBCD",
"8X c #ECE3C6",
"9X c #FEECC5",
"0X c #F9E6C8",
"qX c #FFF4C4",
"wX c #FFF3CB",
"eX c #FFFCC8",
"rX c #FAEDD4",
"tX c #F5EBD6",
"yX c #FEF4D3",
"uX c #FEFDD3",
"iX c #FEF4DC",
"pX c #FFFBDD",
"aX c #F4F3DC",
"sX c #E9EADB",
"dX c #E4DEE0",
"fX c #E9E8E7",
"gX c #F4EDEC",
"hX c #F8ECE7",
"jX c #EDF2ED",
"kX c #EDF9EB",
"lX c #FDF3E4",
"zX c #F3FCE4",
"xX c #FFFCE4",
"cX c #F5F3EC",
"vX c #FDF4EC",
"bX c #F4FAED",
"nX c #FEFCED",
"mX c #F3F5E2",
"MX c #EBEDF7",
"NX c #F4EDFB",
"BX c #F8EDF5",
"VX c #ECF3F4",
"CX c #EDFCF2",
"ZX c #EBF4FD",
"AX c #ECFBFE",
"SX c #E4FAFD",
"DX c #F6F6F6",
"FX c #FCF5F4",
"GX c #F4FAF3",
"HX c #FDFBF3",
"JX c #F5F5FC",
"KX c #FBF4FC",
"LX c #F4FBFD",
"PX c #FCFCFC",
"IX c #DDE2E5",
/* pixels */
"KXKXKXDXGXCXGXCXCXCXLXPXLXJXNXKXKXKXJXJXJXJXJXPXKXPXPXPXHXFXFXDXNXNXKXKXDXFXGXCXCXAXLXLXKXKXBXBXFXJX",
"KXKXDXDXLXGXGXCXLXGXjXcXKXKXKXBXHXHXvXnXnXlXiX0X-X6X8X6X0XrXpXnXKXPXFXhXlXvXFXjXCXLXLXZXJXKXKXPXFXFX",
"GXFXGXFXDXJXLXLXDXPXHXvXlXnXnXpXwX<X^.d.q.&.L l h h h k L $.=.,.Q.;XiXpXxXiXlXHXDXJXLXLXDXDXFXHXFXDX",
"zXbXbXGXLXJXJXJXBXFXvXlXxXuX=Xd.&.J a d d s p x p p s p a a a a h $.=.^.1XyXlXiXHXDXJXLXLXGXjXCXFXDX",
"zXzXbXGXJXKXKXKXgXFXvXrX[.s.$.y a s s c v v M x x M v v c s s p F i u a 2.R.;XlXlXvXgXFXCXCXCXCXLXDX",
"zXzXbXbXDXKXKXKXKXvX0XY.%.y i F p p p c v M R M M M v v v m m m A ^ ^ G l k f.;XiXlXHXnXbXCXCXCXGXDX",
"zXzXbXbXFXFXFXvXFX:X-.k U K G E ! ! T D p A S R b W W s c s b R T T A E J j k k }.0XlXxXkXGXCXCXLXDX",
"CXCXGXbXvXhXlXiX,.-.L P / G D E A S H ! K K I U I I } } ' / W E T T ^ E ! J P 1.V R.9XpXlXbXLXAXDXDX",
"SXLXjXmXnXyXwX>.$.P P ' _ ! E E ! ' J U ;.*.#.0 7 0 0 4 y P  ./ W ! R H ` _ J ' 1.%.d.wXxXhXJXLXDXFX",
"ZXLXfXHXiXuX>.&.&.} } ' ` ] _ _ G { 1.=.7 . . . . X o o @ - r [ / ] _ G ' ` K ) / [ 2.}.yXFXJXPXLXJX",
"JXZXPXvXiXs.5 &.} ` ` ` ` ` ' } 2.u.g : 8 P.IX4X5X3XC < % - , , [ 2.5.' } o.) ..] | I u.0XvXBXKXLXDX",
"JXNXPXlX%X: f 7.o.......} ..| 3.h.V ,.0XnXDXJXLXAXPXPXDXT.8 , z l | 2.2.o.o.o...X.O.{ 1.}.lXKXKXKXDX",
"KXKXhXlX7 ; 4.r.6.O.O.O.6.6.7.w.%.=.qXuXrXnXjXGXVXdXdXHXhX;X-.r z n 2.7.8.8.@.O.O.O.6.q.s.0XKXDXDXDX",
"BXFXlX:X$ g g.4.t.@.O.@.0.0.0.e.s.T.uXyXtXnXcXcXHXHXnX8XrXlX6XV z d  .y.r.8.8.8.@.O.t.r.s.&XnXGXDXDX",
"FXhXxXC : ,.G.w.t.t.9.0.0.r.r.i.<.5XGXbXcXHXHXFXfXvXFXHXHXcXfX-Xl d s w.g.e.r.0.0.t.y.w.i.Q.7XbXDXGX",
"FXnXiXB g u.g.g.y.y.y.k.k.j.j.i.K.PXJXPXPXfXPXcXKXKXJXgXDXPXKXlX%.r r 4.g.l.r.j.k.M.r.p.c.~.-XnXGXFX",
"BXFX0XB =.w.v.n.l.n.B.b.n.k.k.l.K.KXPXKXKXMXJXKXKXJXJXGXFXDXFXvXE.1 , k ^.a.l.k.v.k.b.l.l.~.%XnXHXFX",
"BXvX0X*.a.k.v.M.n.B.z.B.b.v.k.l.K.KXFXBXPXPXPXJXLXJXJXJXDXFXFXFX6X1 - u '.B.m.n.v.l.x.l.x.c.%XpXHXHX",
"vXhXwXs.Z.m.M.k.B.C.B.^.C.B.v.x.T.mXHXcXHXDXLXLXJXJXJXJXDXKXDXKXFX1 $ 2 '.B.F.b.M.b.S.x.x.x.Q.iXvXFX",
"vXmXwX[.XXH.M.N.V.Z.).).).).S.).~.7XpXxXzXkXjXLXLXZXLXJXLXJXFXcXHX8 $ 3 ^.).D.n.S.V.S.S.S.).Q.rXHXDX",
"HXaXuX,X#XH.N.N.F./.).).].).).).~.>X2XuXpXaXaXHXbXGXDXDXGXbXvXlXxXB : L ).'.Z.Z.S.S.(.A.S./.Q.8XnXHX",
"HXzXuX<XA.m.M.H.F._.'.].(.].].].$X~.>X2XuXpXmXnXcXGXHXFXGXnXnXxXpXU.$.l.).oXZ._././..XA.J.|.!.8XHXGX",
"kXzXuX$Xl.l.k.N.F._.'.`..X].(.$X,X!.-X-X7XxXvXFXJXKXKXKXFXFXDXmXuX*XC. X.X.X/./._.(..X(.|.|.!.-XHXLX",
"CXbXpX,Xa.r.k.H.F.F._.`..X.X.X.X$X[.2X!.&X8XtXvXvXFXvXlXlXrXtX8X-X[..X X.X(.@X`..X(.@X(.J.|.!.-XHXDX",
"AXcXpXqX[.w.r.n.XXF.F.F._.XXXXJ.|.|..XoX+X[.*X=X=X,X<X,X*X!.$X$X,X$XJ.J. X|..X`.(.@X].(.OX(.Q.-XHXHX",
"LXcXxXyX=Xd.w.r.n.V.XXOXXXV.V.F. X XA.Z./.(.`.oX+X].).(..X|.|..X!.+XJ.J.|.XX(.XX.XoX.X/.XX.XW.-XHXLX",
"JXJXvXxXwX}.d.4.4.).#XS.V.XXXXF. XD._.'..XOX.X`.Z..XOXA.S.|.J.x.<X).J.H.J._.XXZ. X/.|.(.|.oXU.8XHXPX",
"JXKXFXnXpX9XQ.f.z.p.i.J.XXD.D.'././.Z./._.D.Z.Z.OXZ.b. X XS.S.XX+X#Xv.Y b.#X XA._./..X$Xx.@X<.7XHXDX",
"JXKXFXvXlXiX0X*X<.U.<.<.p.'.@X`.`.(./.C.S.Z.D.H.b.S.A.S.x.S.$X#Xd.4 t j.XXJ.F.m. XZ.).(.x.$X<.tXHXDX",
"LXJXDXFXnXnXxXiX2XL.#.9 9 7 f f.^.[.,X@XoX).Z.Z.A.@X@X+X<X$X#.2 : =.M.v.M.M.v.H.F.V.Z./.x.$XK.xXHXDX",
"LXJXDXFXFXGXnXHXzX7XK.B 6 ; - $ * < 9 #.<.U.U.Y.s.*.#.9 < # 2 :.wX{.N.N.v.F.H.j.m.V.x.C.S.c.T.nXFXKX",
"LXAXLXPXPXDXcXGXbXHXHXtX&XC < # X .       o o X     . # q P.JXLXyX'.r.k.F.n.k.m.v.b.l.x.$X<.E.HXFXKX",
"SXLXLXjXDXKXKXFXKXKXJXKXPXPXhXdXP.I.e e q q q q :.L.&XIXPXPXJXlXeXq.1.n.g.g.G.k.k.k.j.z.!.#.sXLXDXDX",
"AXSXCXGXHXnXnXHXvXvXcXFXFXFXlXhXPXLXLXPXPXHXPXHXbXHXLXPXDXGXDXxXz.U &.g.g.h.y.t.k.t.j.l.K.:.HXLXLXDX",
"LXVXcXxXuXqX1X1XwXyXyXwXqX2XqXeX8XlXHXFXFXKXKXMXKXNXDXPXgXgXFXiX&.P 1.g.g.g.y.9.t.0.j.l.>.T.HXDXDXDX",
"JXJXxXwX{.z.a.a.p.d.U.Y.s.c.e.i.*XrXnXlXgXKXKXKXKXNXKXPXvXnXnX1X&.4.9.y.y.9.7.t.O.t.8.z.>.8XnXFXDXDX",
"KXKXxX=Xe.o.O.o.7.w.u.u.e.8.8.;.d.*XuXxXhXFXKXKXKXKXFXvXlXpXwXY.8.9.9.6.7.7.5.9.@.0.4.q.~.pXmXFXFXDX",
"NXFXiX).I G X.X.+.+.3.1.8.o.o.o.;.W.1XuXxXvXKXDXNXBXvXlXyXqX[.&.o.O.+...+.5.5.5.6.3.;.*.,XiXlXKXFXDX",
"KXvXiX<X} G ~ X.] | | 2.1.5.o.8.&.;.z.=X9XpXnXHXHXHXxXuX1X].u.I ` ~ ..` | +.| o.4.&.*.s.wXlXFXKXKXDX",
"KXDXxX1Xu.J ! Q ~ ] ] | | { { } 3.I L &.s.W.Q.%X*X*XW.Y.p.&.L +.] ~ ~ ] ] | } 1.;.&.*.wXiXHXJXJXLXDX",
"LXjXlXxX=X%.a ( ] ~ ! W (  . ./ / _ ) K J U U U U U U K K ) ' W ~ ~ ~ ~ _ P P 1.g >.%XxXHXVXZXLXJXDX",
"AXZXFXHX0Xf.P s v R ~ ~ Q (  . .Q Q W / _ _ ) ! K ) ) _ / / / Q v ~ _ s J 1.1.B #.*XxXHXjXLXLXSXLXFX",
"SXSXJXKXBX6Xf.l W S A A R W n n ( N N W Q W R c R R b n n N N N ( S N [ { L g g -XiXHXGXZXAXAXAXLXJX",
"SXAXJXBXKXlX;Xf.u i D H R s m ( n n m s c c R T R R c c m n N N j j %.1.f 4 >.wXxXlXfXGXLXZXZXLXLXDX",
"SXAXJXJXKXHXiX1X,.L t t t u a s F A S D A p D S p p p A S H G a &.$.4 $ 2 T.pXnXgXKXPXPXZXLXLXJXDXDX",
"AXJXKXPXBXvXvXnXuX!.#.4 ; ; ; : 5 5 F F F F F J G G F F y u t 3 ; o $ L.xXnXnXcXjXPXPXNXJXPXPXgXDXDX",
"GXFXDXKXFXvXFXKXcXPXKX5XC 1 > ; * * & & > 6 6 6 ; & # o o   X O 8 P.FXHXfXfXMXJXPXJXMXNXKXFXvXvXFXFX",
"PXKXcXcXFXHXFXJXNXJXKXKXKXBX6XP.I.e w = = = % + % % = = w I.4XjXLXPXGXDXLXPXLXJXZXJXPXPXKXvXlXHXHXLX",
"DXDXFXFXGXDXDXPXPXJXJXBXDXFXHXPXPXPXDXjXfXfXdXdXgXgXJXPXPXPXPXPXLXJXDXDXLXDXDXLXPXJXKXLXKXFXFXGXFXDX",
"DXDXLXDXDXDXDXDXDXDXDXDXGXDXDXKXDXFXDXDXDXLXKXPXGXFXDXDXDXDXDXDXDXDXDXDXDXDXDXDXDXDXDXDXDXDXDXDXDXDX"
};
