/* XPM */
static char *d7f89c957ca64fbe83aaeb587347a8feyZlu4RQgKZEh1LRV[] = {
/* columns rows colors chars-per-pixel */
"50 50 195 2 ",
"   c #353636",
".  c #393736",
"X  c #373837",
"o  c #3B3936",
"O  c #343638",
"+  c #36383A",
"@  c #3B3B3A",
"#  c #4B3A2E",
"$  c #553E2E",
"%  c #583E2E",
"&  c #433B34",
"*  c #483E31",
"=  c #413F3F",
"-  c #53442E",
";  c #5C432D",
":  c #55492F",
">  c #4C4333",
",  c #494537",
"<  c #4A403B",
"1  c #5B4535",
"2  c #554A33",
"3  c #5B4D32",
"4  c #5D5133",
"5  c #64422B",
"6  c #684B2C",
"7  c #724627",
"8  c #7B4A24",
"9  c #764B28",
"0  c #6B532D",
"q  c #7B5623",
"w  c #755628",
"e  c #7C5D2A",
"r  c #614835",
"t  c #655836",
"y  c #725D30",
"u  c #77602E",
"i  c #7C642E",
"p  c #7E682F",
"a  c #6C623B",
"s  c #776836",
"d  c #3E3D40",
"f  c #474644",
"g  c #4C4C4A",
"h  c #584A43",
"j  c #565756",
"k  c #614F46",
"l  c #605F58",
"z  c #6D624F",
"x  c #716257",
"c  c #696768",
"v  c #8C4C1E",
"b  c #944F1E",
"n  c #96501E",
"m  c #9C511C",
"M  c #9A5C1C",
"N  c #BE580F",
"B  c #AD5617",
"V  c #A2531A",
"C  c #AA5518",
"Z  c #B45A15",
"A  c #BA5A16",
"S  c #BE5F19",
"D  c #99661D",
"F  c #AA6917",
"G  c #A76B18",
"H  c #B06A15",
"J  c #AF7015",
"K  c #B37114",
"L  c #B77717",
"P  c #824A22",
"I  c #8B4D20",
"U  c #864E28",
"Y  c #875723",
"T  c #855A23",
"R  c #805D2B",
"E  c #935626",
"W  c #845638",
"Q  c #82632A",
"!  c #86652B",
"~  c #8C6B2B",
"^  c #916B28",
"/  c #8E722C",
"(  c #997027",
")  c #93722B",
"_  c #9A742B",
"`  c #9E7A2C",
"'  c #8E6C37",
"]  c #947F3F",
"[  c #A57A26",
"{  c #A37D2E",
"}  c #CD5E0E",
"|  c #D35E0B",
" . c #C35C13",
".. c #D3610D",
"X. c #DD620A",
"o. c #CD7E0D",
"O. c #D47A0B",
"+. c #C26211",
"@. c #C67D13",
"#. c #E66B07",
"$. c #E16409",
"%. c #E26E08",
"&. c #E47307",
"*. c #EA7306",
"=. c #EE7D04",
"-. c #875F45",
";. c #875F49",
":. c #8F6B4A",
">. c #AC7856",
",. c #B57E5F",
"<. c #867E6D",
"1. c #A3822D",
"2. c #AC8329",
"3. c #B48626",
"4. c #B68B26",
"5. c #BD8B25",
"6. c #BF9127",
"7. c #BE9329",
"8. c #AF9635",
"9. c #D5820A",
"0. c #DA8409",
"q. c #CB8513",
"w. c #CF8B19",
"e. c #D38E1A",
"r. c #CF911E",
"t. c #D6921B",
"y. c #DA951B",
"u. c #D6981B",
"i. c #DD9B1C",
"p. c #EB8205",
"a. c #E68906",
"s. c #EA8C05",
"d. c #F38502",
"f. c #F68B01",
"g. c #FA8E00",
"h. c #FC9400",
"j. c #E19D1E",
"k. c #E5A31E",
"l. c #E9A61F",
"z. c #E6A91E",
"x. c #EAAA1F",
"c. c #F7AD19",
"v. c #EDB11F",
"b. c #F0B11F",
"n. c #C18B23",
"m. c #CB8F20",
"M. c #C49325",
"N. c #C89224",
"B. c #CD9925",
"V. c #D49C21",
"C. c #DA9D21",
"Z. c #D5A224",
"A. c #DEA724",
"S. c #D0B337",
"D. c #E4A420",
"F. c #E9A720",
"G. c #E5A921",
"H. c #ECAC20",
"J. c #F1AE20",
"K. c #EEB120",
"L. c #F2B421",
"P. c #F5B922",
"I. c #FABB21",
"U. c #F6CA32",
"Y. c #FCD637",
"T. c #94905B",
"R. c #ABA35F",
"E. c #D78541",
"W. c #E68C42",
"Q. c #D6BC42",
"!. c #CDBE5B",
"~. c #C78864",
"^. c #DA946C",
"/. c #EF9D65",
"(. c #C8A77E",
"). c #E5A37D",
"_. c #FFE045",
"`. c #FDE356",
"'. c #D3CB71",
"]. c #D9D277",
"[. c #E6D96E",
"{. c #FFEE6E",
"}. c #A69B82",
"|. c #AFB0B0",
" X c #D1BB95",
".X c #FFB488",
"XX c #EAB192",
"oX c #D5CAA9",
"OX c #E7DAB5",
"+X c #F5E6BD",
"@X c #FDEFC6",
"#X c #F5E5DC",
"$X c #E4E5E6",
"%X c #F9EFEA",
"&X c #FFFAF6",
/* pixels */
"l.l.l.k.l.l.l.l.l.l.l.l.F.l.l.l.l.l.l.F.l.l.l.l.3.^ C.F.D.F.F.l.l.l.l.l.l.l.k.l.l.k.F.k.l.l.k.l.l.F.",
"x.x.H.H.l.x.l.l.l.l.l.l.l.l.l.x.H.x.x.l.x.x.F.F.~ & N.F.F.F.l.l.x.x.l.l.x.l.x.H.H.x.l.H.x.x.F.x.l.H.",
"l.x.x.H.J.J.J.H.J.H.J.J.J.H.H.H.K.H.H.H.v.b.B.4 E A 6 ~ J.J.J.J.J.x.v.v.J.H.K.H.H.H.H.H.H.H.J.H.x.l.",
"i.k.l.z.H.L.L.L.L.L.J.L.J.L.J.H.l.l.l.x.x.v.B.X 7 B * 3 6.M.M.J.L.P.b.v.L.K.x.x.l.k.l.l.l.H.H.F.k.j.",
"j.j.j.l.F.x.L.L.L.L.L.L.L.H.k.k.j.j.j.j.j.l.n.@ O X O + + O > H.b.I.b.v.c.k.k.j.i.k.j.j.j.k.l.j.j.j.",
"j.j.j.j.k.D.l.F.H.H.H.H.l.k.k.k.k.k.D.j.j.) R m V V F K J J G ! i i V.v.k.k.k.k.j.k.j.k.k.j.j.j.j.k.",
"l.l.l.l.l.l.l.x.H.F.F.l.k.l.l.l.k.l.l.k.k.3 % X.....d.h.h.h.s.3 > > 3.i.z.z.z.z.G.l.k.l.F.F.l.l.l.l.",
"F.H.l.x.F.H.H.H.H.H.H.H.H.H.x.x.x.l.F.H.H.3 % X.v #  .=.h.h.h.a.a.a.0 4 i.j.k.z.x.x.x.H.H.F.l.F.H.l.",
"J.J.J.H.v.v.v.v.G.v.z.G.x.v.v.v.H.H.J.B.{ U P m :.<.E Z p.f.h.h.h.h.G T ^ L e.t.i.z.x.v.H.H.b.b.J.J.",
"J.L.L.L.v.x.j.i.u.u.u.u.u.k.z.v.L.L.P.{ d A N   }.+Xg ; X.p.h.h.h.h.h.9.X i e.w.t.u.k.x.K.L.L.b.J.L.",
"L.K.K.z.k.u.y.t.e.e.t.t.e.e.y.y.i.G.K.1.= A A . ' W. X(.; Z &.h.h.h.h.0.. ! y.e.e.e.t.u.k.x.b.b.P.L.",
"G.k.j.i.y.y.y.t.y.t.u.u.y.y.e.e.u.y.j._ = A  .% v  .XX(.; Z %.o.o.9.O.L 4 ( y.y.y.t.y.y.i.j.k.x.H.H.",
"j.i.i.i.y.j.i.i.i.i.j.y.j.y.j.y.y.y.y.( = A $.X.P = +.$.| d.a.> . . . 3 e.j.y.j.i.j.i.y.j.j.y.j.k.k.",
"j.j.j.k.j.j.k.i.j.j.j.j.j.j.j.j.j.j.j._ d A $.X.A n ..#.=.H T -.;.:.< 3 y.j.j.j.j.j.j.j.j.j.j.k.j.j.",
"k.k.k.k.l.l.k.l.l.l.k.l.l.l.l.l.l.l.l.{ = A $.$.| $.| %.s.q h ~.~.~.h : j.k.l.k.l.l.l.l.k.k.k.k.k.k.",
"y.y.i.i.j.k.l.k.l.x.l.l.l.l.l.l.l.l.l.{ d A $.| $.$.X.Z - >.).#X%X%Xc : k.x.l.x.l.x.l.k.k.j.i.j.y.u.",
"e.e.t.t.t.y.u.i.j.l.z.H.H.H.x.x.J.J.J.{ = A X.X.X.X.$.C O ,..X&X$X|.j : G.H.H.l.k.i.i.i.y.t.t.e.e.e.",
"y.y.t.t.t.t.y.y.u.i.i.k.x.H.L.L.J.J.L.{ = A X.X.X.X.$.B O ,..X&X|.  O 3 k.l.j.i.y.u.y.t.t.e.y.e.y.e.",
"y.j.y.y.y.y.u.y.u Q i.i.k.k.x.v.K.K.L.G.7.e U X.X.X.$.} B W x XXXX~.h 2 i.j.i.i.y.y.y.y.y.y.y.y.y.y.",
"j.j.j.k.j.k.r.5.a a 5.t.k.i.i.k.G.H.H.L.P.k 1 X.X.X.X.X.$.I r /./.^.k 2 u.i.j.i.j.j.i.i.j.j.j.j.j.j.",
"l.l.k.z.l.z.) , '.'.+ [ x.l.l.k.D.j.l.l.z.4 1 X.$.X.$.$.$.| $.h.K @ + 2 k.x.l.l.D.k.k.j.l.k.l.k.l.l.",
"k.l.k.j.k.l.) o '.[.T.:./ / 3.l.x.F.l.l.H.1.~ I I I I v I I I D w O q D ~ 6.x.x.l.H.x.x.x.l.x.x.l.x.",
"j.i.i.u.u.i./ @ ].{.{.T.X @ s H.H.L.H.J.H.H.M.& . O . & . O + & o & o.0.. ) L.K.L.L.b.L.b.L.L.b.b.L.",
"i.i.i.u.y.i.~ + Q._._.[.].].R.2 M.I.P.P.L.p 0  .7 o L O. .5 * @.0.0.&.+.X / K.K.L.L.L.L.L.L.L.L.L.x.",
"i.i.j.j.j.j.[ 0 8.S.Y.`.{.{.!.a 1.6.7.M.7.2 % X.P * 0.g.*.M q p.d.d.S M 0 [ G.H.b.b.U.b.P.I.b.x.x.k.",
"k.j.k.j.j.j.j.j.2 t Y.Y.Y.Y.Y.Y.s O + . O O ; X.P o 0.h.h.h.h.$.X.X.5 : i.k.k.l.v.x.v.v.K.v.v.x.l.k.",
"l.x.l.l.l.l.l.l.3.` s s ] U.U.c.q.K K H V V n 7 I V Y q q q q 7 9 7 ( 5.l.z.x.x.x.x.z.z.z.z.k.l.x.G.",
"H.x.H.H.H.H.J.H.K.B.2 < 2 S.G.f.f.h.g.=.X.| C O b X.% < g g g + o > M.b.H.H.H.x.z.z.A.i.i.i.i.j.j.k.",
"x.K.L.L.J.L.L.J.L.H.G.G.Z.2 9 #.$.$.$.#.X.5 o + b $.| E.OXOXoXf i A.x.v.v.x.x.l.j.i.u.y.t.y.y.y.i.i.",
"l.x.L.L.L.P.I.I.P.P.P.P.K._ T b n n b n n ~ u X 5 m | W.@X@XOXf u z.k.A.k.k.i.y.u.i.i.i.j.y.j.y.i.i.",
"k.k.l.H.K.P.L.I.P.P.L.K.K.H.2.. X @ X X @ M.M.& . &  .W.+X@XOXf e i.k.i.i.i.j.j.j.j.j.j.j.j.j.j.j.j.",
"k.l.l.G.H.H.H.K.K.H.H.H.G.G.C.5.5.n.n.n.5.u w o.q O - r l j z @.G 3 M.z.l.z.j.l.k.k.k.l.l.k.l.k.l.l.",
"H.H.H.v.x.v.x.v.v.H.x.v.x.x.x.b.x.x.b.C.5.0 8 f.G 6 @ O   $ w p.F O 5.v.K.H.x.H.H.l.H.F.H.H.F.H.H.x.",
"H.x.x.z.z.x.x.x.x.v.x.v.b.b.b.b.K.v.J.[ . A X.X.=.s.- O O K f.#.n   4.v.K.K.K.K.H.H.H.K.H.H.H.H.K.H.",
"k.k.j.C.i.i.j.i.C.k.k.z.x.v.L.L.P.v.L.` . A $.X.#.O.$ 2 1.^ Y 8 Y ( w.A.G.x.K.L.L.K.L.K.b.L.L.L.L.L.",
"u.i.i.u.y.y.i.y.u.i.u.j.j.k.l.x.v.P.b.2.* B } } |  .: i K.i & & Q i.y.y.i.A.H.K.P.P.I.P.P.P.L.L.L.H.",
"j.j.i.j.i.j.i.i.i.i.i.i.i.i.i.j.k.l.H.G.Z.0 & * # $ 7.Z.i.r.m.m.t.i.j.j.j.j.k.l.H.K.L.L.L.K.K.x.k.j.",
"j.k.k.j.k.j.D.l.l.l.l.l.k.k.k.k.j.j.j.k.l.^ y u y e u.i.u.k.j.l.D.D.D.j.j.j.j.D.G.G.H.H.x.x.l.l.k.k.",
"l.l.F.H.F.F.H.x.x.K.x.x.x.x.l.x.F.l.l.H.l.l.G.z.H.G.k.l.x.x.x.x.H.H.F.H.F.F.F.H.l.H.x.H.H.x.x.G.H.F.",
"x.J.J.J.J.L.H.x.z.z.z.x.K.K.L.x.J.H.H.H.J.H.K.K.H.K.H.K.v.v.H.L.H.H.H.J.J.J.J.H.H.J.x.v.x.K.K.H.K.H.",
"L.L.L.L.L.x.k.y.t.r.u.i.G.K.P.L.P.L.L.L.L.P.L.K.v.x.z.l.z.x.x.K.v.v.b.b.b.b.v.v.v.l.i.i.i.k.z.v.L.L.",
"P.P.P.K.l.i.e.e.w.w.e.e.i.k.K.P.P.I.P.P.P.L.H.k.i.u.t.u.t.u.i.i.z.z.v.x.b.v.v.z.u.t.w.w.e.t.i.z.v.L.",
"H.H.z.j.y.t.e.e.e.e.e.e.t.i.A.K.v.P.L.L.K.l.i.t.t.r.e.e.t.w.e.e.e.u.u.t.k.i.u.e.w.w.e.e.e.t.t.u.j.z.",
"j.i.y.y.y.t.t.y.u.y.y.t.y.y.u.i.A.G.G.k.C.i.u.y.u.y.y.y.y.u.y.t.t.u.t.u.t.u.t.t.t.y.t.y.y.t.y.y.y.y.",
"j.j.j.i.j.y.j.j.j.j.j.j.i.j.j.j.i.i.k.i.j.i.i.i.i.j.j.j.j.y.j.i.i.i.k.i.i.i.k.i.i.j.j.i.i.j.i.j.i.j.",
"G.k.k.k.l.G.F.j.j.j.j.l.k.D.l.k.l.z.l.l.l.l.G.z.k.l.l.j.k.G.l.l.z.k.k.k.k.z.z.z.l.l.k.l.k.k.j.k.l.l.",
"H.H.H.H.H.H.J.H.J.H.H.H.H.H.H.H.x.x.z.z.z.x.x.x.K.K.H.x.H.H.H.F.k.k.i.i.i.i.k.k.l.x.H.H.x.b.b.x.H.H.",
"z.x.H.K.K.L.J.L.L.L.L.L.L.L.L.x.z.l.i.i.i.k.k.l.x.x.v.x.H.G.j.j.i.u.u.u.y.u.u.i.j.l.x.L.L.L.L.b.L.H.",
"i.k.j.D.F.H.K.L.L.P.P.L.L.H.l.k.j.i.y.y.y.j.j.i.j.j.j.D.j.j.i.i.i.i.y.i.i.y.j.y.y.j.j.l.x.x.x.x.x.k.",
"C.i.j.j.j.k.l.H.H.K.H.H.G.G.j.j.j.j.j.j.j.j.j.i.i.j.j.j.j.j.i.j.j.j.j.j.j.j.j.j.j.j.j.j.k.l.k.j.j.j."
};
