/* XPM */
static char *_f62b73c46e54406cdc31695b78b1929H7IWH1mUYUc8uZsX[] = {
/* columns rows colors chars-per-pixel */
"50 50 201 2 ",
"   c #363636",
".  c #393635",
"X  c #393937",
"o  c #333638",
"O  c #383938",
"+  c #463A2E",
"@  c #5B3F2A",
"#  c #433C33",
"$  c #493E32",
"%  c #513D30",
"&  c #594B19",
"*  c #765B15",
"=  c #5A452D",
"-  c #5A482F",
";  c #464134",
":  c #4A4334",
">  c #544632",
",  c #5A4C32",
"<  c #544938",
"1  c #654827",
"2  c #61422C",
"3  c #664B29",
"4  c #754626",
"5  c #744727",
"6  c #7C4924",
"7  c #6D592F",
"8  c #765222",
"9  c #7B5422",
"0  c #7A5E2C",
"q  c #665631",
"w  c #755933",
"e  c #7D642D",
"r  c #444340",
"t  c #594840",
"y  c #575651",
"u  c #67554C",
"i  c #7C6047",
"p  c #6A675C",
"a  c #746455",
"s  c #606468",
"d  c #7B7E7F",
"f  c #954F1D",
"g  c #8E501F",
"h  c #93531F",
"j  c #9B521C",
"k  c #9F581B",
"l  c #AA5617",
"z  c #B65714",
"x  c #B65914",
"c  c #BA5914",
"v  c #B55B19",
"b  c #80601E",
"n  c #99631A",
"m  c #A56817",
"M  c #BE6812",
"N  c #B6751A",
"B  c #845425",
"V  c #825A22",
"C  c #885C26",
"Z  c #905526",
"A  c #8D6324",
"S  c #80642D",
"D  c #846A2E",
"F  c #8E6B29",
"G  c #926A27",
"H  c #966A26",
"J  c #94732B",
"K  c #9A762A",
"L  c #9D7C2B",
"P  c #9C6236",
"I  c #927635",
"U  c #A27927",
"Y  c #A4742B",
"T  c #A57D29",
"R  c #B57C22",
"E  c #C95B0E",
"W  c #D35E0B",
"Q  c #CD690E",
"!  c #DE620A",
"~  c #D8690A",
"^  c #C9790E",
"/  c #D57A0A",
"(  c #C66219",
")  c #E56D07",
"_  c #E16509",
"`  c #E36908",
"'  c #E97705",
"]  c #EC7C05",
"[  c #E27619",
"{  c #815D49",
"}  c #906F40",
"|  c #967651",
" . c #BA7D54",
".. c #C27D55",
"X. c #C57F58",
"o. c #AF8126",
"O. c #AB8529",
"+. c #BA8522",
"@. c #B38827",
"#. c #BD8B24",
"$. c #CD8C1B",
"%. c #D48613",
"&. c #D28E1A",
"*. c #D6921B",
"=. c #DA961C",
"-. c #D7981C",
";. c #DD9A1D",
":. c #E48905",
">. c #ED8C04",
",. c #F28203",
"<. c #F48C02",
"1. c #F98D01",
"2. c #F49102",
"3. c #FA9200",
"4. c #F2980E",
"5. c #E19D1E",
"6. c #F99615",
"7. c #DDA01D",
"8. c #E5A31E",
"9. c #E8A61F",
"0. c #E7A91F",
"q. c #EAAA1F",
"w. c #F0AE1F",
"e. c #EDB11F",
"r. c #F1B31F",
"t. c #C58E21",
"y. c #C49325",
"u. c #CC9222",
"i. c #C79825",
"p. c #D29521",
"a. c #D39B22",
"s. c #DC9E21",
"d. c #E88C21",
"f. c #FF9B24",
"g. c #EA883A",
"h. c #D7A223",
"j. c #DBA423",
"k. c #E5A620",
"l. c #E9A620",
"z. c #E6AB21",
"x. c #EBA920",
"c. c #ECA920",
"v. c #ECAB20",
"b. c #EBAD20",
"n. c #ECAC20",
"m. c #EFAE21",
"M. c #F0AF21",
"N. c #FFA92B",
"B. c #EEB020",
"V. c #EEB121",
"C. c #F1B221",
"Z. c #F2B321",
"A. c #F2B622",
"S. c #F5B522",
"D. c #F5B722",
"F. c #F4B922",
"G. c #F6B922",
"H. c #FABC22",
"J. c #B8805F",
"K. c #96897A",
"L. c #AD8465",
"P. c #CA825A",
"I. c #D1885E",
"U. c #E9954E",
"Y. c #F69D4A",
"T. c #E79958",
"R. c #DA8E63",
"E. c #E4966B",
"W. c #F09E69",
"Q. c #E99D71",
"!. c #DDA268",
"~. c #EDA563",
"^. c #F7A26B",
"/. c #F6A374",
"(. c #FAA675",
"). c #FBA97A",
"_. c #E7B57F",
"`. c #F1BA7F",
"'. c #838588",
"]. c #999B9C",
"[. c #A79F88",
"{. c #ABA28B",
"}. c #BDA884",
"|. c #B5AC92",
" X c #BBB49B",
".X c #A9A9A8",
"XX c #CAB08E",
"oX c #C4B697",
"OX c #F6B785",
"+X c #D8C39B",
"@X c #F3C790",
"#X c #DCD1AF",
"$X c #E4D8B4",
"%X c #FEE6B6",
"&X c #EED9CD",
"*X c #F5E8C1",
"=X c #FCEDC4",
"-X c #FFF1C7",
";X c #F6E3D9",
":X c #F5ECE8",
">X c #FDFDFE",
/* pixels */
"n.n.n.C.v.v.v.v.v.l.v.9.l.v.q.n.q.M.M.q.q.v.v.M.q.v.x.v.l.v.l.v.q.v.v.v.l.v.q.n.v.n.q.M.v.v.v.v.n.v.",
"8.q.q.e.B.M.M.n.M.v.M.M.M.M.q.M.Z.q.B.B.C.Z.M.q.M.M.M.n.v.M.M.M.M.q.M.M.M.C.B.B.e.M.C.q.M.M.C.n.x.0.",
";.5.8.8.n.C.C.S.F.Z.C.A.S.S.C.M.x.8.8.0.q.M.w.S.C.C.S.A.M.S.M.S.S.S.S.r.C.C.q.0.k.8.8.q.v.n.v.l.5.;.",
";.5.5.5.8.v.C.S.S.S.F.F.S.q.l.8.8.5.5.5.8.8.9.M.M.S.S.S.H.G.F.F.F.F.F.e.q.8.8.8.5.5.5.5.5.8.5.5.5.5.",
"l.5.8.5.8.8.k.l.V.B.q.n.v.8.k.8.8.5.5.8.5.5.5.l.q.x.M.C.S.S.S.S.r.r.q.q.8.8.5.8.8.5.8.5.5.8.5.5.8.5.",
"l.8.8.9.9.l.8.l.x.x.x.x.l.8.8.8.k.8.8.k.l.l.9.9.9.8.l.v.v.v.n.v.q.q.q.q.9.q.9.9.8.9.l.8.l.8.8.9.8.k.",
"l.l.v.x.x.v.v.v.n.q.n.x.v.v.q.q.9.x.x.v.l.l.v.l.9.l.l.v.l.x.x.n.q.q.0.0.8.8.8.q.n.q.v.n.l.v.v.l.l.l.",
"M.M.M.n.M.B.B.B.n.B.n.C.n.M.r.e.n.C.n.n.M.M.M.q.n.n.n.C.n.M.n.B.e.8.-.-.&.&.=.=.8.q.B.B.M.M.M.v.M.M.",
"M.C.C.Z.e.n.z.8.;.-.7.-.;.8.q.U 7 z.S.S.C.C.C.r.S.M.Z.Z.S.a.q @.5.*.&.&.$.%.$.&.*.7.0.q.B.B.C.A.S.S.",
"S.S.C.n.8.5.=.*.*.&.&.*.&.&.#.0 - #.j.S.S.S.S.S.G.F.S.S.j.O.% J t.&.&.&.&.&.&.&.&.*.=.8.q.B.S.S.S.F.",
"x.q.8.;.;.=.=.=.=.=.*.-.=.R # f E $ e q.e.F.H.H.H.H.H.Z.q 2 W 6 > t.=.=.=.=.=.=.=.=.=.=.;.8.q.n.w.Z.",
";.;.;.;.;.;.;.;.;.;.;.;.5.+.. | T.Z B F J K L L T L L J B P ~.i # $.5.5.;.5.=.5.;.=.;.;.;.;.5.8.8.5.",
"8.;.5.5.5.5.8.5.5.5.5.5.5.t.. [.%X[ j .   X . . . . . . c g.%XK.$ p.5.5.5.5.5.5.8.5.5.5.5.8.5.5.5.5.",
"k.8.8.8.8.k.8.8.8.8.8.8.8.+.  P U.@X!.z c x z z x x c v OXOXg.q $ p.l.5.5.8.5.8.8.8.8.8.8.8.8.8.8.8.",
";.;.;.8.8.8.8.0.9.q.9.q.l.u.q h ( @X~.! ! _ ) ) ) ! ! ! `._.z 4 7 s.9.9.v.q.q.q.0.0.9.8.8.5.5.5.;.;.",
"&.*.*.*.*.=.;.;.8.8.q.q.M.w.v.D $ ( _ W ! ` 1.3.1._ ! ! ` v . T M.w.w.q.w.w.q.0.9.8.;.;.=.*.=.&.*.=.",
"*.*.*.*.*.*.*.-.=.=.8.8.x.j.K C f W ` ] ] ,.2.3.2.,.] ] ` E g A L z.B.n.q.8.5.;.;.=.=.*.*.=.&.*.*.*.",
"=.;.=.-.;.=.;.=.=.=.=.;.8.#.  f _ ! ' 3.2.2.2.<.>.2.2.3.) ! _ 5 ; h.z.k.5.;.=.=.=.=.=.=.=.=.=.=.=.=.",
"5.5.5.5.5.5.;.5.8.;.8.5.5.+.X j ` ,.1.3.V = = - = - n 3.1.] _ 4 : a.8.8.5.5.5.5.=.5.5.5.5.5.;.5.5.;.",
"8.8.q.8.0.8.0.0.0.8.8.8.8.#.X h ` 1.:.^ 3 ; t < < # 9 %.<.<._ 4 : a.8.j.8.8.8.k.8.8.8.5.8.8.5.8.8.8.",
"q.0.0.9.8.8.b.0.q.0.0.B.q.y.X h ` 3.N   & b ..X. .* & . %.<.! 4 : h.B.b.n.q.q.z.x.x.q.9.q.l.n.q.q.q.",
"8.8.5.;.=.=.;.8.0.0.0.e.r.i.X l ] n | .X XXXE.E.E.oX X.XI k ] 9 : h.b.B.B.B.B.B.n.B.B.x.q.M.q.B.C.A.",
";.;.=.=.=.=.=.=.;.7.8.0.q.i.X m :.+ '.>X>X;X).(.OX:X>X>Xs 1 1.V : p.8.z.B.B.B.F.F.B.S.F.F.S.C.S.S.q.",
";.;.;.;.;.5.;.;.;.;.;.;.8.y.X j ! # '.>Xd a /.).Q.y ].>Xs = ` 6 ; $.5.;.j.z.B.B.S.F.F.F.F.F.F.e.q.8.",
"5.5.5.5.5.5.5.8.5.5.5.5.5.t.7 Z l 8 L.&Xa { /.).Q.u K.&X} 6 l B 0 a.5.5.5.5.8.x.B.A.A.F.B.S.q.q.8.5.",
"8.8.9.8.l.8.l.8.l.k.l.k.8.8.9.S # :.d.X.P.I./.).^.X.X.X.6.^ . U q.9.9.9.9.9.8.q.z.q.q.q.b.q.q.q.z.x.",
"n.n.v.x.v.l.l.v.l.v.x.l.l.v.q.y.T V Y d.T.Q.R.R.R.E.U.d.H A O.a.e.B.n.n.n.x.B.q.e.0.0.8.8.7.5.8.q.q.",
"C.B.B.B.M.M.M.M.n.C.n.B.M.S.S.v.h.: B >.Y.W.I.P.I.^.Y.] 1 q j.x.B.B.B.B.C.C.e.0.8.7.=.=.=.=.;.;.;.8.",
"q.n.C.S.F.S.A.F.A.F.S.S.F.F.F.J > c Z > %.f.^./.^.6.N $ l l : @.C.n.0.e.q.0.8.;.-.=.;.=.=.;.=.=.;.;.",
"8.8.n.Z.S.F.H.G.H.F.F.F.A.B.B.S # ~ M 8 m R J.J.J.N k 5 Q Q 5 G o.;.7.;.7.;.;.;.;.;.5.;.;.5.5.=.5.;.",
"5.8.8.9.M.Z.F.S.F.F.B.B.z.z.9.S $ :.3.3.3 o   O .   6 _ <.<._ 4 ; a.8.5.8.5.5.5.5.5.8.5.5.5.5.8.8.5.",
"k.0.q.q.q.q.q.q.B.B.b.x.9.k.9.S # Q ,.3.1 y |. X}.N / ] ' ` ! 4 : 7.q.q.q.8.9.9.9.8.9.9.l.l.l.9.9.9.",
"n.B.e.n.n.n.C.B.B.n.B.B.q.q.r.J > x ~ <.9 a $X*X%XN.4.:.[ [ _ 4 : j.B.B.B.B.n.x.n.x.x.x.n.v.v.v.n.x.",
"B.q.q.0.0.8.8.0.0.0.e.e.S.e.B.n.a.> 6 ) :.^ : |.-X%X{.: oX@X_ 4 : a.z.z.B.B.B.F.B.B.B.B.C.B.C.B.S.B.",
"8.8.;.;.5.=.;.;.;.;.7.8.0.q.B.B.z.I C l / Q O {.-X-X{.. K.}.T.w $ u.;.;.k.z.F.S.F.F.S.S.B.G.G.B.C.C.",
";.;.;.;.=.;.=.;.;.;.;.;.;.5.7.0.z.B.O.  z c   {.-X=X{.  o p =XK.$ u.=.;.;.5.z.Z.F.F.F.F.F.F.F.B.q.9.",
";.5.5.5.5.5.5.5.8.5.8.7.8.5.5.5.5.8.U   = i oX$X%XU.P O F O.s I +.;.5.5.5.5.5.l.n.B.B.B.B.n.q.8.8.5.",
"k.k.8.k.8.5.9.9.k.9.k.8.8.8.8.q.k.u.G o o y #X#X+X[ l < t.#.> o.9.k.8.8.l.8.9.8.k.x.b.0.x.k.8.9.9.8.",
"l.l.v.v.M.v.v.M.n.q.n.e.n.M.q.q.j.> O o o . r r < :.4.k.z.z.k.z.n.x.n.v.l.9.v.q.n.n.n.n.M.n.n.x.x.v.",
"v.C.M.C.M.C.B.q.q.8.8.z.C.B.S.y.J n C 6 $ O   2 h <.%.L j.B.B.A.C.C.M.Z.M.S.M.Z.B.B.z.n.B.B.B.A.B.e.",
"F.S.F.F.B.n.8.;.*.$.*.-.8.B.F.D # :.] ! 2 O . j ` 2.m   #.q.0.B.e.r.r.e.r.A.r.e.0.7.*.=.7.8.q.r.S.F.",
"F.F.S.B.0.;.;.&.&.$.$.&.*.s.B.D # ~ v = O.y.#.0 1 ~ l   o.*.*.=.;.7.0.8.q.q.0.;.&.$.$.&.&.-.;.0.e.F.",
"0.x.8.5.;.*.*.&.*.*.*.*.&.-.;.J , x Z , y.8.;.F , x h - +.*.*.&.-.&.-.-.;.-.*.&.&.*.&.*.*.*.*.=.5.8.",
"5.;.;.=.=.=.=.=.;.;.=.=.=.=.;.;.$.: 0 ;.;.;.;.=.t.$ 0 =.=.-.=.=.=.=.;.=.-.-.*.*.=.=.=.=.;.;.=.;.=.;.",
"5.5.5.5.5.8.5.5.5.5.5.5.5.5.5.5.;.J T 8.5.5.5.5.=.H o.5.5.5.8.5.8.8.8.8.8.8.8.8.8.5.5.5.5.5.5.5.5.5.",
"k.8.l.x.9.q.l.9.l.8.9.9.x.l.l.x.q.q.q.q.q.q.0.0.l.l.l.l.8.q.q.q.0.0.0.7.8.0.0.0.q.9.9.q.8.9.l.8.9.8.",
"n.B.B.M.q.n.C.q.v.v.q.M.q.q.C.n.B.q.0.0.x.0.n.B.B.C.C.M.B.B.v.l.8.5.-.-.;.7.7.8.q.n.B.q.n.b.M.n.r.r.",
"0.q.n.q.e.S.C.S.S.S.S.F.F.S.F.x.q.8.;.;.;.8.8.8.0.n.q.n.x.8.8.5.;.=.-.-.*.=.=.;.8.q.e.e.F.S.S.S.q.q.",
";.;.k.8.k.n.C.S.S.F.F.F.S.b.z.8.;.;.=.s.=.5.5.=.=.5.5.5.5.5.s.=.;.=.5.=.5.=.5.=.=.5.8.q.q.r.q.0.8.8.",
";.5.5.5.5.5.8.k.C.n.n.n.x.8.8.5.5.5.5.5.5.5.5.5.5.5.5.5.5.5.5.5.5.5.5.5.5.5.5.5.5.5.5.5.8.8.8.5.5.8."
};
