/* XPM */
static char *_3a0b29681c64751aec388596a1e74f9a1RcbPG2trjFj6K2[] = {
/* columns rows colors chars-per-pixel */
"50 50 206 2 ",
"   c #3A5268",
".  c #2B527B",
"X  c #37567B",
"o  c #4D4C46",
"O  c #505047",
"+  c #56554C",
"@  c #5A544B",
"#  c #4E5150",
"$  c #5C5B52",
"%  c #675C4D",
"&  c #62615A",
"*  c #666459",
"=  c #746656",
"-  c #716B57",
";  c #4A5A6C",
":  c #5B6A6D",
">  c #6A6C68",
",  c #716E62",
"<  c #757266",
"1  c #74756A",
"2  c #7C796A",
"3  c #6E7770",
"4  c #7E7C73",
"5  c #96673C",
"6  c #B77D2D",
"7  c #A87839",
"8  c #B27E36",
"9  c #9A7349",
"0  c #846C55",
"q  c #8B775B",
"w  c #947555",
"e  c #9A7553",
"r  c #9F7A55",
"t  c #A97D43",
"y  c #A37849",
"u  c #A27C53",
"i  c #807E71",
"p  c #AA833E",
"a  c #BC8534",
"s  c #BE8935",
"d  c #B68539",
"f  c #C5811D",
"g  c #C9851E",
"h  c #CD8A1F",
"j  c #D18F1F",
"k  c #CD8B21",
"l  c #C3862A",
"z  c #C5892B",
"x  c #CB8C29",
"c  c #D28D21",
"v  c #CF9026",
"b  c #CE942C",
"n  c #D69221",
"m  c #DA9522",
"M  c #DE9A23",
"N  c #D49429",
"B  c #D49B2C",
"V  c #D99B2C",
"C  c #C38B33",
"Z  c #C89235",
"A  c #E29E24",
"S  c #DEA124",
"D  c #DFA729",
"F  c #E5A324",
"G  c #E9A625",
"H  c #E7A924",
"J  c #ECAB25",
"K  c #EFAC26",
"L  c #EEAE26",
"P  c #E6A828",
"I  c #E6AC2A",
"U  c #F0AE26",
"Y  c #EDB126",
"T  c #EEB026",
"R  c #EDB328",
"E  c #F2B126",
"W  c #F4B327",
"Q  c #F1B527",
"!  c #F2B426",
"~  c #F5B427",
"^  c #F4B627",
"/  c #F5B927",
"(  c #F5B928",
")  c #F6BB28",
"_  c #F9BC28",
"`  c #AB8448",
"'  c #B38443",
"]  c #B68947",
"[  c #B48A4C",
"{  c #BC8E4A",
"}  c #BE9046",
"|  c #BD904B",
" . c #A98358",
".. c #B78D55",
"X. c #BB9554",
"o. c #BB9555",
"O. c #9D876C",
"+. c #918774",
"@. c #9B987B",
"#. c #A98765",
"$. c #B68F62",
"%. c #BC976B",
"&. c #A48E73",
"*. c #A89277",
"=. c #AA997D",
"-. c #BB9C74",
";. c #C79742",
":. c #C2944C",
">. c #C69B51",
",. c #C49E58",
"<. c #CBA257",
"1. c #C5A25D",
"2. c #CCA65C",
"3. c #CDA95D",
"4. c #C09968",
"5. c #CEAC60",
"6. c #D0AD61",
"7. c #C8A77B",
"8. c #1A4D8A",
"9. c #154E93",
"0. c #205894",
"q. c #1F64A4",
"w. c #2F74AD",
"e. c #3170A3",
"r. c #287ABA",
"t. c #4B6783",
"y. c #4C718C",
"u. c #247EC2",
"i. c #3C85BC",
"p. c #2681C5",
"a. c #2884C7",
"s. c #2683C8",
"d. c #2B86C9",
"f. c #4C96CC",
"g. c #8B8B82",
"h. c #95968F",
"j. c #9F9F95",
"k. c #AB9884",
"l. c #B29D88",
"z. c #ABA78A",
"x. c #B7A48A",
"c. c #AAAA9B",
"v. c #BAA995",
"b. c #BDAD9B",
"n. c #AFB295",
"m. c #BBB69D",
"M. c #B8B7A7",
"N. c #B8B5A9",
"B. c #C6AB87",
"V. c #CCB187",
"C. c #D1B68B",
"Z. c #D9B98E",
"A. c #C2AE98",
"S. c #C6B497",
"D. c #C1B59D",
"F. c #D0B995",
"G. c #DABC93",
"H. c #C0ADA1",
"J. c #C3B3A2",
"K. c #C4BBA4",
"L. c #CBBBA9",
"P. c #CABDB2",
"I. c #BEC0A8",
"U. c #DDC49C",
"Y. c #E0C399",
"T. c #C7C1AA",
"R. c #CBC2AE",
"E. c #DDC6A4",
"W. c #D8C9AA",
"Q. c #C4C5B3",
"!. c #C7C8B2",
"~. c #CBCBB5",
"^. c #CBCABC",
"/. c #D3C7BC",
"(. c #D3D3BB",
"). c #DBD0B9",
"_. c #E0CCAD",
"`. c #E6D2A9",
"'. c #E4D3B5",
"]. c #E5D7BC",
"[. c #F6EBB8",
"{. c #C6C9C1",
"}. c #D7CEC4",
"|. c #DBD4C4",
" X c #DBDAC5",
".X c #D3D6C9",
"XX c #DBD5CB",
"oX c #DCDBCB",
"OX c #DADED3",
"+X c #E6DCC3",
"@X c #E8DDC3",
"#X c #E4DCD6",
"$X c #DFE2D6",
"%X c #E5E0CC",
"&X c #E5E3D4",
"*X c #EAE5D3",
"=X c #E5E6DA",
"-X c #E9E6DD",
";X c #E9E8D8",
":X c #ECEBDC",
">X c #FDFCD2",
",X c #EDEAE3",
"<X c #F1EEE6",
"1X c #F4F3E9",
"2X c #F8F6F2",
"3X c #FEFFFE",
/* pixels */
"F F G G F G G G G F G A G A G F G G F G G F G F F F A G F A G G F F G G G G F F F F F F F G F F G G ",
"K K J J G G G G G G G G U G G G J J J G J G G J J J J G J G G U J G G G G G J J J K J J J G G U G U ",
"F J Y Y W W U U U U U J U U U ! ! K U ! Q ! U J J U U U G U U J U K ! K U U ! Y Y U U U ! ! W U G F ",
"m M M F U ~ ~ W W ! ! ~ W W W U F F F F G ! W ~ W W W W W W W W ~ Q ! Q / ! K F F A F F G J J A M M ",
"A A A A A F Y ( _ / _ / ~ Y F A M A A A A A A J W ( W _ _ W _ _ _ _ / K F A A M M M A M M A A M M A ",
"A A A A F A A F G G J G F F A F F A F A A A A A M G U W W _ W W Y H F F F A A F F F F F A F A A F F ",
"G G F F G G G G G G G F F F F F F G F G F F F C ' N G A A G J G F J H J J J J G F F F F G G G G G F ",
"G G U G G J J J K K U U K U J J G J G G G G C ,.2.{ N J U G J J J Y K H S S G K U J J K G J G G J G ",
"U U U W Y Y Q R Y R R Y R R Q Q L L L J K Z X.3.6.2.{ B U U J ! U M k f f f g c S Y Y ! K U K J J U ",
"W U ~ ~ Q Y F n k h h h n m F H ! / ! Y Z X.6.<.>.3.5.[ B ! ! F n k c c c c c h h j F Y Q ~ ! ! W W ",
"/ / ! F A n c n n n j j c k k k n S H Z X.3.3.} y { 5.5.| b M n n m n n c c m n n j j m F Y ( _ ~ _ ",
"F M M m m m m m m m m m m m m n n j a X.3.3.| #.v.u { 2.6.[ a n m m n m M M m m m m m m m M A F U J ",
"M M M M M M A M M M M M M M M M M a ] 3.3.|  .K.M.b.u | 3.5.o.a A A M A M A M M M M M m M M M M M M ",
"A A A F A A A A M F F A A A A A l ] 3.3.:. .D.~.h.Q.K.u | 3.3.o.8 m A A A A A A A F A A A F A F A F ",
"F F H H G F G G F F F F G G F z [ 5.3.>.` v.OX.XM..X(.D.r { 2.5.X.8 A F F F F F F G F G J H F G F G ",
"n n n m M F H H J K K G G G x ' 5.3.>.t x.oX=XOX$X$X(.(.M.u | 3.5.>.8 A G G J J K K H G F m m n j m ",
"c j c n j c n n m F J Y K b ' 3.5.>.t k.oX:XOX;X:X=X.X(.(.m.e { 3.6.,.8 D U G F F m n n c c c c c h ",
"m m n m m n n n n n n M b ` 5.5.<.t *. X;X.X.X|.|./.P.M.J.J.v.#.] <.6.,.8 x m m n n n m n m m m m n ",
"M M M m M M M M M M M l t 2.6.<.t e A.L.P.P./.}.XX&X,X1X,X2X3XP.e { 2.6.5.y l M M m m M M M M M M m ",
"A A A A G A S S F F z t 5.5.<.' e b.2X,X1X2X=X,X3X}.!..XM.,X3X/.O.9 | 3.5.1.7 z A A A A A M A A A F ",
"G H J J J J Y J H b p 1.5.<.] r R.J.1X<X*X1XM.m.m.Q.~.@.z.M.3X|.*.l.u } 3.5.1.t z F F F F G F F G F ",
"J H F S M M S H B 7 1.6.<.{ u P.:Xb.,X*X%X<X!.~.n.I.I.Q.n.OX3X#X*.K.m.u } 3.5.3.t z J G J J K J J K ",
"M m m n c m n l 7 1.6.3.{ 9 K.:X:XP.}.2X*X2X-X^.=XOXOX#X}.}./.b.=.K.(.D.u | <.3.[ 8 G ! ! ! ! Q ! ! ",
"M m M M M M m 6 X.6.3.:.9 A.:X;X:X|.l.P.S.A.x.l.k.*.&.&.O.O.=.l.x.K.(.(.m.y { | s I ) / ~ / ~ Q Y F ",
"M A M A A M A M C ] { 5 l.;X:X:X:X;Xv.w 0 q 0 = = % % % @ @ N.#X*X X(.(.~.` 7 a H ( / _ / Q K F A A ",
"S F F F F F F F F b 7 5 P.,X;X:X:X-X-Xc.= < @ + @ @ + + + O $  X:X X(.(.~.[ n F H J H Y J H J J F G ",
"J J G G G G G G G G F z L.,X:X:X:X;X&X4 i & + + + + + + + + o c.:X X(.(.R.} K J Y Y J S S S F J J Y ",
"! ! K J W W G K K U U b S.:X:X:X:X:X{., 2 @ + + + @ + + + + o g.:X X(.(.R.;.R Y H m m n m m n m M H ",
"H ! / Q W W / W ( Q ( V A.,X:X:X:X:XN.1 1 + + + + + + + + + O g.:XoX(.(.T.C S m n m m m m m m m m m ",
"M A K ~ / _ _ _ _ ) _ D A.:X=X:X:X:XP.1 < + + + + + + + + + o c.:X+X(.(.T.a m M M M M A M M A M M M ",
"A A F F J ! / / _ ( R S B.:X:X:X:X:X^.1 1 + + + $ + + + + + # N.:X X(.(.K.s A A A A F F A A M F F F ",
"G H H G G G G G K H G m -.].].].+X;XXX1 2 + + + + + + + + $ + M.*X).W.W.V.x G G F F F F G F G G G F ",
"J K Y K Y K Y Y ! K Y H [ Z.Z.Z.G.@X&X4 2 $ + + + @ + + + + $ .X].Y.U.Y.B.N K K J J G K G J J J K J ",
"Y Y J H F F F H H J Q H X.Z.G.G.Y.#X:Xg.2 $ + + + + + + + + & .X+XU.U.U.B.B Q Y ~ K ! K Y ! ! U ! ! ",
"S m m m m m m n j m m M o.W.).E.E.W.+Xj.i $ @ + + + $ + + O > W.C.V.Z.V.%.B ( ( Q / ^ / Q ( ~ ( ~ ! ",
"M M M m M M m M M M M m ..W.'.G.Z.Z.'.c.i & + + + + + + + O - -.%.7.V.7.$.x F R ( _ ) _ _ ( ( K F A ",
"F M A A M A A A F A F A :._.]._.E.E.].N.4 * + + + + @ + + O =.).-.7.Z.V...N A A F G Y Y G H F A A A ",
"A F F F F F G G F G G F :.W.'.'.*X;X:X^.i , + O #   X . . ; W.>X`.&.S.U.%.N G F F F F F G G F F G G ",
"G G U U U J J K K R K K Z _.`.'.*X:X:X X+.3 +   8.8.9.9.t.K.[.F.z.X y.C.4.S J G J Y J Y U J K J J J ",
"! K U ! U ! ! K F S F U ;.L.W.W.|.|. X^.4 , O . w.0.9.X c.~.@.X 8.q.e.l.$.H W R ( Q Y Y R Q ! ! ! U ",
"/ ( ~ ( ( K M k g g g k C [ { | | | | | p p p : f.f.d.i.i.i.r.r.p.s.y.d Z I / / J n h h n M K Q ~ / ",
"_ _ ( Y M c c c j c c c c n I ) ) _ _ _ _ R D 9 i.d.d.s.p.a.a.s.p.p.< P Y J S j g g g c c j n M Y / ",
"F A m m n m m n n m n c m c n M H Y Y J D m N ] 3 e.r.r.p.u.s.r.w.: ` v h h k h j n c m n m m n n M ",
"m M M m M M m M M M M M m A M m M m M m m m M V Z '  .< 3 3 1 q ` s V M m M M M M M m M M m m M M m ",
"A F F M F F A A A A A A A A A F F F F F M F F A F F F M V F A F D D F H F F F S F F A F A F A A A F ",
"G G G K G G G G G G G J J G J J H H H K Y J J J J J G G J J K J R I H S H H J J K G G G F G G G J J ",
"Y Y Q R Y ! W U U U U U K R K ( ! K F S F H J Y R Q Q Q W U I F S m j j n n n S J Y ! Y U ! ! ! Q ! ",
"A S H J Y ! ~ ( ( ( ( ( ( ( ! G S M m m m m M A S H H G F m A m m m m m m M m m m S Y ! ( ! ( ! K F ",
"M M M M A A G R ~ / ( ~ Y F F M M M A M A A M A m M M M m A A m M A M A M M M M M M A A F F A A A M ",
"A A A A A A A A F A F A F A A A A A A A A A A A A A A A A A A A A A A A A F A F A A A A A A A A A A "
};
