/* XPM */
static char *b44971a07da4468eb86effd69c8e7aaeF7xX31Rdh2lPzmRj[] = {
/* columns rows colors chars-per-pixel */
"50 50 192 2 ",
"   c #2F3238",
".  c #353637",
"X  c #3A3735",
"o  c #3B3936",
"O  c #343638",
"+  c #393739",
"@  c #363838",
"#  c #563E2E",
"$  c #433B34",
"%  c #4D3D31",
"&  c #443F3C",
"*  c #513E30",
"=  c #53442E",
"-  c #5B412D",
";  c #5C4A2E",
":  c #4B4333",
">  c #4B4437",
",  c #514431",
"<  c #534A33",
"1  c #5D4A34",
"2  c #54463E",
"3  c #534D3D",
"4  c #5D5233",
"5  c #65432A",
"6  c #664E2B",
"7  c #6C4929",
"8  c #754726",
"9  c #7D4A24",
"0  c #784B29",
"q  c #6C542C",
"w  c #6D582F",
"e  c #7C5425",
"r  c #755D2E",
"t  c #604635",
"y  c #774F30",
"u  c #625532",
"i  c #695635",
"p  c #715C31",
"a  c #7A5F39",
"s  c #7C632E",
"d  c #6B6237",
"f  c #736032",
"g  c #3F3F41",
"h  c #3F4041",
"j  c #464542",
"k  c #534844",
"l  c #58595B",
"z  c #695449",
"x  c #755543",
"c  c #605F58",
"v  c #797651",
"b  c #74726B",
"n  c #924F1E",
"m  c #8C5F1F",
"M  c #9B521C",
"N  c #A95716",
"B  c #A45319",
"V  c #AA5519",
"C  c #B15716",
"Z  c #B45A15",
"A  c #BC5913",
"S  c #93621D",
"D  c #98641C",
"F  c #9C6B1E",
"G  c #AA6816",
"H  c #BA6813",
"J  c #AF7015",
"K  c #B07015",
"L  c #854B22",
"P  c #874E25",
"I  c #835523",
"U  c #8C5421",
"Y  c #845C22",
"T  c #895C27",
"R  c #975B2D",
"E  c #85662A",
"W  c #8A672A",
"Q  c #8C692A",
"!  c #966A26",
"~  c #8C712E",
"^  c #9B7327",
"/  c #9C762B",
"(  c #867737",
")  c #AB7C26",
"_  c #A47B28",
"`  c #AB6D3B",
"'  c #CB5D0F",
"]  c #D15F0D",
"[  c #C55C11",
"{  c #CE690D",
"}  c #D4620C",
"|  c #DD620A",
" . c #C9750E",
".. c #CB7C0D",
"X. c #D8770A",
"o. c #E66D07",
"O. c #E26309",
"+. c #E36808",
"@. c #E87407",
"#. c #EC7C05",
"$. c #E17625",
"%. c #897E48",
"&. c #916C54",
"*. c #A06F45",
"=. c #BD7953",
"-. c #887E78",
";. c #C47D55",
":. c #A98229",
">. c #B78626",
",. c #B68927",
"<. c #BB8A25",
"1. c #B18928",
"2. c #BC9026",
"3. c #D3810B",
"4. c #DC8509",
"5. c #CE8B19",
"6. c #D28D1A",
"7. c #D5921B",
"8. c #DA951C",
"9. c #DE9A1D",
"0. c #EA8605",
"q. c #ED8D03",
"w. c #F28503",
"e. c #F48C02",
"r. c #FB8E00",
"t. c #F59102",
"y. c #FC9300",
"u. c #FD9B05",
"i. c #E29D1E",
"p. c #DFA11E",
"a. c #E4A31E",
"s. c #E9A61F",
"d. c #E6A91F",
"f. c #EAAA1F",
"g. c #FCA911",
"h. c #EFB21F",
"j. c #F6B21D",
"k. c #C38B22",
"l. c #C69325",
"z. c #CC9523",
"x. c #CB9924",
"c. c #C99D29",
"v. c #D19421",
"b. c #D49B22",
"n. c #D89F22",
"m. c #E49F20",
"M. c #D6A124",
"N. c #DBA322",
"B. c #DFA823",
"V. c #C5A937",
"C. c #E4A521",
"Z. c #E9A720",
"A. c #E5AA21",
"S. c #ECAC20",
"D. c #F0AE21",
"F. c #EEB120",
"G. c #F2B421",
"H. c #F5B922",
"J. c #F9BC22",
"K. c #FFC627",
"L. c #EFCB35",
"P. c #FBD335",
"I. c #FFD837",
"U. c #F9D538",
"Y. c #908048",
"T. c #858255",
"R. c #918D5A",
"E. c #B8896D",
"W. c #B9B469",
"Q. c #D38E5D",
"!. c #EB9851",
"~. c #C9B44A",
"^. c #FDA252",
"/. c #E2986D",
"(. c #F7A475",
"). c #F0D751",
"_. c #FDE151",
"`. c #CBC571",
"'. c #FEEB6B",
"]. c #AA9F85",
"[. c #A0A1A1",
"{. c #FEB187",
"}. c #D9B5A1",
"|. c #E2BCA7",
" X c #F5C993",
".X c #FEF584",
"XX c #FFF985",
"oX c #ECCDAC",
"OX c #FDCFB5",
"+X c #FEF0C7",
"@X c #FBF8F5",
"#X c white",
/* pixels */
"i.m.i.i.m.i.C.a.C.C.s.Z.C.a.i.m.i.m.i.m.i.a.i.i.i.i.a.m.9.m.m.m.a.a.i.i.i.a.i.a.i.i.i.i.i.i.i.C.i.i.",
"9.9.i.i.a.s.S.S.G.j.G.G.S.f.a.a.i.9.i.9.9.9.9.i.m.9.9.i.i.9.9.9.9.9.8.i.i.i.i.8.i.i.9.9.a.a.s.s.Z.a.",
"C.a.A.f.h.G.G.H.H.H.H.J.H.G.G.f.s.i.9.9.9.9.i.i.9.a.C.d.d.s.C.9.8.9.8.9.8.9.8.8.9.8.9.a.f.G.G.G.G.F.",
"S.S.F.F.F.G.f.G.D.D.D.D.G.D.F.F.f.f.a.a.a.s.s.f.S.S.F.F.F.F.f.f.a.a.9.7.8.7.8.9.9.a.f.f.f.G.G.j.G.D.",
"Z.D.S.Z.f.S.Z.Z.Z.Z.Z.S.S.Z.S.A.S.f.d.d.S.f.f.f.C.f.f.f.S.S.S.f.f.d.d.a.p.p.a.p.d.f.f.f.f.f.s.s.Z.S.",
"i.a.i.i.i.a.i.C.i.m.m.i.m.a.a.C.a.a.a.s.s.p.<.) T ! >.v.a.a.a.a.d.d.a.a.a.d.d.a.d.a.a.a.a.a.i.i.i.a.",
"i.i.i.8.i.i.i.i.i.9.i.9.9.9.9.9.9.9.a.a.p.7.: - | M . _ i.i.9.9.9.9.9.p.9.9.9.9.9.9.9.9.i.i.i.i.9.9.",
"m.i.i.8.7.8.6.6.8.8.6.7.8.8.8.p.a.A.,.E E s o $ L 5 . ! 8.7.7.7.7.7.7.7.7.7.7.8.6.6.6.7.6.7.7.7.8.8.",
"G.G.S.s.9.7.7.6.6.6.6.6.7.8.p.F.F.H.~ O X o o . . X . ! 6.5.5.7.7.7.8.9.p.a.a.p.9.7.5.5.5.5.6.7.8.9.",
"H.H.H.G.h.s.9.5.5.5.5.6.9.A.M.u 4 u F 3....... .A A A 9 4 5.p.p.d.A.f.h.h.h.G.G.h.d.p.8.6.7.7.9.a.S.",
"G.G.G.G.G.G.f.s.p.9.n.s.A.N.2.; , , K y.y.y.r.w.[ ' O.9 @ l.F.F.j.F.G.G.H.G.G.G.h.h.F.f.d.d.f.S.F.G.",
"S.S.S.S.S.f.G.S.A.S.S.h.A.4 ; 0.q.q.t.y.y.y.o.A X L O.8 @ z.H.F.D.D.D.D.h.f.S.S.h.h.f.h.h.h.F.S.F.S.",
"a.a.Z.Z.a.Z.Z.S.f.F.f.<._ E S t.y.y.y.y.w.#.V R b &.B L 8 / ,.C.Z.Z.Z.Z.Z.s.s.s.a.s.d.f.f.d.f.S.f.s.",
"i.i.i.i.i.i.m.i.a.a.a.w X 4.y.y.y.y.t.y.o.' $ c +X].O M | 1 2 b.i.m.m.i.i.a.i.a.a.a.C.S.F.S.S.Z.s.a.",
"i.i.i.9.i.i.8.i.9.9.9.w X 4.y.y.y.y.w.@.n y ].W.!.*.. M | t 3 v.i.8.i.9.i.i.i.i.C.A.F.H.H.H.G.G.F.S.",
"i.9.8.8.i.8.8.8.8.9.9.r : 3.t.q.q.q.@.| t k oX X} M . B | t 3 v.9.8.8.8.8.9.N.F.F.H.H.H.H.H.H.H.G.H.",
"d.a.a.a.p.p.p.a.a.s.f.n.z.w = , = = G r.{ [ $.` # L [ ] ] t 1 B.d.p.9.p.N.A.F.F.H.F.G.G.j.G.D.G.G.G.",
"F.h.F.f.f.f.f.F.f.f.h.H.A.< O k 3 k ! ..o.o.| [ # n O.O.] t k C.h.A.A.F.A.F.F.F.F.S.S.F.S.D.S.D.S.D.",
"A.f.S.f.f.f.S.S.h.f.f.f.p.< j =.;.;.x X  .y.O.O.| ] O.| | t 3 N.S.S.F.S.h.S.d.d.s.Z.S.s.s.f.f.s.Z.S.",
"s.s.s.f.S.F.S.G.H.F.G.f.N.: k }.|.|.E.&.! G | ] | | O.| | t 3 b.a.a.s.A.s.a.a.a.a.a.C.i.i.a.a.a.a.a.",
"i.a.S.F.G.H.H.J.J.J.H.H.A.< l @X#X#XOX(.z $ ' | | | | | } t 3 n.p.9.p.9.9.9.9.9.i.i.9.9.i.i.9.9.i.i.",
"s.F.G.G.H.J.J.H.H.H.H.H.F.< h b [.#XOX(.z $ ] ] | | | O.| 1 3 A.h.A.d.s.a.d.a.a.9.8.8.9.9.9.9.9.9.9.",
"F.G.F.G.D.D.D.D.D.G.F.F.S.< . $ -.@XoX/.x # ' O.| | O.] [ i i A.F.h.F.F.h.F.F.F.f.s.p.9.8.8.8.9.9.7.",
"F.S.S.S.D.S.D.S.S.S.S.S.C., k /.(.{.&.& V ] ] O.| | ] P 2 2.B.S.F.S.h.F.F.h.h.f.f.f.d.d.a.9.9.9.i.i.",
"C.Z.Z.Z.s.s.s.s.s.s.s.s.a.E f E.Q.^.` 5 [ | | | | | O.0 g l.Z.Z.a.d.d.s.s.s.s.s.f.f.h.A.f.d.f.d.s.s.",
"i.a.i.a.i.a.i.i.i.a.i.i.a.i.l.@ e y.#.] | O.| | O.O.O.y g k.Z.m.a.a.a.a.i.a.a.a.a.d.A.F.F.H.F.F.f.d.",
"i.9.9.9.i.i.i.i.9.9.9.p.9.a.N.:.^ m m 9 9 9 9 L L 9 9 ! / z.i.i.9.9.9.p.i.i.i.s.S.F.G.H.H.H.H.H.G.h.",
"8.9.9.8.7.8.8.9.9.9.p.p.d.F.h.j.1.. . O o o o + O O + _ h.a.i.i.p.9.p.p.a.a.f.h.G.G.G.H.H.H.G.H.H.G.",
"p.9.9.9.8.9.9.i.a.d.d.h.F.G.M.u I A 8 O G 3.4.K . 7 A I 4 M.h.h.h.d.f.f.F.F.j.h.F.F.F.F.D.D.D.D.G.F.",
"d.d.d.a.a.a.d.d.d.f.f.h.f.S.z.o 5 [ L # ..y.y. .. 9 O.8 @ :.x.x.x.c.x.x.x.x.x.x.x.b.S.S.f.s.f.f.S.f.",
"d.d.d.d.d.d.d.d.s.s.s.a.s.s.k.o + X n | w.y.o.A . 9 +.8   @ o o o o o h o o X X X r Z.s.a.a.a.i.a.a.",
"i.a.i.i.a.a.i.i.i.i.i.i.i.i.z.E u . 7 M X.#.V n 8 L M L 9 e m Y E ( ( s Y.T.T.T.T.%.^ k.i.i.i.i.9.i.",
"8.8.8.i.8.9.9.9.9.8.9.8.9.a.d.j.:.@ O O C ] $ # O.M   M O.r.y.y.g.I.I.I.'..X'.XXXXW.O Q 9.i.8.8.8.9.",
"8.7.7.7.6.8.8.6.8.9.9.d.f.h.p.s T B V B 9 8 M C O.M O # 8 { #.r.u.g.J.I._._._._.).).W.Y.q >.8.7.7.7.",
"6.6.7.8.6.8.9.i.a.d.f.f.f.h.x.: 8 } ] } 5 % ' | ] n + o $ Z } e.r.r.j.P.P.P.L.L.)._.XXR.O J 8.7.7.6.",
"8.8.9.i.i.a.d.s.d.f.s.s.f.d.d.b._ % % * V ' O.[ % $ O / n.6 - | #.y.u.u.K.U.d d P._.XXR.. k.i.i.9.9.",
"d.a.s.d.a.s.s.i.s.i.i.i.s.a.a.s.) . . . n A Z M . % 7 ^ <.r q V A ......c.V.p a V.~.`.v . >.a.a.a.s.",
"i.i.i.i.i.i.i.i.i.i.i.i.i.i.i.s._ O O O O . . .   Y y.I @ k.z.$ O O . . . $ k.k.o @ + . . >.a.a.i.i.",
"i.8.i.9.9.i.9.i.i.i.i.i.i.i.6.Q ! D D D D m $ : S H #.G L E W W W W W W W Q 7.v.Q Q W W W 5.i.9.i.i.",
"d.i.i.8.8.8.7.9.8.8.8.8.8.8.>.o e y.y.y.y.q.: t y.w.| | | - : 7.i.8.i.8.8.9.9.8.8.i.8.9.8.9.8.9.a.s.",
"H.G.S.C.p.9.8.7.6.6.7.7.7.5.5.:.^ 6 N @.I q 2.1.6 M O.n 5 :.z.C.9.7.7.7.7.7.8.7.7.7.6.7.8.9.d.f.G.H.",
"G.G.G.F.F.d.p.9.8.7.7.8.8.p.p.h.1.> U ' 7 4 A.b.> e ' 9 3 b.H.D.f.p.7.5.6.6.5.5.6.6.6.9.d.h.h.h.G.G.",
"S.G.S.G.F.F.G.S.f.A.S.A.f.h.h.h.S.A.W $ ,.C.S.Z.A./ . _ C.S.D.D.h.h.d.8.5.6.5.5.6.8.a.f.S.G.h.F.D.D.",
"Z.S.S.S.S.S.S.D.j.S.F.S.h.f.h.f.S.S.) p z.D.S.S.D.<.p k.f.A.D.Z.f.f.f.f.a.a.p.p.a.f.h.f.S.S.S.S.Z.D.",
"a.s.Z.s.Z.s.s.Z.Z.Z.Z.Z.s.s.s.a.s.C.s.s.s.Z.s.s.Z.s.s.s.S.Z.S.Z.f.d.h.d.d.f.d.s.f.f.s.s.Z.Z.Z.s.Z.s.",
"i.a.a.i.a.a.s.Z.S.S.S.D.d.s.a.i.i.a.a.i.i.i.a.a.a.s.f.S.D.D.G.J.j.j.F.f.s.s.s.a.i.a.i.a.a.i.a.i.i.i.",
"i.i.i.i.a.S.D.D.J.G.H.G.H.S.S.a.a.i.i.9.i.a.s.s.S.j.G.H.J.J.J.J.J.H.H.H.F.f.d.s.i.i.i.i.i.i.i.i.i.i.",
"i.i.a.S.D.G.G.H.G.G.G.G.G.G.G.S.A.a.a.s.s.f.S.F.G.G.G.G.D.H.D.D.H.H.H.G.G.G.G.f.f.s.a.a.a.a.s.S.f.C.",
"a.f.D.D.G.D.D.D.D.D.D.D.D.D.D.D.D.D.G.f.G.G.G.f.D.D.D.D.D.D.S.D.S.D.D.D.D.D.G.D.G.f.G.G.f.G.G.D.G.S.",
"D.f.S.f.f.f.s.D.Z.D.Z.Z.S.S.S.Z.f.D.f.D.S.S.D.S.Z.f.S.S.S.Z.S.S.Z.S.Z.S.D.S.S.S.S.S.f.S.S.f.f.D.S.S."
};
