/* XPM */
static char *_a66123b80e54c21edf95dbd49c5702c3DMwvELHqUXXQ07c[] = {
/* columns rows colors chars-per-pixel */
"50 50 208 2 ",
"   c #351D10",
".  c #3D2513",
"X  c #472A15",
"o  c #462819",
"O  c #4D2C19",
"+  c #502F18",
"@  c #4C3111",
"#  c #533215",
"$  c #573B15",
"%  c #56331A",
"&  c #5B351A",
"*  c #5F381A",
"=  c #623A1C",
"-  c #693E1C",
";  c #42332D",
":  c #5A3521",
">  c #663E2A",
",  c #64451B",
"<  c #6D421D",
"1  c #68491E",
"2  c #73431E",
"3  c #734B1A",
"4  c #7D4D1C",
"5  c #79561A",
"6  c #544836",
"7  c #684323",
"8  c #754520",
"9  c #794721",
"0  c #7C4921",
"q  c #73432A",
"w  c #734F31",
"e  c #7A5737",
"r  c #6D5F59",
"t  c #7D6846",
"y  c #7A6B56",
"u  c #746A66",
"i  c #85571E",
"p  c #845B1A",
"a  c #8A5B1D",
"s  c #8B631E",
"d  c #936B1C",
"f  c #996D1C",
"g  c #AE7B1E",
"h  c #834D23",
"j  c #875323",
"k  c #8B5D24",
"l  c #85532B",
"z  c #955F26",
"x  c #895835",
"c  c #985735",
"v  c #A65E34",
"b  c #8B6A28",
"n  c #996C23",
"m  c #926E2F",
"M  c #94712D",
"N  c #866A3D",
"B  c #9C653D",
"V  c #A16F21",
"C  c #AD7D23",
"Z  c #A86239",
"A  c #8F6749",
"S  c #986846",
"D  c #9D7749",
"F  c #957C57",
"G  c #A26744",
"H  c #AD724C",
"J  c #9B7B60",
"K  c #827F7F",
"L  c #C36C40",
"P  c #C37246",
"I  c #D77D4D",
"U  c #BD871E",
"Y  c #B38725",
"T  c #B88729",
"R  c #AF8333",
"E  c #B18B33",
"W  c #B68836",
"Q  c #C5811D",
"!  c #C9851E",
"~  c #CD8A1F",
"^  c #D1901F",
"/  c #C58B26",
"(  c #CD8B21",
")  c #D28D21",
"_  c #C79628",
"`  c #CF952C",
"'  c #D69221",
"]  c #DA9522",
"[  c #D79823",
"{  c #DE9A23",
"}  c #DC9B2B",
"|  c #CC9534",
" . c #C39539",
".. c #D59932",
"X. c #D29B34",
"o. c #D09B3A",
"O. c #E29E24",
"+. c #E19E2B",
"@. c #DEA124",
"#. c #D7A131",
"$. c #DCA53A",
"%. c #E5A224",
"&. c #E9A525",
"*. c #E7AA25",
"=. c #EDAB25",
"-. c #ECA826",
";. c #ECA926",
":. c #EDAA26",
">. c #EAAD25",
",. c #EDAE26",
"<. c #E5A32B",
"1. c #E8A629",
"2. c #E5AD29",
"3. c #ECAC2B",
"4. c #F0AD27",
"5. c #F0AE26",
"6. c #F1AF28",
"7. c #EAB127",
"8. c #EEB126",
"9. c #E6B12C",
"0. c #EDB229",
"q. c #F2B126",
"w. c #F1B326",
"e. c #F4B227",
"r. c #F1B527",
"t. c #F2B426",
"y. c #F5B427",
"u. c #F4B727",
"i. c #F5B827",
"p. c #F5B927",
"a. c #F6BA27",
"s. c #F3B529",
"d. c #F6B929",
"f. c #F6BB29",
"g. c #F9BA28",
"h. c #F9BD29",
"j. c #E2A332",
"k. c #EAAB33",
"l. c #E2A839",
"z. c #ECB635",
"x. c #F2B634",
"c. c #F3BC32",
"v. c #F6BB3A",
"b. c #F9C236",
"n. c #9A8056",
"m. c #BC9648",
"M. c #A98B56",
"N. c #BE9D51",
"B. c #9A8D7A",
"V. c #AB8869",
"C. c #BA9C63",
"Z. c #B5957D",
"A. c #C49847",
"S. c #C99943",
"D. c #DC8351",
"F. c #D88757",
"G. c #DF8C5B",
"H. c #C59C55",
"J. c #DF915F",
"K. c #E08D5C",
"L. c #C9A24F",
"P. c #D6A444",
"I. c #E2AC47",
"U. c #E4B44F",
"Y. c #E4B849",
"T. c #F2BA49",
"R. c #C99065",
"E. c #D29265",
"W. c #D99566",
"Q. c #DC9C6C",
"!. c #E19564",
"~. c #E39C6B",
"^. c #CBAD74",
"/. c #E4A16F",
"(. c #E4B962",
"). c #E5A472",
"_. c #E6AE7D",
"`. c #E9AF7D",
"'. c #F8C443",
"]. c #E2C57F",
"[. c #8A8784",
"{. c #928E8B",
"}. c #A39580",
"|. c #A09D9B",
" X c #ABA59F",
".X c #BFB39E",
"XX c #AAA8A8",
"oX c #B9B6B3",
"OX c #D6B683",
"+X c #CAB898",
"@X c #CBB7A7",
"#X c #C1BDBA",
"$X c #D8CAB8",
"%X c #DDD2BE",
"&X c #F3DBB0",
"*X c #C1C0C0",
"=X c #CBCBCD",
"-X c #D4CEC4",
";X c #DFD2C7",
":X c #D2D1D2",
">X c #E1D4C9",
",X c #F3E6D0",
"<X c #E3E3E3",
"1X c #F0E9E5",
"2X c #F6F1E8",
"3X c #EFF0F1",
"4X c #F7F6F4",
"5X c #FDFCFC",
/* pixels */
"%.&.&.%.%.%.%.%.&.O.%.O.&.O.%.&.&.%.%.%.%.%.&.%.%.%.%.&.%.&.%.%.%.%.%.%.%.&.%.%.%.%.%.%.%.%.%.%.&.&.",
",.=.=.=.=.-.=.=.-.=.-.-.-.=.&.&.=.=.-.4.-.=.-.-.-.=.-.-.-.-.&.-.=.=.-.-.-.-.-.*.,.=.-.=.-.-.-.,.&.4.",
"%.*.,.8.4.6.=.4.=.4.=.,.4.4.4.t.8.t.t.4.4.t.4.=.4.4.4.4.-.4.4.-.4.=.,.t.4.t.t.8.8.4.t.t.t.,.4.4.=.&.",
"] { O.%.e.g.e.e.e.e.e.e.e.g.4.,.%.%.%.%.*.t.t.g.t.t.4.e.e.e.e.e.y.y.e.e.y.r.-.%.%.O.O.%.=.=.=.%.{ ^ ",
"O.O.O.O.O.&.,.u.g.a.y.g.y.t.%.O.O.{ O.O.O.O.%.=.t.a.y.g.g.g.g.g.h.h.s.,.&.O.O.O.^ %.O.O.{ O.O.{ O.O.",
"O.O.&.O.O.%.O.%.&.-.*.-.%.%.O.O.%.%.&.O.O.O.O.O.%.&.=.t.y.g.a.y.q.=.%.O.O.O.O.O.%.%.O.%.O.O.O.O.%.%.",
"O.-.&.O.&.&.&.&.&.&.&.&.%.&.&.%.O.%.%.%.O.%.&.&.%.&.%.%.%.&.&.&.%.*.&.*.=.*.=.-.%.%.%.%.&.&.%.&.&.%.",
"&.-.=.&.=.=.=.=.,.,.4.,.=.=.=.*.=.=.-.-.-.-.-.-.&.&.-.-.-.&.-.=.>.8.>.*.%.%.1.4.4.,.4.=.-.-.-.-.-.&.",
"4.4.4.6.4.8.t.8.7.7.7.7.e.t.4.t.4.4.,.,.4.4.=.4.=.4.4.4.6.4.,.e.=.+.( ! Q Q Q ) %.8.t.t.,.4.4.*.4.4.",
"4.e.u.u.t.=.%.[ ~ ~ ~ ^ ] ^ %.,.a.y.r.t.e.e.4.4.e.t.6.u.s.s.t.&.' ( ( ) ) ) ) ( ! ^ %.e.r.y.y.t.e.e.",
"a.d.8.%.O.' ^ ^ ' ) ' ) ~ ~ ! ( ^ @.>.a.d.g.g.g.g.g.g.g.s.0.{ ' ] ] ' ' ' ' ' ' ' ^ ^ ^ &.8.y.h.a.g.",
"%.{ { ] ] O.O.^ ] [ [ { O.] ] ' ^ ^ ) { *.t.h.h.g.h.g.e.%.] ] } ..} ] ] O.] } ] ] ] O.O.^ ^ O.&.=.=.",
"{ { { ^ O.O.{ { { O.O.] O.^ O.O.O.] ^ O.' ] %.*.,.*.&.{ } +.O.+.j.+.j.l...` ..} { { { { O.{ { ] { { ",
"O.O.O.%.O.O.%.O.O.O.O.O.O.%.O.O.O.O.O.O.O.O.O.{ +.j.$.o.| o.X.j.O.O.j.S.H.L. .1.O.O.O.O.O.O.O.%.O.%.",
"%.%.*.%.*.&.&.&.O.&.%.%.&.O.&.O.&.O.%.&.<.k.1.j.S.m 5 i k k a V / O.} S.&X&XA.} %.&.%.&.*.&.*.-.&.&.",
"^ ' ] { O.O.*.%.=.=.=.&.-.=.&.=.=.=.3.k.k.3.k.R $ 7 B.$X;XS H V.n g o.M %X2XM...4.,.*.%.%.{ ] ' ^ ^ ",
"' ) ' ) ) ) ] ^ { %.>.0.4.4.,.=.6.3.3.3.v.I.m q J >X1X>X@XS @X,XB 4 , }.3X5X@Xm.{ [ ^ ' ) ) ) ) ) ' ",
"' ] ^ ] ] ' ] ^ ' ' ' { *.8.s.c.x.v.T.(.C.e e @X2X@XS l h h x A j h X |.5X5X4XOX( [ ' ' ' ] ] ] ' ^ ",
"O.O.{ ] O.] ) O.{ { { ] { { X.C m N A e - l ;X5X}.j h j h h - - h h 2 ;  X.X+X^./ ] ] O.{ ] ] { O.^ ",
"O.O.%.O.%.%.O.%.O.@.%.{ %.X.1 * 2 2 2 0 h j Z.V.l h h - 0 h h h h 2 2 & w E W _ ' O.O.O.O.{ O.O.O.O.",
"%.*.,.>.>.>.>.*.*.&.*.1.*.n < 8 4 h h h 8 h h - 0 h h h h h - h h 0 0 4 n <.&.&.1.1.%.%.%.&.&.%.-.-.",
"*.&.%.O.{ O.%.*.>.>.7.8.%.p 3 h 0 2 0 8 2 h h 0 h h - h h h - h h h h j Y 9.*.3.,.=.=.=.&.=.,.,.4.4.",
"{ ] ^ ] ' ' ' [ { { &.8.@.a # O % : O o = - h h h h h h h h l h h 2 h s / 0.t.s.x.t.t.t.t.t.4.r.e.e.",
"{ ] { { { ] ] { { ] { { Q # e R.Q./.R.S o X 0 h 0 - l h - h - h h - 2 a / 2.8.c.c.r.g.s.y.a.y.r.8.O.",
"{ O.O.O.O.O.O.O.O.O.O.O.f q ).~.K.!.~.OXJ.> X h 0 0 h h - h 0 - - = # a ! O.O.3.z.a.a.a.g.a.,.&.O.O.",
"%.%.%.%.O.O.%.O.&.O.O.O.d v K.I ~.).).OXOX~.> & h h h h h 0 > O & = * i / %.%.%.*.*.*.8.>.*.*.&.&.%.",
"*.*.&.-.=.&.-.-.&.1.1.1.s v W.!.).I I ).`.`.F.& - h - h 9 = = = = = = 4 C <.-.*.4.8.,.%.%.O.%.&.>.8.",
"t.t.=.=.4.4.-.4.3.4.,.x.m v /.K.v c h P ).).~.c = h h 0 = O = = = $ = 3 Y z.t.=.%.{ ] ] ^ ^ ] ] ^ ,.",
"*.8.a.y.t.y.y.y.d.q.s.v. .z I c A =X{.> K.~.G.L O 2 = = * & = = = * 2 f 2.,.%.^ { [ ' ] ^ O.O.] O.^ ",
"^ O.,.r.a.g.h.h.h.b.'.'.T.z > K 4X5XoX> D.).I I O & + = = = & = = < p T } { ^ O.{ { { O.{ O.O.^ O.O.",
"&.%.%.%.=.,.y.a.b.U.N.m.m.t [.4X4X=Xu c K.).!.W.O % = O & = + & , 5 T <.O.{ O.O.O.O.O.%.O.O.O.O.O.O.",
"%.=.*.&.&.=.&.*.k. .+X$XB.oX5X<XXXr G Q._.!.!.E.  & = & = = O 0 W $.k.*.&.&.%.-.%.%.%.%.-.%.%.-.%.%.",
"=.,.8.,.8.,.8.8.0.P.,X5X5X5X:X[.; H )./.J.K.).H   = = = , , M U.c.0.8.8.8.8.>.=.=.*.*.=.=.=.=.=.,.*.",
"8.8.*.*.%.%.%.-.*.#.^.-X5X*Xu 6 . x Q.).~.).E.& . & - 3 f X.z.9.<.@.@.2.8.y.t.8.e.4.t.,.4.t.6.,.t.t.",
"%.^ ^ ] ] ] ] { [ } R y <X[.y OXW 5 7 x Z B 7 X = # , Y 9.7.{ ] ' ' [ ] { 2.d.d.y.i.r.d.t.a.y.a.a.t.",
"O.] O.O.O.^ O.^ } { P.F #X[.n.Y.2.#.d $ @ $ 3 p p b A.z.{ ] { ] { { { { { { *.0.d.h.h.d.h.d.t.,.%.O.",
"O.O.O.O.O.O.O.O.<.O.I.D F D S.l.] O.} / Y U _ @.2.z.k.{ ^ { O.O.O.O.O.O.O.O.O.O.%.=.0.8.>.&.%.O.O.O.",
"O.O.O.%.&.%.&.&.k.3.z.$.{ } k.*.&.%.O.1.@.@.@.O.@.@.%.^ %.&.%.&.&.&.&.&.O.&.&.%.%.%.%.%.*.&.%.%.%.%.",
"=.-.4.4.=.=.4.,.T.z.0.0.,.3.*.3.4.1.=.=.&.3.=.*.*.*.*.,.>.,.=.,.=.&.=.=.-.=.=.=.,.4.*.,.,.,.=.=.=.=.",
"4.4.4.4.4.y.r.,.%.@.@.7.r.s.q.q.4.4.,.t.4.4.e.t.s.r.r.y.r.t.t.t.t.t.4.8.4.t.4.4.y.t.8.7.t.t.4.t.4.t.",
"a.y.a.d.y.8.O.~ ! ! ! ~ { 0.d.a.e.a.y.a.y.a.a.r.>.%.{ { { %.-.t.y.a.a.d.a.a.a.e.*.^ ~ ~ ' O.,.y.y.a.",
"h.h.d.8.O.) ) ) ) ~ ) ) ) ] *.d.b.h.b.a.h.t.&.^ ( ( ^ ~ ~ ~ ~ ~ ^ ^ %.%.*.*.%.^ ! ! ~ ) ~ ) ^ { 4.p.",
"%.O.] ] ' ' ' ' ' ' ' ' ' ' [ { *.0.r.8.%.^ ^ ' [ ' ] ' [ ^ ^ ' ^ ^ ^ ~ ~ ~ ^ ~ ' ' ^ ' ' ' ] [ [ [ ",
"] { { ] { ] ] ] O.{ { ] { { { { ] ] O.^ ^ { %.O.] { ] O.] { { ] ] O.O.%.^ { O.^ ] ] ] O.O.] ] { O.] ",
"O.%.O.O.%.O.O.O.O.O.O.O.O.O.%.O.O.%.%.%.%.O.%.%.%.O.%.O.O.%.O.%.%.%.%.%.&.%.%.%.%.O.O.%.O.O.O.O.O.%.",
"*.*.*.=.&.*.=.-.&.&.&.=.*.&.&.=.=.*.>.*.>.,.*.>.,.&.*.&.=.*.=.,.>.*.*.O.%.*.>.>.=.*.&.&.&.-.-.&.-.=.",
"8.,.y.t.8.t.4.4.6.,.,.=.=.t.t.t.8.>.%.O.%.*.>.8.t.t.r.t.t.,.=.%.O.^ ^ ^ ^ ' ^ @.>.8.t.8.t.=.t.4.y.r.",
"{ O.&.*.t.r.y.u.g.g.a.g.d.u.t.*.O.{ ] O.^ ] { { { &.&.*.%.O.] ' ] ] O.^ { ] { ] { O.t.r.y.a.a.t.,.%.",
"{ { { { O.O.&.t.r.s.g.s.,.&.%.{ { { O.{ O.O.{ O.] { { O.] ] O.O.O.O.O.O.{ O.] O.O.] O.O.%.%.%.O.O.] ",
"{ %.O.%.O.O.O.O.%.O.%.O.%.O.O.O.O.O.O.O.O.O.O.O.O.O.O.O.O.+.O.O.O.O.O.O.O.O.O.O.O.O.O.O.O.O.O.O.O.O."
};
