/* XPM */
static char *_8c56cdc740c4189a14cf5a036efd537dsthjAws49wpgMTw[] = {
/* columns rows colors chars-per-pixel */
"50 50 188 2 ",
"   c #363637",
".  c #393736",
"X  c #3B3936",
"o  c #353638",
"O  c #3B3B3C",
"+  c #563E2D",
"@  c #423D34",
"#  c #493E31",
"$  c #423E3D",
"%  c #503C30",
"&  c #5B402D",
"*  c #5A482D",
"=  c #464135",
"-  c #4C4434",
";  c #4C423F",
":  c #514734",
">  c #544B35",
",  c #5A4F37",
"<  c #5D5134",
"1  c #59513D",
"2  c #6B4E25",
"3  c #64422B",
"4  c #694529",
"5  c #65482A",
"6  c #724627",
"7  c #754B26",
"8  c #77492A",
"9  c #6C5028",
"0  c #745326",
"q  c #7A5623",
"w  c #7C5128",
"e  c #795A2A",
"r  c #634F37",
"t  c #625232",
"y  c #695633",
"u  c #6C5A32",
"i  c #715B33",
"p  c #7F632F",
"a  c #6D6338",
"s  c #3D3F40",
"d  c #3F4040",
"f  c #5C4E46",
"g  c #51524B",
"h  c #614F44",
"j  c #6B5649",
"k  c #686649",
"l  c #63625A",
"z  c #716E62",
"x  c #8F4D1F",
"c  c #96501D",
"v  c #9D511C",
"b  c #A2531A",
"n  c #AB5719",
"m  c #AB571A",
"M  c #B45716",
"N  c #B65914",
"B  c #BC5913",
"V  c #97651D",
"C  c #A96A17",
"Z  c #A56718",
"A  c #BF6212",
"S  c #B66E13",
"D  c #B97715",
"F  c #844B22",
"G  c #884C21",
"H  c #825B23",
"J  c #875B29",
"K  c #965929",
"L  c #915B32",
"P  c #88672A",
"I  c #926829",
"U  c #926B2A",
"Y  c #8F712F",
"T  c #9E7A2F",
"R  c #856730",
"E  c #856A30",
"W  c #9F7A32",
"Q  c #B6652A",
"!  c #A0772A",
"~  c #A37B2C",
"^  c #A97E2C",
"/  c #A07A32",
"(  c #CC5E0E",
")  c #DB5F07",
"_  c #C35C12",
"`  c #CE6B0E",
"'  c #D6620C",
"]  c #DD620A",
"[  c #CC7C0D",
"{  c #D87A0A",
"}  c #C36410",
"|  c #C27210",
" . c #E36707",
".. c #E16309",
"X. c #E97606",
"o. c #F07D04",
"O. c #956B53",
"+. c #827F54",
"@. c #AA7757",
"#. c #8A7C74",
"$. c #C17B54",
"%. c #A9812D",
"&. c #B1842C",
"*. c #B7882B",
"=. c #BC8C2B",
"-. c #BC902C",
";. c #AB8531",
":. c #D3810B",
">. c #DC8509",
",. c #CF911F",
"<. c #D1921F",
"1. c #EF8703",
"2. c #EB8C04",
"3. c #F38403",
"4. c #F78E01",
"5. c #F79201",
"6. c #FB9400",
"7. c #E88714",
"8. c #FBB21A",
"9. c #CF8F20",
"0. c #C5932B",
"q. c #C89229",
"w. c #CD982A",
"e. c #D49520",
"r. c #D99721",
"t. c #D69921",
"y. c #DD9C22",
"u. c #D69A28",
"i. c #D99D28",
"p. c #E49E23",
"a. c #DDA123",
"s. c #DCA128",
"d. c #DCAA2A",
"f. c #C7AB37",
"g. c #D6B736",
"h. c #E6A124",
"j. c #E9A524",
"k. c #E4AB24",
"l. c #EDAA26",
"z. c #E4A728",
"x. c #E3AC2A",
"c. c #EAAC29",
"v. c #EEAE29",
"b. c #F1AD26",
"n. c #F0AE28",
"m. c #ECB225",
"M. c #E3B128",
"N. c #EDB129",
"B. c #EEB22A",
"V. c #F5B326",
"C. c #F8B627",
"Z. c #F6B926",
"A. c #F9BB27",
"S. c #F2B42A",
"D. c #F5BB2A",
"F. c #F9BD28",
"G. c #FBC127",
"H. c #F4C12C",
"J. c #FBC229",
"K. c #FBCA2E",
"L. c #EACA3C",
"P. c #F8D336",
"I. c #FDD739",
"U. c #959059",
"Y. c #AEA560",
"T. c #BFB96C",
"R. c #E88F46",
"E. c #C1BC6E",
"W. c #D2AA7C",
"Q. c #F6A373",
"!. c #FEDE47",
"~. c #FADB48",
"^. c #DDD06A",
"/. c #FAEE78",
"(. c #FFF173",
"). c #8A8B8C",
"_. c #AB9C80",
"`. c #D1AD8E",
"'. c #F4C48C",
"]. c #FEF481",
"[. c #DBCFAD",
"{. c #DAD0AF",
"}. c #ECCAB6",
"|. c #FFDFCD",
" X c #FAE8C5",
".X c #FFF2C8",
"XX c #E8EBEC",
"oX c #FDFFFF",
/* pixels */
"h.p.h.h.h.p.p.h.h.p.h.p.j.p.h.h.h.h.h.h.p.j.p.r t p.p.p.j.p.p.j.h.h.h.p.j.p.h.h.p.h.p.j.h.j.l.j.h.h.",
"h.h.h.h.h.h.h.h.h.h.h.h.p.j.h.h.h.h.h.h.p.p.u.r 9 r.p.p.p.h.p.p.j.j.h.h.j.p.h.h.j.p.p.p.j.j.l.j.h.h.",
"h.h.h.h.h.h.j.h.j.h.h.h.j.h.h.h.h.h.j.l.v.&.: n n : *.j.j.j.j.j.j.l.j.h.h.h.h.h.h.h.j.j.h.j.j.j.h.h.",
"h.h.j.h.j.h.j.h.h.h.h.p.p.h.h.h.h.h.l.b.n.^   G F o R ! ! 9.j.j.h.j.h.h.h.h.h.h.h.j.h.h.h.h.h.h.h.h.",
"j.h.j.h.j.h.j.h.j.j.j.j.p.p.p.u.h.h.p.l.p.^ X X X @ X X X ! p.p.p.j.h.j.j.j.j.j.j.h.<.<.h.j.h.h.h.j.",
"h.j.h.j.h.j.h.j.j.j.j.p.h.p.9.9.p.j.p.p.i F B B } :.:.:.{ P > : ~ l.j.h.j.p.j.p.j.y.,.,.<.h.j.j.j.h.",
"j.j.j.j.j.j.j.j.j.j.j.j.j.p.9.9.r.j.j.p.; 6 ..B A 3.4.6.6.C 0 0 I *.p.j.j.j.j.j.j.p.e.<.<.h.j.j.j.j.",
"j.j.j.j.j.j.j.j.j.j.j.j.j.p.p.p.p.j.j.p.> 8 ' + 3 ] 3.6.6.6.6.6.V - r.j.j.j.j.j.j.j.p.,.j.j.j.j.j.j.",
"j.j.j.j.j.j.j.j.j.l.j.j.j.j.j.j.j.l.^ y n c 4 _._.3 } o.6.6.6.6.>.D e ~ h.j.j.j.j.j.j.j.j.j.j.j.j.j.",
"8.b.l.j.j.j.l.j.j.b.n.b.j.j.l.j.j.l.W $ _ b o `.`.l K _ 3.4.5.6.6.2.# R j.l.l.j.b.j.j.j.j.l.j.l.j.l.",
"B.n.j.j.j.l.l.j.n.B.S.n.l.j.l.j.l.l.T $ _ b . B i. Xz + ' o.6.6.5.2.# E l.j.l.j.j.j.j.l.l.j.j.j.j.b.",
"l.l.j.b.j.l.j.j.l.B.S.S.l.l.j.j.j.l.T g _ ( b 6 L R.Q M 3.C e w w H ^ q.l.j.j.l.l.l.j.l.j.l.j.b.l.b.",
"l.j.j.l.l.l.j.l.l.n.n.l.l.j.j.l.l.b.! % _ ] ] 6 8 ) ..X.>.q $ % $ # i.l.l.l.l.l.l.l.l.l.j.l.l.j.j.l.",
"l.l.l.l.l.j.l.l.l.l.l.l.l.l.l.l.j.b./ ; _ ..] ' ' ] 3.[ @ O.$.$.j @ u.b.l.l.p.p.l.j.l.j.b.j.j.p.<.j.",
"l.l.l.l.l.l.l.l.l.l.l.l.l.l.l.l.l.l./ $ _ ] ] ] ] ] n I O.`.}.|.#.- u.v.b.p.r.p.j.l.b.j.b.l.l.<.<.h.",
"l.l.l.l.l.l.l.l.l.l.l.l.l.l.l.l.l.l./ ; _ ] ] ] ] ] 3 f Q.|.oXXX).@ i.S.S.y.9.r.p.b.j.b.l.l.l.<.<.j.",
"l.l.l.l.b.l.l.b.l.b.l.l.l.l.l.l.l.b./ ; _ ..] ] ] ] 3 f Q. XXXl d - i.S.S.z.<.z.j.l.V.l.l.l.l.j.h.j.",
"b.l.V.l.l.l.l.m.l.l.b.l.b.l.b.b.l.b.0.L K m ] ] ] ] b J O.`.}.O.h @ i.v.b.b.l.j.l.b.V.S.b.b.l.l.l.b.",
"b.l.l.b.l.<.h.l.b.b.l.z.h.h.h.j.b.l.n.v.1 8 ] ] ] ] ..B $ @.Q.Q.O.@ y.b.l.j.j.l.l.b.l.l.b.l.b.l.b.l.",
"b.b.b.V.j.<.<.<.l.V.w.* - - - ! b.l.l.z.1 8 ..] ......] ( X.7.h $ - i.b.j.y.t.j.l.b.l.b.l.l.b.b.b.b.",
"b.l.b.b.a.<.<.a.l.0.W U.+.+.+.U.&.j.l.t.E J v v v v v v b C I # * P ! q.j.<.t.h.b.b.b.b.l.b.l.j.b.l.",
"V.b.8.m.l.<.k.j.j.u g /.].].].U.- i.l.t.t.! X o o X X . o . X . Z 1.# E b.z.x.n.b.b.b.b.b.b.z.h.l.V.",
"V.b.b.b.b.b.V.0.< Y.^.~.!.!.!.L.f.y W j.i w N + 5 :.} v o V { { { ' @ E V.b.V.V.b.b.b.b.b.b.j.<.B.D.",
"V.V.n.V.b.V.V.=.. E.(.P.g.f.I.K.S.H I ;.- 6 ] + 9 5.o.` 0 | 3.3.` b e ^ V.b.b.V.V.b.V.b.b.b.b.v.S.D.",
"V.b.V.V.V.V.V.=.X T.(.I.p 1 L.8.6.6.Z o   6 ] & 9 5.5.5.5.X.' ] F - s.b.b.V.V.b.b.V.b.b.b.b.V.n.S.S.",
"V.C.V.V.V.V.C.-.  h k a %.-.a D 6.5.{ m N c 3 v v 9 2 5 2 5 4 & I q.l.V.V.b.b.b.V.b.V.V.V.V.V.n.V.V.",
"S.C.S.V.Z.V.C.w.t t t t -.d.y V :.3.X.] _ x   N B * j l l g X < &.V.b.b.V.b.V.V.V.b.V.V.V.V.V.V.V.V.",
"V.Z.V.Z.V.V.V.V.m.V.m.V.m.S.Z.Y @ ' ] ' + o X N ] ] '. X Xz - z.m.h.a.j.V.V.V.V.V.V.V.V.V.V.V.V.V.V.",
"Z.Z.Z.Z.Z.Z.Z.V.V.V.C.V.C.C.Z.Y   4 6 6 %.E X 3 c ] '..X.Xz ; v.V.p.p.l.n.C.S.C.V.V.V.V.C.V.C.C.C.V.",
"Z.Z.Z.Z.Z.V.Z.Z.Z.Z.Z.V.S.C.C.%.> > > < q.%.* X * B W.{.[.U.u v.V.n.n.C.C.C.C.C.V.V.C.F.D.V.C.V.V.C.",
"C.A.A.A.Z.Z.C.C.Z.Z.C.Z.Z.C.C.S.m.B.B.z.< q 2.* o @ # O g ;.V.V.C.C.C.C.C.C.C.C.C.D.F.F.J.D.C.C.C.C.",
"G.A.Z.A.A.G.H.Z.Z.C.Z.C.Z.Z.C.C.C.C.C.m.> 7 o.S H o 0 Z Z I W S.C.C.C.C.C.C.C.C.C.D.F.F.F.A.C.Z.C.A.",
"Z.A.A.G.J.K.H.M.d.Z.A.A.A.A.A.Z.A.D.C.m., 6 ] 4.[ # S 2.2.0 : B.V.C.A.C.C.A.A.V.A.C.C.F.C.F.C.C.Z.D.",
"m.m.Z.Z.H.K.H.M.k.Z.A.Z.A.A.A.A.F.D.C.B.: 6 .. .] ( 7 # # X : M.A.A.A.A.C.Z.A.A.C.A.F.C.F.C.A.C.A.Z.",
"p.p.k.m.Z.J.K.D.A.A.G.G.A.A.G.J.K.F.F.Z.%.P x x x x % - E Y %.V.A.A.A.A.A.Z.A.A.A.F.F.A.A.F.F.F.A.G.",
"y.y.p.p.h.c.m.V.H.G.Z.G.J.J.H.K.K.J.J.A.J.-.= O = = O u D.J.F.F.A.A.F.Z.m.k.m.A.A.F.F.F.A.F.F.F.F.A.",
"p.p.y.p.p.p.p.h.c.m.Z.A.G.G.H.J.J.J.J.A.J.S.d.x.d.d.d.M.J.F.F.F.F.G.J.D.d.a.m.A.G.Z.G.Z.F.G.A.G.G.G.",
"p.p.p.p.y.p.p.j.k.h.z.l.m.C.Z.G.G.G.H.G.J.G.G.G.J.G.G.G.G.J.G.G.G.G.K.J.m.k.Z.G.G.G.G.m.V.G.G.G.G.G.",
"p.p.p.p.p.p.p.p.l.h.y.p.h.h.j.l.m.Z.A.H.J.J.G.G.G.J.G.G.G.G.G.G.G.J.K.J.A.A.J.G.G.G.G.m.m.G.H.Z.C.l.",
"p.p.p.p.p.p.p.p.h.p.p.p.p.p.p.h.p.h.j.l.j.V.C.C.Z.A.A.G.G.F.G.G.G.G.G.G.G.G.G.G.G.Z.Z.Z.m.l.j.j.h.p.",
"p.h.p.h.p.p.p.p.p.p.h.p.p.p.p.j.h.p.p.p.j.p.j.p.h.l.l.l.l.l.l.l.l.l.l.l.l.l.l.b.k.j.h.p.h.p.p.p.p.p.",
"h.p.h.p.p.h.p.h.p.p.p.p.p.p.p.p.p.p.p.p.p.p.p.p.h.h.z.h.p.p.p.p.p.h.h.p.h.p.p.<.y.<.p.h.p.h.p.p.h.p.",
"p.h.p.h.h.p.h.p.h.h.h.p.r.r.p.p.h.p.p.h.p.p.j.p.h.z.v.z.p.y.9.r.p.p.h.p.h.p.p.9.<.p.p.z.v.j.h.h.p.y.",
"p.h.h.h.h.h.h.h.h.p.p.p.e.9.r.p.p.h.h.p.j.p.p.p.p.z.c.h.p.r.9.9.y.h.p.h.h.h.p.r.p.p.h.l.c.j.j.p.h.r.",
"h.p.p.p.h.h.h.h.p.y.p.p.p.r.p.p.h.h.p.h.p.h.p.h.p.h.h.h.p.i.9.9.p.h.h.h.h.h.p.h.j.p.h.h.z.j.p.j.p.<.",
"h.h.j.p.h.h.h.h.<.<.<.p.p.p.j.p.h.h.h.h.h.h.h.h.h.h.h.h.p.p.p.p.h.h.h.h.h.h.h.h.p.h.h.j.z.h.h.p.h.p.",
"h.h.j.p.h.h.h.j.p.<.p.p.h.h.h.h.h.h.h.h.j.j.j.j.j.h.h.h.p.l.j.p.j.h.h.h.j.h.h.h.j.p.h.h.h.h.h.h.h.h.",
"j.j.j.j.j.h.j.j.p.j.p.j.j.j.h.j.j.h.j.h.l.B.B.j.j.h.j.j.p.l.p.j.h.j.h.j.h.j.j.j.j.j.h.j.j.j.h.j.h.j.",
"j.h.p.l.b.l.p.j.j.j.j.p.l.p.l.l.p.j.p.l.c.B.v.z.p.l.p.l.h.h.j.j.j.j.h.j.j.h.j.j.j.h.j.h.j.j.j.h.j.j.",
"h.j.j.b.b.n.j.j.j.j.p.l.p.l.p.l.l.p.l.p.l.z.l.l.l.p.l.p.h.l.j.z.j.j.j.j.j.j.j.h.j.j.l.h.h.h.j.j.j.j."
};
