/* XPM */
static char *_10a8e529b5744f8e17d390b4c64dca5QtRb64AKrqKkTfPU[] = {
/* columns rows colors chars-per-pixel */
"50 50 26 1 ",
"  c #C5811D",
". c #C9851E",
"X c #CD8A1F",
"o c #D18F1F",
"O c #CF8B20",
"+ c #D28D21",
"@ c #D69221",
"# c #DA9522",
"$ c #DE9A23",
"% c #E29E24",
"& c #DEA124",
"* c #E5A324",
"= c #E9A625",
"- c #E6AA25",
"; c #ECAB26",
": c #E9AC28",
"> c #F0AE26",
", c #EEB126",
"< c #EEB428",
"1 c #F2B327",
"2 c #F5B927",
"3 c #F4B628",
"4 c #F8B728",
"5 c #F5BB28",
"6 c #F9BD28",
"7 c #FAC02A",
/* pixels */
"*==***=*=%=%%===*%===***=*%==%=%*=*=*=**=*******==",
";;;;;=;;;=;=====;;;;=;;=;;;==>==;;====;;;;;=;;=>=>",
"*;;,>>;>=>>;>>>1>1>11>>>;>>>=>>>;;>>>>>,1,>1>>>>;*",
"#$%*>44441>144>>=*%*;>144>>1>4>4211142;=*%%*=;;%$$",
"%%%%%=>263663>*%$$%%%%%>12444446661,=%$$$$$%$%%%$%",
"%%%%%%%*=;==**%%**%%%%%%%=;14436,=**%%==****%%%%*%",
"===*=======**=**%*==%%==***=*===*;=;====****=====*",
"=;;=;=;;>;>>;>;;;;;=;;>==;=>===;;1;=%==>>;;;===>==",
";>>>1;1<<<<-11>3>1;;>>=>>>>>>>;1>$o.  .o&;,,;>>;>=",
">4142;*@XXXXo#*:1221>1>11>>1141*@XXXooo.X@*,141,44",
"231*%@oo@@@oXXXoo&;2644644463;%o@@@o@##@@oo#*,6444",
"*%#####$###$%##oooo#;3466661*$@$##########$###%*>>",
"#$$$%$$%$$$$$$%$%$@$%#%=>>%%$$$$%%$%$$$$%%##$%$$$$",
"%%%%%%%%$*%%*%%%%%%%%%%%%%%%%%%%%%%%%%*%%%%%%%%**%",
"**--=-==*=***%=%%%**%==%%=%==%=*=**=*****=*=;==;*=",
"@@##$%*-:;;==;=;>;;;====;=;===;;======;;;;;=$$$oo#",
"oooooo@@$*;1,>>;>>>=>>=>>;>;>>>;,>>,,>;*%#@ooooooo",
"#####@@@@@@$;,32>>>4>1>>>>1>>>1111,;*%#@@#@#@####@",
"#$$#$$$$$$$o#$*-134433334444334>;&&$#%$$###$###%$#",
"%%%%**&&&**%*$$$#*;126776663::*%%%*&%%%%%%%%%%%%*%",
"=;;;;--;-*-*;**=**%%$**---&****----;-=*******=**==",
">*%%$%--;,,,;;;;;;;=;;==-;;;<,<<,1,-;,;;;>;;=;;>=>",
"$###@@@@$$*,<11,11>1;111,1<5<--&%&--1211,,111>111,",
"$$$##$$$$#$$*,2112332322<2<&&#$#$$$$&-1261612421,*",
"$$$%%%$%%%%%%#*;1777766<-$$$%%%%%%$$%%%-122661,=%%",
"%****%*%%=%%***%&%**;-$$$&**%%*%*********--,;-;**=",
";;=;===;=======;--*****===;==;=>;-;;=;;;,,-*&**;;;",
"11;;>>;>;>>;>>>1>111,;;;;>;;;>>>1,1,>>1,-##@@#o#%*",
"-161411131131622222233,311,11162,;;,1;*@@#######$#",
"%%;1666665466<:*%%&-<256662661-$$$#####$$%$%$%%$$%",
"%%**;>44652,**%%%**%%*:<2575;&$%%**%&%%*%%%**%%**%",
"*-=-*;*-;--***=******==*****&**;=;--=**=****=**=**",
";>,;,,,;1;,,;;>;-;;;>==>=;=>;;-,,<<<,;;;;;;;;>;=>=",
",,;-*%*--;,,211111>;>>>>>>>>1<,,&&&-<211>11;;>1>,1",
"$###@##@o##$&,116231411111162-$#@@##$-521222123321",
"$$%#%$#%%$$$###$*;1666667661$#$$$$$$$$*15566652;*%",
"%%%%%%%%*&$*&&%$%%$%-<226,-@o&*%*%%%%%%%*:,,:=*%%%",
"***==*==*=;*===***%%%$&*&$$$%***=****==*****==**=*",
"*=;;=;>;;1,,>;;;>*;;;;:;;;-;,;;;;*;;=>==>;;;;;;;;;",
">1>>>11,*&&,11>1>>>>>>11121111211111>1>111,,1113>>",
"33443>%o...X$1222622122<,&&$&*;,12262162;@XXo%;226",
"662>%oooooXoo#;277677,*#OOOOOX.Oo#&*;-&o..Xoo+@$,2",
"%*@@oo@oo#o#@o#$--<-&#oo@@#@@@#@oooXoXXXooo@##@@@#",
"##%#%%#$$$$$$$$$$$$#$$$$$$$$##$##%&$#$$$$$$$###$%#",
"*%%%%*%*%%%*%*%*%***%***%%%%%*%*%*&=*-*%**%*%%%%*%",
"=;;;;*=====*====-;;;;;-;:;=;;;;;,--&*--;;;====;=-;",
",,11,,>>>>>1>>11,;*%*-;,<1311::%%o@oo@#&-,1;;11111",
"$&*;,2162416221;$$$$##$$&**;*%$@##$#$#$##%,24133>*",
"$$%#%*=,3353>*%$$%%$%$%%##%##%%%%%$%$%#%%#%%***%%#",
"$*%%%%%%*%%%**%%%%%%%%%%%%%%%%%%%%%%%%%%%%%%%%%%%%"
};
