/* XPM */
static char *f0426fc36a1d42088c9f3ade7f153070hOlkvwEkLjCl7b6T[] = {
/* columns rows colors chars-per-pixel */
"50 50 248 2 ",
"   c #352C2B",
".  c #2A3729",
"X  c #3A3C2E",
"o  c #36362A",
"O  c #2E2C36",
"+  c #372B37",
"@  c #2D393B",
"#  c #293937",
"$  c #343534",
"%  c #3C3335",
"&  c #34343B",
"*  c #3B333B",
"=  c #343C3D",
"-  c #3A3B3B",
";  c #383B33",
":  c #4A2C24",
">  c #47352B",
",  c #423D34",
"<  c #413B3A",
"1  c #423438",
"2  c #5B3A3A",
"3  c #513630",
"4  c #6A3D30",
"5  c #374335",
"6  c #374332",
"7  c #53511E",
"8  c #6C491B",
"9  c #7F4A18",
"0  c #78641D",
"q  c #4B4A2B",
"w  c #5C4526",
"e  c #47453C",
"r  c #594B38",
"t  c #63422A",
"y  c #654A29",
"u  c #7E4623",
"i  c #785421",
"p  c #644A35",
"a  c #705735",
"s  c #6F622A",
"d  c #2B3A44",
"f  c #3C3243",
"g  c #323B41",
"h  c #393B42",
"j  c #3B364B",
"k  c #3A304F",
"l  c #473142",
"z  c #364347",
"x  c #25434E",
"c  c #494345",
"v  c #5A4743",
"b  c #444250",
"n  c #694142",
"m  c #7C724F",
"M  c #903D1D",
"N  c #874B18",
"B  c #975616",
"V  c #8F5712",
"C  c #B7570C",
"Z  c #A25315",
"A  c #BA5717",
"S  c #A8540D",
"D  c #8C681A",
"F  c #946F1A",
"G  c #A17A19",
"H  c #B06B1D",
"J  c #814B26",
"K  c #9B4B26",
"L  c #885723",
"P  c #995525",
"I  c #935530",
"U  c #B55625",
"Y  c #88672B",
"T  c #976329",
"R  c #957624",
"E  c #8F6032",
"W  c #957634",
"Q  c #A87B2A",
"!  c #B27E25",
"~  c #C95708",
"^  c #DB5C04",
"/  c #D45E0C",
"(  c #DB5C0C",
")  c #DA5906",
"_  c #C75B12",
"`  c #D95E13",
"'  c #DC5513",
"]  c #D84D16",
"[  c #E25D02",
"{  c #E25D0C",
"}  c #F15A01",
"|  c #E25D13",
" . c #E05419",
".. c #E54F02",
"X. c #C96706",
"o. c #DC6402",
"O. c #D36A00",
"+. c #DC6A03",
"@. c #D5640B",
"#. c #DD630C",
"$. c #D76807",
"%. c #CF6517",
"&. c #D56513",
"*. c #DC6412",
"=. c #D86A15",
"-. c #D3740B",
";. c #E56302",
":. c #E26C03",
">. c #E3640C",
",. c #E96706",
"<. c #F26105",
"1. c #E67603",
"2. c #F77A09",
"3. c #E46413",
"4. c #E86616",
"5. c #F16116",
"6. c #F47610",
"7. c #967C48",
"8. c #A47B45",
"9. c #BC8919",
"0. c #BF951F",
"q. c #B48927",
"w. c #B69628",
"e. c #BA8E33",
"r. c #DD8B0B",
"t. c #DE9D0C",
"y. c #D5970A",
"u. c #CF8B1C",
"i. c #CE8C14",
"p. c #D28D15",
"a. c #D48E1A",
"s. c #DD8E16",
"d. c #C99916",
"f. c #D59215",
"g. c #DA9516",
"h. c #DC9B16",
"j. c #D5921A",
"k. c #DA951C",
"l. c #DD9A1C",
"z. c #D49B18",
"x. c #CB8A0D",
"c. c #EB8D03",
"v. c #E98304",
"b. c #F48D02",
"n. c #FD8C01",
"m. c #F98908",
"M. c #EE9500",
"N. c #E49707",
"B. c #F59302",
"V. c #FC9301",
"C. c #F29A01",
"Z. c #FC9A00",
"A. c #FC940A",
"S. c #F8960C",
"D. c #E39D15",
"F. c #EB9C15",
"G. c #E3951C",
"H. c #E29D1D",
"J. c #EA9D1E",
"K. c #EA9519",
"L. c #FD9917",
"P. c #FF8617",
"I. c #DEA50C",
"U. c #DAA809",
"Y. c #DDA215",
"T. c #DDA21C",
"R. c #DBAB1C",
"E. c #D6A715",
"W. c #DAB21A",
"Q. c #E6AC0D",
"!. c #EBAA08",
"~. c #E4A315",
"^. c #EAA414",
"/. c #E5AB14",
"(. c #ECAB14",
"). c #E4A31D",
"_. c #E9A51D",
"`. c #E5AB1C",
"'. c #EBAB1D",
"]. c #FBAD15",
"[. c #F2A41D",
"{. c #F2AB1C",
"}. c #F3A615",
"|. c #ECB314",
" X c #E6B31B",
".X c #EDB21D",
"XX c #E3BB1F",
"oX c #E8B616",
"OX c #F2B41D",
"+X c #F4BB1E",
"@X c #F6B716",
"#X c #F4AE0C",
"$X c #D58B25",
"%X c #CB9424",
"&X c #D39525",
"*X c #DC9522",
"=X c #DC9B22",
"-X c #D7992A",
";X c #CC902D",
":X c #E39D21",
">X c #EB9D24",
",X c #E89627",
"<X c #F09E30",
"1X c #E69730",
"2X c #CEA328",
"3X c #DDA323",
"4X c #DDAB23",
"5X c #D9A529",
"6X c #D7A934",
"7X c #E5A322",
"8X c #EAA522",
"9X c #E4AA24",
"0X c #EBAC22",
"qX c #E3A42C",
"wX c #EBA42A",
"eX c #E5AC2A",
"rX c #ECAA2B",
"tX c #F2A626",
"yX c #F2AE23",
"uX c #F5AA29",
"iX c #EEB222",
"pX c #EEBB22",
"aX c #E7B525",
"sX c #F2B122",
"dX c #F2B423",
"fX c #F4B922",
"gX c #F3B22C",
"hX c #FBBA2B",
"jX c #F9B726",
"kX c #E4AE35",
"lX c #E8A432",
"zX c #F5AC33",
"xX c #F9A833",
"cX c #F8B533",
"vX c #E4B531",
"bX c #EBC218",
"nX c #F8C122",
"mX c #E1C027",
"MX c #ACAD6B",
"NX c #F2B447",
"BX c #F5D659",
"VX c #D0D47F",
"CX c #F9D76E",
"ZX c #EBD477",
"AX c #F7F37C",
"SX c #FAEA6E",
"DX c #E0E080",
"FX c #FCF685",
/* pixels */
").).`._.).8X).8X)._.wX8X:X8XtX^.).`.~.9X8X_.).`._.H.wX8X`.Y.8X9XwX~.>XqX)./.9X).7X_.8X)._.9X_.8X`.8X",
"0X0X8X'._._._.'.{._._._.'._.eXrX8XwX8X_._.0X0X8X_.'.^._.8XuX_.[.~.yXyX^.(.wXtX(._._.'._._._._._.0X0X",
"`.8X0XyXyXyX{.'.{.[.eX0XiX/./.'.|.OXdXjXdXyX{.^.rXgXeX8XiX0X_.0XiX'.'.'.gXyX{.yXyXiXiXyXsXdXsXyX).).",
"h.H.).0X0XsXsXOXsXdXOXoX.XdXdXdX9XY.T.R.`./.OXOX#X@XOX{.OX}.dXjXpX{.jXpXoX(.{./._._.~._.'.8X_.~.).l.",
"l.l.h.l.~._.yXdXjXOX@X@XdXuX>XH.>X>XH.l.T.T.9XeXpXaXpXfXjXjXjX@XjXOXgX9X.X>XlXE.l.H.H.H.H.H.H.H.H.H.",
"7X:X).).).).`.8X0X`.`.gXwXJ.).I.t._.>X:X>X>X_.^.wX_./.fX0XcXpXbXtX@XQ.).wX1X-XT.7X).:X:X:X7X:X:X7X7X",
").).8X0X8X9X).).0X9XqX7XD._.eX2XT.eXqX7XwX).h.4X>XwX9X:XyX[._.`.{.4XW.OXF._.|.[.7X8X9X8X7X_.7X).7X).",
"_._._._._.8X0X0X(.0XrX|.!.iX;Xy *XH.^.|.2XF w v 7 q r 8 6X/.{.wXaX2 t 4X~.5XW.qX_.'.'.'.'._._.'.'._.",
"(.'..X.XiX0XiXiXW.9XuX`.iX0X;X& %X{. X`.].a x + * > d h lXyXeXoXeXd o $Xs.u.y.j.).`.0XiX.X.X'.'.0XuX",
"dXdXdX0X0X`.).h.*Xg.f.y.&X. r Z.w 5 #X%X, B } ;.4.%.;.[ < ; |.Y 1 V.Z.% s u.u.i.p.z.).0XiXdXiXOXdXOX",
"dXsX0XeX).h.g.f.&Xx.g.*X%X% i v.i v &Xe.2 A :.#.;.:.O.} 3 q %XP r c.m.* 0 i.k.G.u.j.k.l.).'.iXdXjXOX",
").).).l.k.k.k.k.k.%Xs.r.a.g 4 ,.b.B.1 3 O.+./ B.A.C.6.` $.>.- T A.) ( h s -Xr.$X*X*Xj.g.h.l.`._.yX0X",
"l.l.k.g.l.l.l.=XY.g.wX*XD.+ r ^ O.1.# 4 5.1.m.V.n.M.C.1.o.3.O B -.;.,.  E f.z.=Xk.l.l.l.k.l.l.k.H.H.",
"H.H.).:X7X:X:X:X,X:Xl.t.T.5 3 3.<.| X o #.n.m.M.B.S.V.V.*.#.6 V >.^ &.X a wXt.T.Y.H.H.:X7X:X>X7XD.).",
":X:X7X7X7X).)._.7X).[.lXwXH.9.+ A 3.#.+.Z.V.A.Z.Z.S.M.n.A.Z.] 5.o.l > 5XtXtX}.~._._.).).).7X7X:X).H.",
"k.j.j.h.h.h.~.`.`._.[.W.<X[.d.d A ^ +.4.n.B.B.B.b.A.V.V.A.C.:.@.*.f . (.`.h.zX4X'.8X).7X).h.g.y.k.j.",
"a.a.a.j.j.f.j.k.l.T.qX_.OX{.e.$ ~ { #.,.M.A.S.V.C.m.V.B.V.A.#.o.` * $ |.wXaX(.7X=Xk.k.j.a.a.j.a.a.a.",
"k.k.j.j.j.j.k.j.k.z.z.H._.'.e.X A #.$.,.Z.V.B.V.b.Z.A.B.C.V.` >.O.% f /.^.l.h.k.k.k.k.j.k.j.j.&Xk.j.",
"k.k.j.k.k.l.l.k.,Xh.l.G.l.D.q.o H >.&.,.P.B.Z.A.V.Z.n.A.Z.A.*.( O.% j h.K.l.k.l.k.k.l.k.l.=Xl.k.*Xk.",
"T.T.).9X).).7X).=XY.8X:Xl.T.q.* C [ @.o.,.v.Z.b.V.n.B.B.o.#.o.>.#.o z T.>X:X).l.7X:XH.l.H.l.).H.H.H.",
"8X9X8X_.8X_.0X`.`.`.0X9X`.`.q.f _ ;.4.[ | v.B.Z.V.Z.Z.L.*.| ;.:.5.. # `.8X9X^.7XqX_.9X)._.)._.)._._.",
"`.).).).Y.l.T.).(.`.rX(.|.`.q.> U X.{ ( { -.o.V.A.B.:.o.^ ^ #./ / e , `.sX.X}.0X0X0X'._._.0X'.'.iXiX",
"H.l.h.f.g.f.k.l.h.l.7X_.aXgXz.R I L ( #.3.>.) 2.1.v.=.o.>.o.$.U N Y T T.iX.XgXjXdXOXiXsXdXOX.X.XdXiX",
"*Xl.k.k.*Xk.k.*X:Xk.H.I.9XrXjXmXy + o.+./ | >.@.{ #.^ ;.5.*.X.M = &XH.T.qX/.pX XfXfXfXfXfXfXdXOX0X_.",
"k.l.:X:Xl.H.H.H.h.*X>XD.g.h.).`.pXcX. p 4.` ;.#.@.| ) <./ 3.= Q ,XD.K.:X-XT.E.8XaXdXnXfX+XfX0X`.:XH.",
").9X7X).).H._.H.).D.D.).9XlX1X:XT.^.e 2 X.o.} *.| o.,.+.@.%.b R D.9X2X^.F.3X).8X`.`. X(.'.'.9X8X).9X",
"`._._._._._.8XwX/.(.tXqX~.).^.!.v X B.r.o j @ @ o , O $ - > C.P - ~.(.'.L.0X4X8X0X8X8X`.).9X9X)._.`.",
"'.iX.X'.0X0X'.'.wXyX0XaX.XsX5XQ D D 2.,.u J N N i J J J J N 6.G D W 8.gX`.XX].eX).).=Xk.k.k.l.g.).).",
"0X0XdXdXdXOXOXOXjXuX|.oX{.@Xw.& -.A.o.` ,.#.| =.&.1.' *.@.{ ( v.n.o o 0XaX X}.l.l.g.k.k.k.s.j.l.l.l.",
"H._.eXiXdXjXfX+X@XfX+XnXcX+Xw.d _ X.# q ( 4.@.[ o. .,.) { +.> K ^ = X 3Xl.*X&Xj.H.g.k.:X:Xl.l.l.l.l.",
"D.H.).0XiXdXfXjXnXhX|.|.wX).q.: _ [ - 3 ;.&.:.O.>.) { 1.) ) d L #.- O j.).-X7X).H.H.H.H.).l.l.l.H.H.",
"_._.`._.`.'.'..XW.zXtX`.9X).'.=Xr - >.~ = S [ k $ - K ^ = 1 *.N X 9X_.OXF.~.^.T.8X:X).8X8X).8X8X_._.",
"`..X`..X'.'..X0X.X/..X.X'._.'.'.D a B Z % K Z y w 4 B S % 5 B L V 6XbXQ.0XrX0X(.0X0X8X_.0X0X0X_.0X0X",
"iX0X9X).).).9X).0XiX0XyXiXiXiXdXuX0X- z .   c ^ ;.=.t h k : k R 6XkX7XeXdX.XiXgX0X0XiX'.iXOX.XsXiXdX",
"9Xl.l.l.k.l.l.k.j.l.l.H.`._.iXdXoXjX=X9.5 U ~ =.` o./ _ f X d.d.Y.l.a.*X).`.fXpXOX+XdX+XOXdXdXdXsXiX",
"=Xk.l.l.=Xl.l.k.l.k.l.H.l.H.Y.).wXcXpXd.& S ^ *.<.>.>.o.= % Y.*Xf.g.G.G.k.l.aX/.+XdXfXfXfXOX.X.X`.~.",
"H.H.H.:XH.H.l.).:X).).H.).H.l.l.I.U.O y &.p g V.c.+.1.B.- ; % F 1X).D.~.:X*XH.^.'.yXyXdX0X_._._.).H.",
"H.)._.).).H._._._.).7X).).9X7X9XJ.8X= > ..4 6 n.A.;.2.P.p p f R 9X).D.~.8X7X).wX_.8X0X0XeX_._._.8X8X",
"_.'.0X0X'.0X0XiX0X0X0XiX0X0X'._.qX9X$ r %.p 1 C.C.V.1.^ M.n.* 7.`.0XgX0X(.(.8XwX8X'.0X`.0X0X8X'.0X8X",
"yXyXyXyXsXsX'._.T.).)._.iX.XsX|.]. Xj : t ; o CXBXL.c.n.CXSXo G OX(.yXrXaX.XpX.XiXiX'.'..X.X.X.X.X.X",
"|..XfXfXsX9Xl.k.&Xu.u.j.l.9XdXfXjXXX6 & l g . FXAXn.Z.C.FXAX% F `.iXiXiXiXiXiX0X7Xl.j.j.j.l.`.sX+XOX",
"hXjXjX'.).h.j.a.i.a.a.a.j.h.`.iXjX@X+XhX|..Xl.1 j SXuXA.FXAX+ W l.H.).7X9X9X).l.p.i.i.a.j.j.h.).'.iX",
"7X).h.h.g.j.j.j.p.f.s.j.j.f.l.7X5XkX'.eXW.l.H.c w DXNX#XZXDX2 R p.j.a.p.p.k.p.p.i.p.j.a.a.j.j.k.l.l.",
"l.l.l.h.l.k.k.=XH.l.k.l.k.=Xl.k.K.^.=Xz.h.*Xg.j.d.. MXSX& < s.y.=X=XH.=Xl.l.=Xl.l.l.l.=X*X*Xl.k.k.k.",
"H.H.)._.).).).l.).7XH.:X7X).H.).qXt.kXQ.,X^.W._.7X! 7.m H q.5XR.).T.).).).).T.T.).).H.H.H.:X7X7X).).",
"8X9X_.8X8X_._._.7X8X8X_._.)._.'.8X(.).0XxXJ.Y.uX9X7Xs @ '._.T.{.`.).T.T.).).`.9X8X8X_._.`._._._.'._.",
"0X0X0X0XsX.X'.OXyX'.OX.X.X.XiX.XrX XN.qXE.wXlX0X].OX|.vX(.zXxXY.l.l.f.f.f.f.h.).`.eXiXOX.XOXiX'.sXiX",
"H.).`.0XsXdXdX+XjX+XOXfXjXjXiX`.7Xy.D.-X&XN.E.l.E.wX>X`.{.I.-Xg.l.k.k.l.*Xk.k.l.g.).0XsXOXdXfXfX8X`.",
"l.l.l.H.H.).8X0XOXdXdXjX0X_.).H.l.l.l.l.H.l.l.l.k.l.l.l.l.l.l.l.l.H.H.l.G.l.H.l.l.l.G.:X8X7X>XH.H.H.",
":X:X=X:XH.H.).)._._._._.).).H.:XH.H.:XH.H.H.H.H.:X:X:X:X:X:X:X:XH.H.:XH.H.H.:XH.H.H.H.H.).H.H.H.H.H."
};
