/* XPM */
static char *d536d3831cb84558d49eb1458bda4072obQDoLPmwpyGgWdl[] = {
/* columns rows colors chars-per-pixel */
"50 50 198 2 ",
"   c #524F3C",
".  c #6A5C39",
"X  c #746438",
"o  c #786639",
"O  c #7C693C",
"+  c #333E45",
"@  c #364144",
"#  c #3B4346",
"$  c #3C464B",
"%  c #3F494E",
"&  c #3E4A51",
"*  c #434345",
"=  c #4E4543",
"-  c #4A4D40",
";  c #42464A",
":  c #454C4D",
">  c #4A4C4E",
",  c #5E4740",
"<  c #564845",
"1  c #534D4C",
"2  c #4D5048",
"3  c #515144",
"4  c #5E5943",
"5  c #53544D",
"6  c #5A514E",
"7  c #5B5C4C",
"8  c #434D52",
"9  c #4A4E52",
"0  c #465156",
"q  c #4A5354",
"w  c #475159",
"e  c #4B555A",
"r  c #4E585E",
"t  c #515354",
"y  c #5B5453",
"u  c #545A55",
"i  c #5B5C54",
"p  c #53565B",
"a  c #535A5A",
"s  c #5A5B5C",
"d  c #644C45",
"f  c #6A4C43",
"g  c #654F49",
"h  c #6F5147",
"j  c #605A45",
"k  c #67514B",
"l  c #6D544B",
"z  c #6F584F",
"x  c #73554B",
"c  c #78594E",
"v  c #635653",
"b  c #6C5750",
"n  c #635956",
"m  c #6B5954",
"M  c #635B5A",
"N  c #6A5E5A",
"B  c #755B53",
"V  c #795E55",
"C  c #735F59",
"Z  c #5D615B",
"A  c #696246",
"S  c #69644D",
"D  c #6F694D",
"F  c #7B6B43",
"G  c #766B48",
"H  c #736B4C",
"J  c #7D7145",
"K  c #78704A",
"L  c #696457",
"P  c #7D6157",
"I  c #766D51",
"U  c #73615C",
"Y  c #7D6259",
"T  c #535C63",
"R  c #566067",
"E  c #5B6263",
"W  c #646463",
"Q  c #6D6563",
"!  c #726460",
"~  c #7B6A64",
"^  c #9D722C",
"/  c #8A6E36",
"(  c #846C3E",
")  c #83703E",
"_  c #8D743D",
"`  c #8F783B",
"'  c #917234",
"]  c #9A7633",
"[  c #947837",
"{  c #9D7B34",
"}  c #937B3E",
"|  c #9D7C3B",
" . c #A47D32",
".. c #A97F30",
"X. c #A27E3A",
"o. c #806E40",
"O. c #847343",
"+. c #897547",
"@. c #8E7B44",
"#. c #86754B",
"$. c #8D7749",
"%. c #897A4B",
"&. c #937E44",
"*. c #9A7E43",
"=. c #80635A",
"-. c #877851",
";. c #866C62",
":. c #9C823D",
">. c #B5842C",
",. c #BE8429",
"<. c #BD892B",
"1. c #BB942F",
"2. c #A18037",
"3. c #AC8434",
"4. c #A3833C",
"5. c #AA853A",
"6. c #AC8A3C",
"7. c #B38633",
"8. c #B48C34",
"9. c #BB8D32",
"0. c #B18A39",
"q. c #BC9535",
"w. c #B59439",
"e. c #CA851E",
"r. c #CD8A1F",
"t. c #D28B1E",
"y. c #D5911F",
"u. c #C38824",
"i. c #CE8B21",
"p. c #C38D2E",
"a. c #C98F2A",
"s. c #D38D21",
"d. c #C6932D",
"f. c #CB942B",
"g. c #CA952B",
"h. c #D69221",
"j. c #DA9522",
"k. c #D79827",
"l. c #DE9A23",
"z. c #D29729",
"x. c #D39B2C",
"c. c #DA9E29",
"v. c #C49433",
"b. c #C59B33",
"n. c #C79936",
"m. c #C99C34",
"M. c #E29E24",
"N. c #DEA024",
"B. c #D5A02A",
"V. c #DCA42A",
"C. c #DDAB2E",
"Z. c #D5A331",
"A. c #D5A935",
"S. c #E5A224",
"D. c #E9A525",
"F. c #E6AA25",
"G. c #ECAA25",
"H. c #EAAD26",
"J. c #EDAD25",
"K. c #EFAC26",
"L. c #E3A529",
"P. c #E3AB2A",
"I. c #E9AE2A",
"U. c #F0AD27",
"Y. c #F0AE26",
"T. c #F1AE26",
"R. c #EAB127",
"E. c #EEB125",
"W. c #EFB026",
"Q. c #EEB126",
"!. c #E6B02C",
"~. c #ECB32A",
"^. c #F1B126",
"/. c #F3B127",
"(. c #F1B326",
"). c #F2B326",
"_. c #F4B327",
"`. c #F7B326",
"'. c #F0B426",
"]. c #F2B527",
"[. c #F5B427",
"{. c #F6B527",
"}. c #F4B627",
"|. c #F5B927",
" X c #F6B927",
".X c #F9BB27",
"XX c #F3B628",
"oX c #F9B728",
"OX c #F5BA28",
"+X c #F9BB28",
"@X c #F9BD28",
"#X c #FABD28",
"$X c #FBC12A",
"%X c #968045",
"&X c #9C8244",
"*X c #93834D",
"=X c #938450",
"-X c #A88841",
/* pixels */
"S.D.D.D.S.D.D.S.D.D.D.D.M.D.D.D.D.S.D.D.D.D.D.D.D.M.D.D.S.D.D.D.D.D.S.D.D.D.S.D.S.S.S.D.D.S.S.D.D.D.",
"J.G.G.G.D.D.J.D.D.D.D.D.U.D.D.D.G.G.G.D.D.G.D.D.D.G.D.D.D.D.D.D.G.D.D.D.D.D.G.G.G.G.D.D.H.D.D.G.G.G.",
"S.G.J.J././.U.U.G.J.G.G.J.U.U./.W.W././.XXW.U.G.J.G._.G.D.U.U.U.J.G.J.J.U.]./.W.W.W.W.{.].W./.G.D.S.",
"j.l.l.F.J.{.`.`._._._.`.`._._.J.S.S.S.S.F.W.{.{.{._.`._.U._.`.`./.{. X{. X/.H.S.D.M.M.S.S.G.G.M.M.j.",
"M.M.M.M.M.D.J.OX+XOX X+X{.W.S.M.l.M.M.l.M.M.M.J.W. X X+X+XoX+X+X#X#XXXH.S.M.M.M.l.l.M.M.M.M.M.M.M.M.",
"M.M.M.M.S.M.M.S.D.G.D.G.S.S.M.M.S.M.D.M.M.M.D.M.S.S.G.U.+X+XOXoXW.G.S.S.S.D.M.S.S.S.M.M.M.M.M.D.M.S.",
"D.D.D.S.D.D.D.D.G.S.D.D.S.D.D.S.S.D.D.D.D.D.D.D.D.S.D.L.p.8.x.D.D.G.G.J.c.8.9.S.S.S.D.D.D.D.D.D.D.D.",
"D.D.U.D.D.G.G.G.U.J.J.H.G.G.G.G.D.H.D.D.D.D.D.D.D.D.D.*.a e S v.J.W.H.d.j : : ` H.G.G.G.D.D.D.D.D.D.",
"U.J.U._.H.W.].].R.R.R.R./.{.W.W.W.J.J.J.U.G.G.U.U.U.x.i a M e S c.M.u.4 8 6 ; - g.R.{.Q.J./.U.G.U.J.",
"`._.XX{.`.J.N.h.i.r.r.i.s.j.S.R.{. X].`._._.U._._.`.v.r M Y n w  .s.^ 8 y x 6 $ ^ y.S.W./.].{.W.`./.",
"OXOXW.S.M.h.h.y.h.h.y.h.s.i.r.t.h.N.H.XXOX+XOX{.oX.XZ.a M Y m 8 o.s.o.& b x 1 $ >.r.t.h.S.W. X XOX+X",
"S.l.l.j.h.j.M.h.l.h.h.l.j.j.j.t.y.y.s.l.F.{.#X#X#X#XI.S e B m 8 F j.O ; g g ; 1 u.l.l.j.h.l.M.D.G.J.",
"j.l.j.l.M.j.M.l.l.M.M.j.M.j.M.M.l.l.j.j.j.j.S.G.U.J.S.X.q 9 t 8 | M. .$ : % % ] l.l.l.l.l.M.j.l.M.l.",
"M.M.S.M.M.M.M.M.M.M.M.M.S.M.M.M.M.l.M.M.M.M.M.j.X.o.7.c.| i t F k.M.k.F :   _ l.3.X ^ S.M.M.M.S.M.M.",
"S.F.F.D.D.F.D.S.S.S.S.S.S.M.D.M.D.D.S.D.D.D.D.0.p e e X.M.z.d.M.D.S.D.M.a.g.S.] # + @  .H.G.S.D.D.F.",
"h.h.h.j.l.S.F.F.G.G.G.D.D.J.D.U.D.D.G.D.D.D.D.#.e N p i x.J.D.G.z.d.x.D.D.G.c.3 # < + X l.l.l.h.h.h.",
"s.s.s.s.t.y.j.l.l.S.H.W./.J.U.H.G.U.U.U.U.G.J.$.e U v q 8.J.L.} 5 : > _ F.W.8.@ <   + . s.j.s.t.s.s.",
"j.j.j.h.h.h.j.y.h.h.h.l.F.W.{.{./.U.U.U./././.0.e n v 0 6.`.2.8 > y > : [ M.] @ <   + ] y.j.j.j.j.h.",
"j.l.l.l.l.l.y.y.l.l.l.j.j.l.S.F.~.OX#X+X].{. XP.H w q q b.~.j 9 l c x ; 2 f.>.# + +   i.l.j.l.l.j.j.",
"M.M.S.N.S.S.S.M.l.S.S.M.M.M.l.l.l.S.H./.XX@X$X$XA.K i } P.:.8 y c c c 6 # ' l./   . ,.M.M.l.M.M.M.M.",
"G.F.G.H.D.H.R.D.F.F.F.D.D.F.D.D.S.M.M.l.S.N.D.F.F.N.z.l.{ : 9 B c x x h $ # ] S.z.l.D.S.S.D.S.S.D.D.",
"G.F.S.l.l.M.S.F.H.R.H.H.J.H.D.J.G.G.G.D.G.D.D.D.D.H.R.3.q q l c c x x x l : @ ' G.G.G.G.D.G.G.H.J.J.",
"l.h.j.h.y.j.s.j.l.S.F.W.~.XX/.H./.].J.]././.]./.~.].C.7 9 l B x x h h h h d @   c././.Q./.W.].{.{.W.",
"l.l.l.l.j.M.j.M.j.y.a.&X=Xb.OXOX}. X{.m.&.&.C. X].OXq.8 y x h l g d d f f f   @ q.OX X X{.@X].{.W.S.",
"l.l.M.M.M.M.M.M.M.l.-.T T E -XG.Q.$Xw.s e w H P.F.N.>.q 2 k k 1 ; $ $ =   d * @ 1.OXOXOXOX].H.F.M.M.",
"S.F.M.D.M.S.M.M.D.d.W W ~ W s v.D.g.L p U i e 7.M.M.l.F % 8 $ $ 4 O 4 # + + @ . N.D.H.R.R.D.D.D.D.S.",
"D.H.D.D.J.D.D.D.G.n.R Q ;.! T *.H.5.e N Y n q 3.D.D.D.l.2.( ) 3.N.H.N.3.O o  .l./.W.H.S.S.S.S.F.H.H.",
"W.W.J.J.U.U.U.U.J.Z.W W ;.~ T #.W.%Xe U V y q v./.H.U.U.J.U.W.].].Q.Q./.Y.Y.{.J.F.l.j.h.y.y.h.j.l.F.",
"F.W. X{.`.].{.{.OX_.-.R Q U T @.].&Xw n m e D R. XW.W.{.{.]. X].H.H.R.W.].H.S.j.y.j.l.j.j.j.j.j.j.j.",
"l.M.H.XX.X.X#XOXI.+XA.Q T T p 6.F.9.u e 9 u q.#XI.XX XOX@X].F.N.l.l.j.l.y.h.j.l.l.l.l.l.j.M.M.M.l.M.",
"S.M.S.S.H.W.I.=XQ =XC.b.#.I 4.M.M.M.5.H K 9.V.@.7 K C.$XH.N.l.N.M.S.S.S.S.l.M.M.M.M.M.S.M.M.M.S.S.M.",
"S.G.D.D.D.G.-XR E T %.S.S.S.D.S.D.D.D.S.S.S.O.& 9 % _ S.M.S.G.S.D.G.F.D.F.F.D.D.S.S.S.S.D.S.D.D.D.S.",
"G.H.W.J.J.W.*XE ~ W R n./.U.D.8.4.6.c.J.U.n.5 q l 8 G D.H.H.J.W.W.R.W.W.W.W.H.H.J.G.G.G.G.U.G.G.J.G.",
"W.W.H.F.S.S.&XT ~ U T -X XV.I e e 0 S x.`.8.9 6 k % ( /.].].R.F.F.N.N.!.Q.].].W./.J.].W.G.J./.U.W.].",
"M.j.j.j.l.j.7.R W Q T :.S.%Xe L U M w O.oXw.8 6 5 % 8.OX].F.M.y.j.y.l.h.c.F.@X X{.}.].].].].]. X X{.",
"l.l.l.j.l.l.l.$.T T s p.d.i T Y Y Y u q Z.I.7 8 % J ~.Q.l.y.M.l.l.l.l.l.l.l.S.J.OX#X#X#X#X#X{.J.S.M.",
"M.M.M.M.M.M.M.l.5.#.8.V.+.r N Y P P z 0 J P.b.O.:.C.F.y.y.M.M.M.M.M.M.M.M.M.M.M.S.H.J.H.H.S.S.M.M.M.",
"M.D.M.D.M.D.D.D.G.D.L.#.e s Y Y =.P P y & A z.S.N.N.M.y.M.F.S.S.D.D.D.D.M.D.D.D.S.S.S.F.S.D.S.S.S.D.",
"D.D.G.G.J.G.J.J.H.U.%Xr s Y Y Y V Y V V i & F S.R.J.H.G.W.J.J./.F.D.J.G.D.U.D.D.J./.G.H.J.H.J.J.G.G.",
"J./.J.{.U.{.{.J.F.d.Z s Y Y P B B B B V B 2 : b.].Q./.].Q. X].Q./.Q.`.J./.J.{./././.W.R.{.]./.{.J./.",
"]. XOXOX XW.l.i.e...p M V C B m v v l x x 6 : 8.R.S.l.l.N.S.H./.}.@X}. XOX}.@X}.H.h.r.r.h.l.W.].{.OX",
"#X@XOXH.l.s.s.s.s.,.i p N v q w 0 0 q 6 6 : > >.y.r.i.r.r.e.r.r.y.y.N.F.F.F.S.y.e.e.r.r.t.s.h.l.J.OX",
"M.S.j.j.h.h.j.h.s.s.| i e w u ( 3.` 5 : : > / t.h.h.h.h.h.h.j.s.y.r.t.r.r.r.r.r.s.h.h.h.h.j.h.h.h.l.",
"j.j.l.j.l.l.j.j.M.M.l.p.7.7.a.l.y.l.g.>. .<.l.j.l.l.l.l.l.l.l.j.l.l.N.S.y.l.l.y.l.j.j.l.l.j.l.l.l.j.",
"S.M.S.M.S.M.M.S.M.M.M.S.M.S.D.M.D.S.S.S.S.D.l.D.S.M.S.M.M.M.S.S.S.S.S.F.F.S.S.S.S.S.M.M.M.M.M.M.M.S.",
"D.G.G.G.D.G.D.D.D.D.D.D.D.D.D.D.H.D.D.H.H.J.D.H.G.D.D.G.G.G.G.H.R.F.S.N.F.F.F.D.G.G.D.D.D.D.G.D.G.G.",
"W.W./.].W.W./.U.U.J.J.].U.W._._.W.H.S.M.F.F.H.W.].].{.W./.J.J.M.l.l.y.y.h.h.y.N.G.W./.W.J.]./././.{.",
"l.N.S.G.W.{.]. XoX+X X X X XW.G.M.l.j.M.y.y.l.l.N.S.S.F.S.c.l.h.y.y.l.y.l.y.l.l.l.l.W.{.OX XOXR.H.S.",
"l.l.l.l.M.M.D./.].{.OX{.W.S.M.l.l.M.l.M.l.M.l.M.j.l.l.M.j.l.M.M.l.S.l.l.l.M.h.S.M.j.M.M.S.S.S.M.M.l.",
"M.S.M.M.M.M.M.M.L.M.M.M.S.S.l.S.M.M.M.M.M.M.M.M.M.M.M.M.M.M.M.M.M.S.M.M.M.S.M.M.M.M.M.M.M.M.M.M.M.M."
};
